%TF.GenerationSoftware,KiCad,Pcbnew,9.0.6*%
%TF.CreationDate,2025-11-21T00:36:57-05:00*%
%TF.ProjectId,Ornament2025,4f726e61-6d65-46e7-9432-3032352e6b69,rev?*%
%TF.SameCoordinates,Original*%
%TF.FileFunction,Paste,Top*%
%TF.FilePolarity,Positive*%
%FSLAX46Y46*%
G04 Gerber Fmt 4.6, Leading zero omitted, Abs format (unit mm)*
G04 Created by KiCad (PCBNEW 9.0.6) date 2025-11-21 00:36:57*
%MOMM*%
%LPD*%
G01*
G04 APERTURE LIST*
G04 Aperture macros list*
%AMRoundRect*
0 Rectangle with rounded corners*
0 $1 Rounding radius*
0 $2 $3 $4 $5 $6 $7 $8 $9 X,Y pos of 4 corners*
0 Add a 4 corners polygon primitive as box body*
4,1,4,$2,$3,$4,$5,$6,$7,$8,$9,$2,$3,0*
0 Add four circle primitives for the rounded corners*
1,1,$1+$1,$2,$3*
1,1,$1+$1,$4,$5*
1,1,$1+$1,$6,$7*
1,1,$1+$1,$8,$9*
0 Add four rect primitives between the rounded corners*
20,1,$1+$1,$2,$3,$4,$5,0*
20,1,$1+$1,$4,$5,$6,$7,0*
20,1,$1+$1,$6,$7,$8,$9,0*
20,1,$1+$1,$8,$9,$2,$3,0*%
G04 Aperture macros list end*
%ADD10RoundRect,0.250000X-0.262500X-0.450000X0.262500X-0.450000X0.262500X0.450000X-0.262500X0.450000X0*%
%ADD11RoundRect,0.250000X0.450000X-0.262500X0.450000X0.262500X-0.450000X0.262500X-0.450000X-0.262500X0*%
%ADD12RoundRect,0.250000X0.262500X0.450000X-0.262500X0.450000X-0.262500X-0.450000X0.262500X-0.450000X0*%
%ADD13RoundRect,0.250000X-0.250000X-0.475000X0.250000X-0.475000X0.250000X0.475000X-0.250000X0.475000X0*%
%ADD14RoundRect,0.230000X-0.230000X-0.375000X0.230000X-0.375000X0.230000X0.375000X-0.230000X0.375000X0*%
%ADD15RoundRect,0.150000X-0.825000X-0.150000X0.825000X-0.150000X0.825000X0.150000X-0.825000X0.150000X0*%
%ADD16RoundRect,0.250000X-0.450000X0.262500X-0.450000X-0.262500X0.450000X-0.262500X0.450000X0.262500X0*%
G04 APERTURE END LIST*
D10*
%TO.C,R18*%
X156587500Y-131000000D03*
X158412500Y-131000000D03*
%TD*%
D11*
%TO.C,R17*%
X105000000Y-134912500D03*
X105000000Y-133087500D03*
%TD*%
D10*
%TO.C,R16*%
X123587500Y-77000000D03*
X125412500Y-77000000D03*
%TD*%
%TO.C,R12*%
X106087500Y-76500000D03*
X107912500Y-76500000D03*
%TD*%
D12*
%TO.C,R5*%
X151912500Y-100500000D03*
X150087500Y-100500000D03*
%TD*%
%TO.C,R7*%
X111912500Y-97000000D03*
X110087500Y-97000000D03*
%TD*%
%TO.C,R2*%
X125912500Y-90000000D03*
X124087500Y-90000000D03*
%TD*%
D13*
%TO.C,C1*%
X101050000Y-99000000D03*
X102950000Y-99000000D03*
%TD*%
D11*
%TO.C,R4*%
X100000000Y-127912500D03*
X100000000Y-126087500D03*
%TD*%
D13*
%TO.C,C2*%
X118550000Y-116000000D03*
X120450000Y-116000000D03*
%TD*%
D12*
%TO.C,R6*%
X121412500Y-46500000D03*
X119587500Y-46500000D03*
%TD*%
D11*
%TO.C,R15*%
X138500000Y-115912500D03*
X138500000Y-114087500D03*
%TD*%
%TO.C,R10*%
X146000000Y-76325000D03*
X146000000Y-74500000D03*
%TD*%
D14*
%TO.C,U1*%
X127860000Y-109000000D03*
X127860000Y-110500000D03*
X129000000Y-109000000D03*
X129000000Y-110500000D03*
D15*
X125955000Y-107845000D03*
X125955000Y-109115000D03*
X125955000Y-110385000D03*
X125955000Y-111655000D03*
X130905000Y-111655000D03*
X130905000Y-110385000D03*
X130905000Y-109115000D03*
X130905000Y-107845000D03*
%TD*%
D16*
%TO.C,R8*%
X135000000Y-82087500D03*
X135000000Y-83912500D03*
%TD*%
D11*
%TO.C,R3*%
X135000000Y-65412500D03*
X135000000Y-63587500D03*
%TD*%
D10*
%TO.C,R9*%
X116587500Y-82000000D03*
X118412500Y-82000000D03*
%TD*%
D12*
%TO.C,R13*%
X113912500Y-107000000D03*
X112087500Y-107000000D03*
%TD*%
D10*
%TO.C,R1*%
X140087500Y-133000000D03*
X141912500Y-133000000D03*
%TD*%
%TO.C,R14*%
X138087500Y-103000000D03*
X139912500Y-103000000D03*
%TD*%
D12*
%TO.C,R11*%
X126000000Y-100500000D03*
X124175000Y-100500000D03*
%TD*%
M02*
