%TF.GenerationSoftware,KiCad,Pcbnew,9.0.6*%
%TF.CreationDate,2025-11-21T00:36:58-05:00*%
%TF.ProjectId,Ornament2025,4f726e61-6d65-46e7-9432-3032352e6b69,rev?*%
%TF.SameCoordinates,Original*%
%TF.FileFunction,Legend,Top*%
%TF.FilePolarity,Positive*%
%FSLAX46Y46*%
G04 Gerber Fmt 4.6, Leading zero omitted, Abs format (unit mm)*
G04 Created by KiCad (PCBNEW 9.0.6) date 2025-11-21 00:36:58*
%MOMM*%
%LPD*%
G01*
G04 APERTURE LIST*
G04 Aperture macros list*
%AMRoundRect*
0 Rectangle with rounded corners*
0 $1 Rounding radius*
0 $2 $3 $4 $5 $6 $7 $8 $9 X,Y pos of 4 corners*
0 Add a 4 corners polygon primitive as box body*
4,1,4,$2,$3,$4,$5,$6,$7,$8,$9,$2,$3,0*
0 Add four circle primitives for the rounded corners*
1,1,$1+$1,$2,$3*
1,1,$1+$1,$4,$5*
1,1,$1+$1,$6,$7*
1,1,$1+$1,$8,$9*
0 Add four rect primitives between the rounded corners*
20,1,$1+$1,$2,$3,$4,$5,0*
20,1,$1+$1,$4,$5,$6,$7,0*
20,1,$1+$1,$6,$7,$8,$9,0*
20,1,$1+$1,$8,$9,$2,$3,0*%
G04 Aperture macros list end*
%ADD10C,0.000000*%
%ADD11C,0.150000*%
%ADD12C,0.120000*%
%ADD13R,1.500000X1.500000*%
%ADD14C,1.500000*%
%ADD15R,2.000000X2.000000*%
%ADD16C,2.000000*%
%ADD17C,1.700000*%
%ADD18R,1.700000X1.700000*%
%ADD19RoundRect,0.250000X-0.262500X-0.450000X0.262500X-0.450000X0.262500X0.450000X-0.262500X0.450000X0*%
%ADD20RoundRect,0.250000X0.450000X-0.262500X0.450000X0.262500X-0.450000X0.262500X-0.450000X-0.262500X0*%
%ADD21RoundRect,0.250000X0.262500X0.450000X-0.262500X0.450000X-0.262500X-0.450000X0.262500X-0.450000X0*%
%ADD22R,1.800000X1.800000*%
%ADD23C,1.800000*%
%ADD24RoundRect,0.250000X-0.250000X-0.475000X0.250000X-0.475000X0.250000X0.475000X-0.250000X0.475000X0*%
%ADD25RoundRect,0.150000X-0.825000X-0.150000X0.825000X-0.150000X0.825000X0.150000X-0.825000X0.150000X0*%
%ADD26R,2.290000X3.000000*%
%ADD27RoundRect,0.250000X-0.450000X0.262500X-0.450000X-0.262500X0.450000X-0.262500X0.450000X0.262500X0*%
G04 APERTURE END LIST*
D10*
G36*
X120313252Y-39374026D02*
G01*
X120305454Y-39451312D01*
X120298982Y-39525489D01*
X120293911Y-39596367D01*
X120290315Y-39663754D01*
X120288268Y-39727461D01*
X120287845Y-39787296D01*
X120289119Y-39843069D01*
X120292166Y-39894589D01*
X120297058Y-39941666D01*
X120303870Y-39984108D01*
X120312677Y-40021725D01*
X120317852Y-40038664D01*
X120323553Y-40054326D01*
X120329790Y-40068686D01*
X120336572Y-40081721D01*
X120343908Y-40093407D01*
X120351808Y-40103719D01*
X120360280Y-40112634D01*
X120369335Y-40120129D01*
X120375888Y-40124405D01*
X120383006Y-40128159D01*
X120398895Y-40134139D01*
X120416911Y-40138154D01*
X120436966Y-40140286D01*
X120458969Y-40140620D01*
X120482830Y-40139237D01*
X120508461Y-40136221D01*
X120535770Y-40131655D01*
X120564670Y-40125623D01*
X120595069Y-40118208D01*
X120626878Y-40109493D01*
X120660007Y-40099561D01*
X120729869Y-40076379D01*
X120803936Y-40049329D01*
X120688607Y-40358947D01*
X120543907Y-40702540D01*
X120367645Y-41077576D01*
X120157633Y-41481520D01*
X119911679Y-41911842D01*
X119627596Y-42366007D01*
X119303194Y-42841482D01*
X118936283Y-43335734D01*
X118524674Y-43846231D01*
X118066178Y-44370440D01*
X117558604Y-44905827D01*
X116999764Y-45449859D01*
X116387469Y-46000004D01*
X115719528Y-46553729D01*
X114993753Y-47108499D01*
X114207954Y-47661784D01*
X113433820Y-48178894D01*
X112619902Y-48703850D01*
X111753624Y-49234406D01*
X110822405Y-49768314D01*
X109813667Y-50303328D01*
X108714833Y-50837200D01*
X108127698Y-51103006D01*
X107513322Y-51367684D01*
X106870133Y-51630953D01*
X106196558Y-51892533D01*
X106014164Y-51690336D01*
X105837348Y-51484272D01*
X105667008Y-51273949D01*
X105504043Y-51058980D01*
X105425608Y-50949631D01*
X105349353Y-50838973D01*
X105275392Y-50726959D01*
X105203836Y-50613540D01*
X105134799Y-50498667D01*
X105068392Y-50382291D01*
X105004728Y-50264363D01*
X104943920Y-50144835D01*
X106133928Y-49799306D01*
X107296064Y-49400709D01*
X108429763Y-48950911D01*
X109534458Y-48451780D01*
X110609583Y-47905182D01*
X111654570Y-47312985D01*
X112668855Y-46677056D01*
X113651869Y-45999262D01*
X114603048Y-45281470D01*
X115521824Y-44525547D01*
X116407631Y-43733360D01*
X117259903Y-42906777D01*
X118078072Y-42047664D01*
X118861574Y-41157889D01*
X119609841Y-40239318D01*
X120322303Y-39293825D01*
X120313252Y-39374026D01*
G37*
G36*
X120322303Y-39293825D02*
G01*
X120322303Y-39293823D01*
X120322307Y-39293820D01*
X120322303Y-39293825D01*
G37*
G36*
X144943542Y-105144577D02*
G01*
X146342760Y-107764919D01*
X147824509Y-110233231D01*
X149384699Y-112551866D01*
X151019238Y-114723180D01*
X152724035Y-116749526D01*
X154494999Y-118633257D01*
X156328039Y-120376727D01*
X158219064Y-121982291D01*
X160163983Y-123452301D01*
X162158704Y-124789111D01*
X164199136Y-125995076D01*
X166281189Y-127072548D01*
X168400770Y-128023882D01*
X170553790Y-128851432D01*
X172736156Y-129557551D01*
X174943779Y-130144593D01*
X174007540Y-130516385D01*
X173092565Y-130872050D01*
X172192270Y-131215386D01*
X171300071Y-131550194D01*
X169543924Y-130817399D01*
X167596970Y-129933136D01*
X165516934Y-128908382D01*
X163361539Y-127754112D01*
X162273621Y-127131838D01*
X161188510Y-126481300D01*
X160113421Y-125803871D01*
X159055570Y-125100922D01*
X158022173Y-124373826D01*
X157020444Y-123623954D01*
X156057599Y-122852679D01*
X155140853Y-122061371D01*
X154358236Y-121342498D01*
X153609277Y-120623776D01*
X152893418Y-119906529D01*
X152210095Y-119192080D01*
X151558750Y-118481754D01*
X150938819Y-117776875D01*
X150349744Y-117078765D01*
X149790962Y-116388749D01*
X148762035Y-115038292D01*
X147847551Y-113736093D01*
X147043021Y-112492743D01*
X146343959Y-111318830D01*
X145745877Y-110224944D01*
X145244286Y-109221676D01*
X144834699Y-108319613D01*
X144512628Y-107529346D01*
X144273586Y-106861465D01*
X144113084Y-106326559D01*
X144026634Y-105935217D01*
X144009750Y-105698029D01*
X144015914Y-105669036D01*
X144024069Y-105640339D01*
X144034165Y-105611982D01*
X144046152Y-105584011D01*
X144059978Y-105556473D01*
X144075593Y-105529414D01*
X144111986Y-105476916D01*
X144154928Y-105426884D01*
X144204012Y-105379688D01*
X144258833Y-105335693D01*
X144318986Y-105295269D01*
X144384067Y-105258784D01*
X144453668Y-105226606D01*
X144527387Y-105199101D01*
X144604816Y-105176640D01*
X144685552Y-105159589D01*
X144769188Y-105148316D01*
X144855320Y-105143189D01*
X144943542Y-105144577D01*
G37*
G36*
X134861446Y-55141477D02*
G01*
X134943637Y-55145049D01*
X135506148Y-56626083D01*
X136176921Y-58100237D01*
X136952399Y-59562384D01*
X137829027Y-61007396D01*
X138803246Y-62430148D01*
X139871500Y-63825510D01*
X141030232Y-65188358D01*
X142275885Y-66513564D01*
X143604903Y-67796000D01*
X145013727Y-69030541D01*
X146498802Y-70212059D01*
X148056571Y-71335426D01*
X149683476Y-72395517D01*
X151375961Y-73387204D01*
X153130469Y-74305361D01*
X154943443Y-75144860D01*
X154760321Y-75300262D01*
X154575264Y-75453101D01*
X154388353Y-75603461D01*
X154199667Y-75751427D01*
X154009290Y-75897081D01*
X153817300Y-76040508D01*
X153623780Y-76181791D01*
X153428810Y-76321015D01*
X152461833Y-75826661D01*
X151550949Y-75340599D01*
X150692593Y-74861639D01*
X149883199Y-74388596D01*
X149119201Y-73920280D01*
X148397032Y-73455503D01*
X147713127Y-72993079D01*
X147063921Y-72531820D01*
X146445846Y-72070536D01*
X145855337Y-71608041D01*
X145288829Y-71143148D01*
X144742755Y-70674667D01*
X144213549Y-70201411D01*
X143697645Y-69722193D01*
X142691482Y-68741118D01*
X142073677Y-68110037D01*
X141485716Y-67486121D01*
X140926945Y-66870050D01*
X140396711Y-66262505D01*
X139894359Y-65664167D01*
X139419236Y-65075718D01*
X138970688Y-64497837D01*
X138548060Y-63931207D01*
X137777952Y-62834422D01*
X137103680Y-61790811D01*
X136520014Y-60805821D01*
X136021722Y-59884900D01*
X135603573Y-59033498D01*
X135260337Y-58257063D01*
X134986782Y-57561042D01*
X134777676Y-56950883D01*
X134627790Y-56432036D01*
X134531891Y-56009948D01*
X134484749Y-55690068D01*
X134481132Y-55477843D01*
X134501232Y-55427060D01*
X134516575Y-55381023D01*
X134528433Y-55339571D01*
X134538077Y-55302546D01*
X134546777Y-55269785D01*
X134555804Y-55241129D01*
X134566429Y-55216417D01*
X134572737Y-55205491D01*
X134579922Y-55195490D01*
X134588142Y-55186395D01*
X134597555Y-55178186D01*
X134608321Y-55170843D01*
X134620599Y-55164345D01*
X134634546Y-55158673D01*
X134650323Y-55153807D01*
X134668088Y-55149727D01*
X134687999Y-55146412D01*
X134710216Y-55143843D01*
X134734898Y-55141999D01*
X134792290Y-55140407D01*
X134861446Y-55141477D01*
G37*
G36*
X105032144Y-105143188D02*
G01*
X105075497Y-105144959D01*
X105118276Y-105148313D01*
X105160431Y-105153204D01*
X105201912Y-105159586D01*
X105242668Y-105167412D01*
X105282648Y-105176637D01*
X105321801Y-105187214D01*
X105360077Y-105199098D01*
X105397425Y-105212243D01*
X105433795Y-105226602D01*
X105469136Y-105242130D01*
X105503397Y-105258781D01*
X105536527Y-105276508D01*
X105568476Y-105295267D01*
X105599194Y-105315009D01*
X105628630Y-105335691D01*
X105656732Y-105357265D01*
X105683451Y-105379686D01*
X105708735Y-105402907D01*
X105732534Y-105426883D01*
X105754798Y-105451568D01*
X105775476Y-105476915D01*
X105794517Y-105502879D01*
X105811870Y-105529414D01*
X105827485Y-105556473D01*
X105841311Y-105584011D01*
X105853297Y-105611981D01*
X105863394Y-105640339D01*
X105871550Y-105669036D01*
X105877714Y-105698029D01*
X105860830Y-105935217D01*
X105774381Y-106326559D01*
X105613880Y-106861465D01*
X105374838Y-107529346D01*
X105052767Y-108319613D01*
X104643180Y-109221676D01*
X104141590Y-110224944D01*
X103543507Y-111318830D01*
X102844445Y-112492743D01*
X102039916Y-113736093D01*
X101125432Y-115038292D01*
X100096505Y-116388749D01*
X98948647Y-117776875D01*
X97677371Y-119192080D01*
X96278188Y-120623776D01*
X94746612Y-122061371D01*
X93829867Y-122852679D01*
X92867022Y-123623954D01*
X91865292Y-124373826D01*
X90831894Y-125100922D01*
X89774043Y-125803871D01*
X88698954Y-126481300D01*
X87613843Y-127131838D01*
X86525924Y-127754112D01*
X84370530Y-128908382D01*
X82290493Y-129933136D01*
X80343539Y-130817399D01*
X78587392Y-131550194D01*
X77695193Y-131215386D01*
X76794898Y-130872050D01*
X75879924Y-130516385D01*
X74943687Y-130144593D01*
X77151308Y-129557551D01*
X79333674Y-128851432D01*
X81486693Y-128023882D01*
X83606274Y-127072548D01*
X85688326Y-125995076D01*
X87728758Y-124789111D01*
X89723478Y-123452301D01*
X91668397Y-121982291D01*
X93559422Y-120376727D01*
X95392462Y-118633257D01*
X97163426Y-116749526D01*
X98868224Y-114723180D01*
X100502763Y-112551866D01*
X102062953Y-110233231D01*
X103544703Y-107764919D01*
X104943922Y-105144577D01*
X104988269Y-105143045D01*
X105032144Y-105143188D01*
G37*
G36*
X110071182Y-80143434D02*
G01*
X110111038Y-80145664D01*
X110149597Y-80149147D01*
X110186881Y-80153855D01*
X110222912Y-80159759D01*
X110257711Y-80166830D01*
X110291301Y-80175038D01*
X110323703Y-80184354D01*
X110354940Y-80194751D01*
X110385032Y-80206198D01*
X110414002Y-80218667D01*
X110441871Y-80232129D01*
X110468662Y-80246555D01*
X110494397Y-80261916D01*
X110519096Y-80278182D01*
X110542783Y-80295326D01*
X110565478Y-80313317D01*
X110587204Y-80332128D01*
X110607982Y-80351728D01*
X110627835Y-80372090D01*
X110646784Y-80393183D01*
X110664851Y-80414980D01*
X110682058Y-80437451D01*
X110698426Y-80460567D01*
X110713978Y-80484300D01*
X110728735Y-80508619D01*
X110755953Y-80558905D01*
X110780254Y-80611191D01*
X110784077Y-80811005D01*
X110756148Y-81096723D01*
X110686577Y-81467506D01*
X110565474Y-81922515D01*
X110382950Y-82460910D01*
X110129115Y-83081851D01*
X109794080Y-83784499D01*
X109367955Y-84568013D01*
X108840851Y-85431555D01*
X108202877Y-86374284D01*
X107444145Y-87395361D01*
X106554765Y-88493945D01*
X105524846Y-89669199D01*
X104344501Y-90920281D01*
X103003838Y-92246352D01*
X101492969Y-93646572D01*
X100526887Y-94479662D01*
X99553448Y-95253255D01*
X98575842Y-95970257D01*
X97597262Y-96633575D01*
X96620898Y-97246117D01*
X95649942Y-97810789D01*
X94687584Y-98330498D01*
X93737016Y-98808152D01*
X92801430Y-99246656D01*
X91884015Y-99648917D01*
X90987964Y-100017844D01*
X90116468Y-100356342D01*
X88459904Y-100953679D01*
X86939853Y-101464184D01*
X86675760Y-101311467D01*
X86415422Y-101155438D01*
X86159041Y-100996011D01*
X85906821Y-100833100D01*
X85658963Y-100666618D01*
X85415671Y-100496480D01*
X85177146Y-100322598D01*
X84943593Y-100144886D01*
X86061981Y-99851299D01*
X87168421Y-99525139D01*
X89341537Y-98779581D01*
X91455098Y-97917164D01*
X93501262Y-96946840D01*
X95472187Y-95877561D01*
X97360030Y-94718277D01*
X99156948Y-93477940D01*
X100855099Y-92165503D01*
X102446641Y-90789915D01*
X103923732Y-89360131D01*
X105278528Y-87885099D01*
X106503188Y-86373774D01*
X107589869Y-84835105D01*
X108530729Y-83278044D01*
X108944025Y-82495414D01*
X109317925Y-81711543D01*
X109651448Y-80927551D01*
X109943615Y-80144554D01*
X109987492Y-80142850D01*
X110030007Y-80142486D01*
X110071182Y-80143434D01*
G37*
G36*
X115125257Y-55140860D02*
G01*
X115152562Y-55141999D01*
X115177244Y-55143843D01*
X115199461Y-55146412D01*
X115219373Y-55149727D01*
X115237137Y-55153808D01*
X115252914Y-55158674D01*
X115266862Y-55164346D01*
X115279139Y-55170843D01*
X115289905Y-55178186D01*
X115299319Y-55186396D01*
X115307539Y-55195491D01*
X115314723Y-55205491D01*
X115321032Y-55216418D01*
X115326624Y-55228291D01*
X115331657Y-55241130D01*
X115340684Y-55269786D01*
X115349383Y-55302546D01*
X115359027Y-55339572D01*
X115370884Y-55381023D01*
X115386227Y-55427060D01*
X115395603Y-55451848D01*
X115406326Y-55477843D01*
X115402710Y-55690068D01*
X115355568Y-56009949D01*
X115259670Y-56432038D01*
X115109784Y-56950885D01*
X114900679Y-57561043D01*
X114627124Y-58257064D01*
X114283887Y-59033500D01*
X113865739Y-59884902D01*
X113367447Y-60805822D01*
X112783781Y-61790812D01*
X112109509Y-62834423D01*
X111339400Y-63931208D01*
X110468224Y-65075718D01*
X109490748Y-66262505D01*
X108401743Y-67486121D01*
X107195976Y-68741118D01*
X106189814Y-69722193D01*
X105144706Y-70674667D01*
X104032123Y-71608041D01*
X103441615Y-72070536D01*
X102823540Y-72531820D01*
X102174333Y-72993079D01*
X101490428Y-73455503D01*
X100768259Y-73920280D01*
X100004261Y-74388596D01*
X99194866Y-74861639D01*
X98336510Y-75340599D01*
X97425627Y-75826661D01*
X96458650Y-76321015D01*
X96263679Y-76181791D01*
X96070159Y-76040508D01*
X95878170Y-75897081D01*
X95687792Y-75751427D01*
X95499107Y-75603461D01*
X95312195Y-75453101D01*
X95127138Y-75300262D01*
X94944015Y-75144860D01*
X96756990Y-74305361D01*
X98511499Y-73387204D01*
X100203985Y-72395517D01*
X101830891Y-71335426D01*
X103388661Y-70212059D01*
X104873736Y-69030541D01*
X106282561Y-67796000D01*
X107611579Y-66513564D01*
X108857232Y-65188358D01*
X110015964Y-63825510D01*
X111084218Y-62430148D01*
X112058437Y-61007396D01*
X112935064Y-59562384D01*
X113710542Y-58100237D01*
X114381315Y-56626083D01*
X114943824Y-55145049D01*
X114943821Y-55145049D01*
X115026012Y-55141477D01*
X115095169Y-55140407D01*
X115125257Y-55140860D01*
G37*
G36*
X130277625Y-40239314D02*
G01*
X131025893Y-41157885D01*
X131809395Y-42047660D01*
X132627565Y-42906773D01*
X133479837Y-43733356D01*
X134365645Y-44525543D01*
X135284421Y-45281466D01*
X136235600Y-45999258D01*
X137218614Y-46677052D01*
X138232899Y-47312982D01*
X139277886Y-47905178D01*
X140353011Y-48451776D01*
X141457706Y-48950907D01*
X142591405Y-49400705D01*
X143753542Y-49799302D01*
X144943550Y-50144831D01*
X144882741Y-50264359D01*
X144819077Y-50382287D01*
X144752670Y-50498664D01*
X144683633Y-50613537D01*
X144612077Y-50726956D01*
X144538116Y-50838970D01*
X144461861Y-50949628D01*
X144383425Y-51058977D01*
X144302921Y-51167067D01*
X144220460Y-51273946D01*
X144050120Y-51484268D01*
X143873303Y-51690332D01*
X143690910Y-51892529D01*
X143017334Y-51630949D01*
X142374144Y-51367680D01*
X141759767Y-51103002D01*
X141172632Y-50837196D01*
X140611166Y-50570543D01*
X140073797Y-50303324D01*
X139558953Y-50035819D01*
X139065060Y-49768310D01*
X138133842Y-49234402D01*
X137267564Y-48703846D01*
X136453648Y-48178890D01*
X135679515Y-47661780D01*
X135278976Y-47385482D01*
X134893716Y-47108496D01*
X134167941Y-46553725D01*
X133500000Y-46000000D01*
X132887704Y-45449856D01*
X132328864Y-44905823D01*
X131821291Y-44370436D01*
X131362794Y-43846228D01*
X130951185Y-43335731D01*
X130584274Y-42841478D01*
X130259871Y-42366003D01*
X129975788Y-41911838D01*
X129729835Y-41481517D01*
X129519822Y-41077572D01*
X129343561Y-40702537D01*
X129198861Y-40358944D01*
X129083534Y-40049326D01*
X129121049Y-40063293D01*
X129157602Y-40076377D01*
X129193103Y-40088493D01*
X129227464Y-40099559D01*
X129260593Y-40109491D01*
X129292402Y-40118206D01*
X129322801Y-40125622D01*
X129351700Y-40131654D01*
X129379010Y-40136219D01*
X129404640Y-40139235D01*
X129428501Y-40140618D01*
X129450504Y-40140285D01*
X129460780Y-40139449D01*
X129470558Y-40138153D01*
X129479827Y-40136386D01*
X129488575Y-40134137D01*
X129496791Y-40131398D01*
X129504463Y-40128156D01*
X129511582Y-40124403D01*
X129518135Y-40120126D01*
X129535660Y-40103716D01*
X129550894Y-40081719D01*
X129563911Y-40054324D01*
X129574785Y-40021722D01*
X129583591Y-39984105D01*
X129590403Y-39941663D01*
X129595294Y-39894587D01*
X129598340Y-39843067D01*
X129599614Y-39787294D01*
X129599190Y-39727459D01*
X129593547Y-39596364D01*
X129582004Y-39451309D01*
X129565155Y-39293820D01*
X129565158Y-39293816D01*
X130277625Y-40239314D01*
G37*
G36*
X139943847Y-80144554D02*
G01*
X140569537Y-81711543D01*
X141356733Y-83278044D01*
X142297593Y-84835105D01*
X143384274Y-86373774D01*
X144608934Y-87885099D01*
X145963731Y-89360131D01*
X147440822Y-90789915D01*
X149032364Y-92165503D01*
X150730516Y-93477940D01*
X152527435Y-94718277D01*
X154415278Y-95877561D01*
X156386204Y-96946840D01*
X158432369Y-97917164D01*
X160545931Y-98779581D01*
X162719048Y-99525139D01*
X164943878Y-100144886D01*
X164710323Y-100322598D01*
X164471799Y-100496479D01*
X164228506Y-100666616D01*
X163980649Y-100833097D01*
X163728428Y-100996007D01*
X163472048Y-101155434D01*
X163211710Y-101311464D01*
X162947616Y-101464184D01*
X161427566Y-100953679D01*
X159771003Y-100356342D01*
X158003456Y-99648917D01*
X157086041Y-99246656D01*
X156150454Y-98808152D01*
X155199886Y-98330498D01*
X154237528Y-97810789D01*
X153266571Y-97246117D01*
X152290207Y-96633575D01*
X151311627Y-95970257D01*
X150334022Y-95253255D01*
X149360582Y-94479662D01*
X148394500Y-93646572D01*
X147617171Y-92937246D01*
X146883630Y-92246351D01*
X146192640Y-91573994D01*
X145542966Y-90920280D01*
X144933371Y-90285312D01*
X144362620Y-89669197D01*
X143829475Y-89072039D01*
X143332701Y-88493944D01*
X142871061Y-87935015D01*
X142443320Y-87395359D01*
X142048241Y-86875079D01*
X141684587Y-86374282D01*
X141351124Y-85893072D01*
X141046614Y-85431553D01*
X140769821Y-84989831D01*
X140519509Y-84568012D01*
X140294442Y-84166199D01*
X140093384Y-83784497D01*
X139758349Y-83081850D01*
X139504514Y-82460909D01*
X139321989Y-81922515D01*
X139200886Y-81467506D01*
X139131315Y-81096722D01*
X139103385Y-80811004D01*
X139107208Y-80611191D01*
X139131509Y-80558905D01*
X139158727Y-80508621D01*
X139189036Y-80460569D01*
X139222611Y-80414982D01*
X139259627Y-80372092D01*
X139300258Y-80332130D01*
X139344679Y-80295328D01*
X139393065Y-80261918D01*
X139445590Y-80232132D01*
X139502430Y-80206201D01*
X139563758Y-80184357D01*
X139629750Y-80166832D01*
X139700581Y-80153857D01*
X139776424Y-80145665D01*
X139857454Y-80142487D01*
X139943847Y-80144554D01*
G37*
D11*
X115174761Y-127350057D02*
X115079523Y-127302438D01*
X115079523Y-127302438D02*
X114984285Y-127207200D01*
X114984285Y-127207200D02*
X114841428Y-127064342D01*
X114841428Y-127064342D02*
X114746190Y-127016723D01*
X114746190Y-127016723D02*
X114650952Y-127016723D01*
X114698571Y-127254819D02*
X114603333Y-127207200D01*
X114603333Y-127207200D02*
X114508095Y-127111961D01*
X114508095Y-127111961D02*
X114460476Y-126921485D01*
X114460476Y-126921485D02*
X114460476Y-126588152D01*
X114460476Y-126588152D02*
X114508095Y-126397676D01*
X114508095Y-126397676D02*
X114603333Y-126302438D01*
X114603333Y-126302438D02*
X114698571Y-126254819D01*
X114698571Y-126254819D02*
X114889047Y-126254819D01*
X114889047Y-126254819D02*
X114984285Y-126302438D01*
X114984285Y-126302438D02*
X115079523Y-126397676D01*
X115079523Y-126397676D02*
X115127142Y-126588152D01*
X115127142Y-126588152D02*
X115127142Y-126921485D01*
X115127142Y-126921485D02*
X115079523Y-127111961D01*
X115079523Y-127111961D02*
X114984285Y-127207200D01*
X114984285Y-127207200D02*
X114889047Y-127254819D01*
X114889047Y-127254819D02*
X114698571Y-127254819D01*
X115508095Y-126350057D02*
X115555714Y-126302438D01*
X115555714Y-126302438D02*
X115650952Y-126254819D01*
X115650952Y-126254819D02*
X115889047Y-126254819D01*
X115889047Y-126254819D02*
X115984285Y-126302438D01*
X115984285Y-126302438D02*
X116031904Y-126350057D01*
X116031904Y-126350057D02*
X116079523Y-126445295D01*
X116079523Y-126445295D02*
X116079523Y-126540533D01*
X116079523Y-126540533D02*
X116031904Y-126683390D01*
X116031904Y-126683390D02*
X115460476Y-127254819D01*
X115460476Y-127254819D02*
X116079523Y-127254819D01*
X127174761Y-59260057D02*
X127079523Y-59212438D01*
X127079523Y-59212438D02*
X126984285Y-59117200D01*
X126984285Y-59117200D02*
X126841428Y-58974342D01*
X126841428Y-58974342D02*
X126746190Y-58926723D01*
X126746190Y-58926723D02*
X126650952Y-58926723D01*
X126698571Y-59164819D02*
X126603333Y-59117200D01*
X126603333Y-59117200D02*
X126508095Y-59021961D01*
X126508095Y-59021961D02*
X126460476Y-58831485D01*
X126460476Y-58831485D02*
X126460476Y-58498152D01*
X126460476Y-58498152D02*
X126508095Y-58307676D01*
X126508095Y-58307676D02*
X126603333Y-58212438D01*
X126603333Y-58212438D02*
X126698571Y-58164819D01*
X126698571Y-58164819D02*
X126889047Y-58164819D01*
X126889047Y-58164819D02*
X126984285Y-58212438D01*
X126984285Y-58212438D02*
X127079523Y-58307676D01*
X127079523Y-58307676D02*
X127127142Y-58498152D01*
X127127142Y-58498152D02*
X127127142Y-58831485D01*
X127127142Y-58831485D02*
X127079523Y-59021961D01*
X127079523Y-59021961D02*
X126984285Y-59117200D01*
X126984285Y-59117200D02*
X126889047Y-59164819D01*
X126889047Y-59164819D02*
X126698571Y-59164819D01*
X128079523Y-59164819D02*
X127508095Y-59164819D01*
X127793809Y-59164819D02*
X127793809Y-58164819D01*
X127793809Y-58164819D02*
X127698571Y-58307676D01*
X127698571Y-58307676D02*
X127603333Y-58402914D01*
X127603333Y-58402914D02*
X127508095Y-58450533D01*
X156714285Y-132438152D02*
X156714285Y-133104819D01*
X156476190Y-132057200D02*
X156238095Y-132771485D01*
X156238095Y-132771485D02*
X156857142Y-132771485D01*
X157142857Y-132104819D02*
X157809523Y-132104819D01*
X157809523Y-132104819D02*
X157380952Y-133104819D01*
X158190476Y-133104819D02*
X158190476Y-132104819D01*
X158761904Y-133104819D02*
X158333333Y-132533390D01*
X158761904Y-132104819D02*
X158190476Y-132676247D01*
X106438152Y-134785714D02*
X107104819Y-134785714D01*
X106057200Y-135023809D02*
X106771485Y-135261904D01*
X106771485Y-135261904D02*
X106771485Y-134642857D01*
X106104819Y-134357142D02*
X106104819Y-133690476D01*
X106104819Y-133690476D02*
X107104819Y-134119047D01*
X107104819Y-133309523D02*
X106104819Y-133309523D01*
X107104819Y-132738095D02*
X106533390Y-133166666D01*
X106104819Y-132738095D02*
X106676247Y-133309523D01*
X123809523Y-79104819D02*
X123238095Y-79104819D01*
X123523809Y-79104819D02*
X123523809Y-78104819D01*
X123523809Y-78104819D02*
X123428571Y-78247676D01*
X123428571Y-78247676D02*
X123333333Y-78342914D01*
X123333333Y-78342914D02*
X123238095Y-78390533D01*
X124428571Y-78104819D02*
X124523809Y-78104819D01*
X124523809Y-78104819D02*
X124619047Y-78152438D01*
X124619047Y-78152438D02*
X124666666Y-78200057D01*
X124666666Y-78200057D02*
X124714285Y-78295295D01*
X124714285Y-78295295D02*
X124761904Y-78485771D01*
X124761904Y-78485771D02*
X124761904Y-78723866D01*
X124761904Y-78723866D02*
X124714285Y-78914342D01*
X124714285Y-78914342D02*
X124666666Y-79009580D01*
X124666666Y-79009580D02*
X124619047Y-79057200D01*
X124619047Y-79057200D02*
X124523809Y-79104819D01*
X124523809Y-79104819D02*
X124428571Y-79104819D01*
X124428571Y-79104819D02*
X124333333Y-79057200D01*
X124333333Y-79057200D02*
X124285714Y-79009580D01*
X124285714Y-79009580D02*
X124238095Y-78914342D01*
X124238095Y-78914342D02*
X124190476Y-78723866D01*
X124190476Y-78723866D02*
X124190476Y-78485771D01*
X124190476Y-78485771D02*
X124238095Y-78295295D01*
X124238095Y-78295295D02*
X124285714Y-78200057D01*
X124285714Y-78200057D02*
X124333333Y-78152438D01*
X124333333Y-78152438D02*
X124428571Y-78104819D01*
X125190476Y-79104819D02*
X125190476Y-78104819D01*
X125761904Y-79104819D02*
X125333333Y-78533390D01*
X125761904Y-78104819D02*
X125190476Y-78676247D01*
X106309523Y-78604819D02*
X105738095Y-78604819D01*
X106023809Y-78604819D02*
X106023809Y-77604819D01*
X106023809Y-77604819D02*
X105928571Y-77747676D01*
X105928571Y-77747676D02*
X105833333Y-77842914D01*
X105833333Y-77842914D02*
X105738095Y-77890533D01*
X106928571Y-77604819D02*
X107023809Y-77604819D01*
X107023809Y-77604819D02*
X107119047Y-77652438D01*
X107119047Y-77652438D02*
X107166666Y-77700057D01*
X107166666Y-77700057D02*
X107214285Y-77795295D01*
X107214285Y-77795295D02*
X107261904Y-77985771D01*
X107261904Y-77985771D02*
X107261904Y-78223866D01*
X107261904Y-78223866D02*
X107214285Y-78414342D01*
X107214285Y-78414342D02*
X107166666Y-78509580D01*
X107166666Y-78509580D02*
X107119047Y-78557200D01*
X107119047Y-78557200D02*
X107023809Y-78604819D01*
X107023809Y-78604819D02*
X106928571Y-78604819D01*
X106928571Y-78604819D02*
X106833333Y-78557200D01*
X106833333Y-78557200D02*
X106785714Y-78509580D01*
X106785714Y-78509580D02*
X106738095Y-78414342D01*
X106738095Y-78414342D02*
X106690476Y-78223866D01*
X106690476Y-78223866D02*
X106690476Y-77985771D01*
X106690476Y-77985771D02*
X106738095Y-77795295D01*
X106738095Y-77795295D02*
X106785714Y-77700057D01*
X106785714Y-77700057D02*
X106833333Y-77652438D01*
X106833333Y-77652438D02*
X106928571Y-77604819D01*
X107690476Y-78604819D02*
X107690476Y-77604819D01*
X108261904Y-78604819D02*
X107833333Y-78033390D01*
X108261904Y-77604819D02*
X107690476Y-78176247D01*
X150785714Y-99304819D02*
X150214286Y-99304819D01*
X150500000Y-99304819D02*
X150500000Y-98304819D01*
X150500000Y-98304819D02*
X150404762Y-98447676D01*
X150404762Y-98447676D02*
X150309524Y-98542914D01*
X150309524Y-98542914D02*
X150214286Y-98590533D01*
X151214286Y-99304819D02*
X151214286Y-98304819D01*
X151785714Y-99304819D02*
X151357143Y-98733390D01*
X151785714Y-98304819D02*
X151214286Y-98876247D01*
X109833333Y-95804819D02*
X109261905Y-95804819D01*
X109547619Y-95804819D02*
X109547619Y-94804819D01*
X109547619Y-94804819D02*
X109452381Y-94947676D01*
X109452381Y-94947676D02*
X109357143Y-95042914D01*
X109357143Y-95042914D02*
X109261905Y-95090533D01*
X110452381Y-94804819D02*
X110547619Y-94804819D01*
X110547619Y-94804819D02*
X110642857Y-94852438D01*
X110642857Y-94852438D02*
X110690476Y-94900057D01*
X110690476Y-94900057D02*
X110738095Y-94995295D01*
X110738095Y-94995295D02*
X110785714Y-95185771D01*
X110785714Y-95185771D02*
X110785714Y-95423866D01*
X110785714Y-95423866D02*
X110738095Y-95614342D01*
X110738095Y-95614342D02*
X110690476Y-95709580D01*
X110690476Y-95709580D02*
X110642857Y-95757200D01*
X110642857Y-95757200D02*
X110547619Y-95804819D01*
X110547619Y-95804819D02*
X110452381Y-95804819D01*
X110452381Y-95804819D02*
X110357143Y-95757200D01*
X110357143Y-95757200D02*
X110309524Y-95709580D01*
X110309524Y-95709580D02*
X110261905Y-95614342D01*
X110261905Y-95614342D02*
X110214286Y-95423866D01*
X110214286Y-95423866D02*
X110214286Y-95185771D01*
X110214286Y-95185771D02*
X110261905Y-94995295D01*
X110261905Y-94995295D02*
X110309524Y-94900057D01*
X110309524Y-94900057D02*
X110357143Y-94852438D01*
X110357143Y-94852438D02*
X110452381Y-94804819D01*
X111404762Y-94804819D02*
X111500000Y-94804819D01*
X111500000Y-94804819D02*
X111595238Y-94852438D01*
X111595238Y-94852438D02*
X111642857Y-94900057D01*
X111642857Y-94900057D02*
X111690476Y-94995295D01*
X111690476Y-94995295D02*
X111738095Y-95185771D01*
X111738095Y-95185771D02*
X111738095Y-95423866D01*
X111738095Y-95423866D02*
X111690476Y-95614342D01*
X111690476Y-95614342D02*
X111642857Y-95709580D01*
X111642857Y-95709580D02*
X111595238Y-95757200D01*
X111595238Y-95757200D02*
X111500000Y-95804819D01*
X111500000Y-95804819D02*
X111404762Y-95804819D01*
X111404762Y-95804819D02*
X111309524Y-95757200D01*
X111309524Y-95757200D02*
X111261905Y-95709580D01*
X111261905Y-95709580D02*
X111214286Y-95614342D01*
X111214286Y-95614342D02*
X111166667Y-95423866D01*
X111166667Y-95423866D02*
X111166667Y-95185771D01*
X111166667Y-95185771D02*
X111214286Y-94995295D01*
X111214286Y-94995295D02*
X111261905Y-94900057D01*
X111261905Y-94900057D02*
X111309524Y-94852438D01*
X111309524Y-94852438D02*
X111404762Y-94804819D01*
X112166667Y-95804819D02*
X112166667Y-94804819D01*
X112738095Y-95804819D02*
X112309524Y-95233390D01*
X112738095Y-94804819D02*
X112166667Y-95376247D01*
X123976190Y-87804819D02*
X123785714Y-87804819D01*
X123785714Y-87804819D02*
X123690476Y-87852438D01*
X123690476Y-87852438D02*
X123642857Y-87900057D01*
X123642857Y-87900057D02*
X123547619Y-88042914D01*
X123547619Y-88042914D02*
X123500000Y-88233390D01*
X123500000Y-88233390D02*
X123500000Y-88614342D01*
X123500000Y-88614342D02*
X123547619Y-88709580D01*
X123547619Y-88709580D02*
X123595238Y-88757200D01*
X123595238Y-88757200D02*
X123690476Y-88804819D01*
X123690476Y-88804819D02*
X123880952Y-88804819D01*
X123880952Y-88804819D02*
X123976190Y-88757200D01*
X123976190Y-88757200D02*
X124023809Y-88709580D01*
X124023809Y-88709580D02*
X124071428Y-88614342D01*
X124071428Y-88614342D02*
X124071428Y-88376247D01*
X124071428Y-88376247D02*
X124023809Y-88281009D01*
X124023809Y-88281009D02*
X123976190Y-88233390D01*
X123976190Y-88233390D02*
X123880952Y-88185771D01*
X123880952Y-88185771D02*
X123690476Y-88185771D01*
X123690476Y-88185771D02*
X123595238Y-88233390D01*
X123595238Y-88233390D02*
X123547619Y-88281009D01*
X123547619Y-88281009D02*
X123500000Y-88376247D01*
X124500000Y-88709580D02*
X124547619Y-88757200D01*
X124547619Y-88757200D02*
X124500000Y-88804819D01*
X124500000Y-88804819D02*
X124452381Y-88757200D01*
X124452381Y-88757200D02*
X124500000Y-88709580D01*
X124500000Y-88709580D02*
X124500000Y-88804819D01*
X125119047Y-88233390D02*
X125023809Y-88185771D01*
X125023809Y-88185771D02*
X124976190Y-88138152D01*
X124976190Y-88138152D02*
X124928571Y-88042914D01*
X124928571Y-88042914D02*
X124928571Y-87995295D01*
X124928571Y-87995295D02*
X124976190Y-87900057D01*
X124976190Y-87900057D02*
X125023809Y-87852438D01*
X125023809Y-87852438D02*
X125119047Y-87804819D01*
X125119047Y-87804819D02*
X125309523Y-87804819D01*
X125309523Y-87804819D02*
X125404761Y-87852438D01*
X125404761Y-87852438D02*
X125452380Y-87900057D01*
X125452380Y-87900057D02*
X125499999Y-87995295D01*
X125499999Y-87995295D02*
X125499999Y-88042914D01*
X125499999Y-88042914D02*
X125452380Y-88138152D01*
X125452380Y-88138152D02*
X125404761Y-88185771D01*
X125404761Y-88185771D02*
X125309523Y-88233390D01*
X125309523Y-88233390D02*
X125119047Y-88233390D01*
X125119047Y-88233390D02*
X125023809Y-88281009D01*
X125023809Y-88281009D02*
X124976190Y-88328628D01*
X124976190Y-88328628D02*
X124928571Y-88423866D01*
X124928571Y-88423866D02*
X124928571Y-88614342D01*
X124928571Y-88614342D02*
X124976190Y-88709580D01*
X124976190Y-88709580D02*
X125023809Y-88757200D01*
X125023809Y-88757200D02*
X125119047Y-88804819D01*
X125119047Y-88804819D02*
X125309523Y-88804819D01*
X125309523Y-88804819D02*
X125404761Y-88757200D01*
X125404761Y-88757200D02*
X125452380Y-88709580D01*
X125452380Y-88709580D02*
X125499999Y-88614342D01*
X125499999Y-88614342D02*
X125499999Y-88423866D01*
X125499999Y-88423866D02*
X125452380Y-88328628D01*
X125452380Y-88328628D02*
X125404761Y-88281009D01*
X125404761Y-88281009D02*
X125309523Y-88233390D01*
X125928571Y-88804819D02*
X125928571Y-87804819D01*
X126499999Y-88804819D02*
X126071428Y-88233390D01*
X126499999Y-87804819D02*
X125928571Y-88376247D01*
X116357142Y-67414819D02*
X116023809Y-66938628D01*
X115785714Y-67414819D02*
X115785714Y-66414819D01*
X115785714Y-66414819D02*
X116166666Y-66414819D01*
X116166666Y-66414819D02*
X116261904Y-66462438D01*
X116261904Y-66462438D02*
X116309523Y-66510057D01*
X116309523Y-66510057D02*
X116357142Y-66605295D01*
X116357142Y-66605295D02*
X116357142Y-66748152D01*
X116357142Y-66748152D02*
X116309523Y-66843390D01*
X116309523Y-66843390D02*
X116261904Y-66891009D01*
X116261904Y-66891009D02*
X116166666Y-66938628D01*
X116166666Y-66938628D02*
X115785714Y-66938628D01*
X116785714Y-66891009D02*
X117119047Y-66891009D01*
X117261904Y-67414819D02*
X116785714Y-67414819D01*
X116785714Y-67414819D02*
X116785714Y-66414819D01*
X116785714Y-66414819D02*
X117261904Y-66414819D01*
X117690476Y-67414819D02*
X117690476Y-66414819D01*
X117690476Y-66414819D02*
X117928571Y-66414819D01*
X117928571Y-66414819D02*
X118071428Y-66462438D01*
X118071428Y-66462438D02*
X118166666Y-66557676D01*
X118166666Y-66557676D02*
X118214285Y-66652914D01*
X118214285Y-66652914D02*
X118261904Y-66843390D01*
X118261904Y-66843390D02*
X118261904Y-66986247D01*
X118261904Y-66986247D02*
X118214285Y-67176723D01*
X118214285Y-67176723D02*
X118166666Y-67271961D01*
X118166666Y-67271961D02*
X118071428Y-67367200D01*
X118071428Y-67367200D02*
X117928571Y-67414819D01*
X117928571Y-67414819D02*
X117690476Y-67414819D01*
X100119048Y-100230057D02*
X100166667Y-100182438D01*
X100166667Y-100182438D02*
X100261905Y-100134819D01*
X100261905Y-100134819D02*
X100500000Y-100134819D01*
X100500000Y-100134819D02*
X100595238Y-100182438D01*
X100595238Y-100182438D02*
X100642857Y-100230057D01*
X100642857Y-100230057D02*
X100690476Y-100325295D01*
X100690476Y-100325295D02*
X100690476Y-100420533D01*
X100690476Y-100420533D02*
X100642857Y-100563390D01*
X100642857Y-100563390D02*
X100071429Y-101134819D01*
X100071429Y-101134819D02*
X100690476Y-101134819D01*
X101119048Y-101039580D02*
X101166667Y-101087200D01*
X101166667Y-101087200D02*
X101119048Y-101134819D01*
X101119048Y-101134819D02*
X101071429Y-101087200D01*
X101071429Y-101087200D02*
X101119048Y-101039580D01*
X101119048Y-101039580D02*
X101119048Y-101134819D01*
X101547619Y-100230057D02*
X101595238Y-100182438D01*
X101595238Y-100182438D02*
X101690476Y-100134819D01*
X101690476Y-100134819D02*
X101928571Y-100134819D01*
X101928571Y-100134819D02*
X102023809Y-100182438D01*
X102023809Y-100182438D02*
X102071428Y-100230057D01*
X102071428Y-100230057D02*
X102119047Y-100325295D01*
X102119047Y-100325295D02*
X102119047Y-100420533D01*
X102119047Y-100420533D02*
X102071428Y-100563390D01*
X102071428Y-100563390D02*
X101500000Y-101134819D01*
X101500000Y-101134819D02*
X102119047Y-101134819D01*
X102976190Y-100468152D02*
X102976190Y-101134819D01*
X102547619Y-100468152D02*
X102547619Y-100991961D01*
X102547619Y-100991961D02*
X102595238Y-101087200D01*
X102595238Y-101087200D02*
X102690476Y-101134819D01*
X102690476Y-101134819D02*
X102833333Y-101134819D01*
X102833333Y-101134819D02*
X102928571Y-101087200D01*
X102928571Y-101087200D02*
X102976190Y-101039580D01*
X103785714Y-100611009D02*
X103452381Y-100611009D01*
X103452381Y-101134819D02*
X103452381Y-100134819D01*
X103452381Y-100134819D02*
X103928571Y-100134819D01*
X102104819Y-127214285D02*
X102104819Y-127785713D01*
X102104819Y-127499999D02*
X101104819Y-127499999D01*
X101104819Y-127499999D02*
X101247676Y-127595237D01*
X101247676Y-127595237D02*
X101342914Y-127690475D01*
X101342914Y-127690475D02*
X101390533Y-127785713D01*
X102104819Y-126785713D02*
X101104819Y-126785713D01*
X102104819Y-126214285D02*
X101533390Y-126642856D01*
X101104819Y-126214285D02*
X101676247Y-126785713D01*
X117619048Y-117230057D02*
X117666667Y-117182438D01*
X117666667Y-117182438D02*
X117761905Y-117134819D01*
X117761905Y-117134819D02*
X118000000Y-117134819D01*
X118000000Y-117134819D02*
X118095238Y-117182438D01*
X118095238Y-117182438D02*
X118142857Y-117230057D01*
X118142857Y-117230057D02*
X118190476Y-117325295D01*
X118190476Y-117325295D02*
X118190476Y-117420533D01*
X118190476Y-117420533D02*
X118142857Y-117563390D01*
X118142857Y-117563390D02*
X117571429Y-118134819D01*
X117571429Y-118134819D02*
X118190476Y-118134819D01*
X118619048Y-118039580D02*
X118666667Y-118087200D01*
X118666667Y-118087200D02*
X118619048Y-118134819D01*
X118619048Y-118134819D02*
X118571429Y-118087200D01*
X118571429Y-118087200D02*
X118619048Y-118039580D01*
X118619048Y-118039580D02*
X118619048Y-118134819D01*
X119047619Y-117230057D02*
X119095238Y-117182438D01*
X119095238Y-117182438D02*
X119190476Y-117134819D01*
X119190476Y-117134819D02*
X119428571Y-117134819D01*
X119428571Y-117134819D02*
X119523809Y-117182438D01*
X119523809Y-117182438D02*
X119571428Y-117230057D01*
X119571428Y-117230057D02*
X119619047Y-117325295D01*
X119619047Y-117325295D02*
X119619047Y-117420533D01*
X119619047Y-117420533D02*
X119571428Y-117563390D01*
X119571428Y-117563390D02*
X119000000Y-118134819D01*
X119000000Y-118134819D02*
X119619047Y-118134819D01*
X120476190Y-117468152D02*
X120476190Y-118134819D01*
X120047619Y-117468152D02*
X120047619Y-117991961D01*
X120047619Y-117991961D02*
X120095238Y-118087200D01*
X120095238Y-118087200D02*
X120190476Y-118134819D01*
X120190476Y-118134819D02*
X120333333Y-118134819D01*
X120333333Y-118134819D02*
X120428571Y-118087200D01*
X120428571Y-118087200D02*
X120476190Y-118039580D01*
X121285714Y-117611009D02*
X120952381Y-117611009D01*
X120952381Y-118134819D02*
X120952381Y-117134819D01*
X120952381Y-117134819D02*
X121428571Y-117134819D01*
X120285714Y-45304819D02*
X119714286Y-45304819D01*
X120000000Y-45304819D02*
X120000000Y-44304819D01*
X120000000Y-44304819D02*
X119904762Y-44447676D01*
X119904762Y-44447676D02*
X119809524Y-44542914D01*
X119809524Y-44542914D02*
X119714286Y-44590533D01*
X120714286Y-45304819D02*
X120714286Y-44304819D01*
X121285714Y-45304819D02*
X120857143Y-44733390D01*
X121285714Y-44304819D02*
X120714286Y-44876247D01*
X139938152Y-115785714D02*
X140604819Y-115785714D01*
X139557200Y-116023809D02*
X140271485Y-116261904D01*
X140271485Y-116261904D02*
X140271485Y-115642857D01*
X139604819Y-115357142D02*
X139604819Y-114690476D01*
X139604819Y-114690476D02*
X140604819Y-115119047D01*
X140604819Y-114309523D02*
X139604819Y-114309523D01*
X140604819Y-113738095D02*
X140033390Y-114166666D01*
X139604819Y-113738095D02*
X140176247Y-114309523D01*
X129238095Y-54462438D02*
X129142857Y-54414819D01*
X129142857Y-54414819D02*
X129000000Y-54414819D01*
X129000000Y-54414819D02*
X128857143Y-54462438D01*
X128857143Y-54462438D02*
X128761905Y-54557676D01*
X128761905Y-54557676D02*
X128714286Y-54652914D01*
X128714286Y-54652914D02*
X128666667Y-54843390D01*
X128666667Y-54843390D02*
X128666667Y-54986247D01*
X128666667Y-54986247D02*
X128714286Y-55176723D01*
X128714286Y-55176723D02*
X128761905Y-55271961D01*
X128761905Y-55271961D02*
X128857143Y-55367200D01*
X128857143Y-55367200D02*
X129000000Y-55414819D01*
X129000000Y-55414819D02*
X129095238Y-55414819D01*
X129095238Y-55414819D02*
X129238095Y-55367200D01*
X129238095Y-55367200D02*
X129285714Y-55319580D01*
X129285714Y-55319580D02*
X129285714Y-54986247D01*
X129285714Y-54986247D02*
X129095238Y-54986247D01*
X130285714Y-55414819D02*
X129952381Y-54938628D01*
X129714286Y-55414819D02*
X129714286Y-54414819D01*
X129714286Y-54414819D02*
X130095238Y-54414819D01*
X130095238Y-54414819D02*
X130190476Y-54462438D01*
X130190476Y-54462438D02*
X130238095Y-54510057D01*
X130238095Y-54510057D02*
X130285714Y-54605295D01*
X130285714Y-54605295D02*
X130285714Y-54748152D01*
X130285714Y-54748152D02*
X130238095Y-54843390D01*
X130238095Y-54843390D02*
X130190476Y-54891009D01*
X130190476Y-54891009D02*
X130095238Y-54938628D01*
X130095238Y-54938628D02*
X129714286Y-54938628D01*
X130714286Y-55414819D02*
X130714286Y-54414819D01*
X130714286Y-54414819D02*
X131285714Y-55414819D01*
X131285714Y-55414819D02*
X131285714Y-54414819D01*
X148104819Y-76102976D02*
X148104819Y-76674404D01*
X148104819Y-76388690D02*
X147104819Y-76388690D01*
X147104819Y-76388690D02*
X147247676Y-76483928D01*
X147247676Y-76483928D02*
X147342914Y-76579166D01*
X147342914Y-76579166D02*
X147390533Y-76674404D01*
X147533390Y-75531547D02*
X147485771Y-75626785D01*
X147485771Y-75626785D02*
X147438152Y-75674404D01*
X147438152Y-75674404D02*
X147342914Y-75722023D01*
X147342914Y-75722023D02*
X147295295Y-75722023D01*
X147295295Y-75722023D02*
X147200057Y-75674404D01*
X147200057Y-75674404D02*
X147152438Y-75626785D01*
X147152438Y-75626785D02*
X147104819Y-75531547D01*
X147104819Y-75531547D02*
X147104819Y-75341071D01*
X147104819Y-75341071D02*
X147152438Y-75245833D01*
X147152438Y-75245833D02*
X147200057Y-75198214D01*
X147200057Y-75198214D02*
X147295295Y-75150595D01*
X147295295Y-75150595D02*
X147342914Y-75150595D01*
X147342914Y-75150595D02*
X147438152Y-75198214D01*
X147438152Y-75198214D02*
X147485771Y-75245833D01*
X147485771Y-75245833D02*
X147533390Y-75341071D01*
X147533390Y-75341071D02*
X147533390Y-75531547D01*
X147533390Y-75531547D02*
X147581009Y-75626785D01*
X147581009Y-75626785D02*
X147628628Y-75674404D01*
X147628628Y-75674404D02*
X147723866Y-75722023D01*
X147723866Y-75722023D02*
X147914342Y-75722023D01*
X147914342Y-75722023D02*
X148009580Y-75674404D01*
X148009580Y-75674404D02*
X148057200Y-75626785D01*
X148057200Y-75626785D02*
X148104819Y-75531547D01*
X148104819Y-75531547D02*
X148104819Y-75341071D01*
X148104819Y-75341071D02*
X148057200Y-75245833D01*
X148057200Y-75245833D02*
X148009580Y-75198214D01*
X148009580Y-75198214D02*
X147914342Y-75150595D01*
X147914342Y-75150595D02*
X147723866Y-75150595D01*
X147723866Y-75150595D02*
X147628628Y-75198214D01*
X147628628Y-75198214D02*
X147581009Y-75245833D01*
X147581009Y-75245833D02*
X147533390Y-75341071D01*
X148104819Y-74722023D02*
X147104819Y-74722023D01*
X148104819Y-74150595D02*
X147533390Y-74579166D01*
X147104819Y-74150595D02*
X147676247Y-74722023D01*
X126310952Y-113604819D02*
X125834762Y-113604819D01*
X125834762Y-113604819D02*
X125834762Y-112604819D01*
X126644286Y-113604819D02*
X126644286Y-112604819D01*
X126644286Y-112604819D02*
X126977619Y-113319104D01*
X126977619Y-113319104D02*
X127310952Y-112604819D01*
X127310952Y-112604819D02*
X127310952Y-113604819D01*
X127644286Y-112604819D02*
X127977619Y-113604819D01*
X127977619Y-113604819D02*
X128310952Y-112604819D01*
X128549048Y-112604819D02*
X129168095Y-112604819D01*
X129168095Y-112604819D02*
X128834762Y-112985771D01*
X128834762Y-112985771D02*
X128977619Y-112985771D01*
X128977619Y-112985771D02*
X129072857Y-113033390D01*
X129072857Y-113033390D02*
X129120476Y-113081009D01*
X129120476Y-113081009D02*
X129168095Y-113176247D01*
X129168095Y-113176247D02*
X129168095Y-113414342D01*
X129168095Y-113414342D02*
X129120476Y-113509580D01*
X129120476Y-113509580D02*
X129072857Y-113557200D01*
X129072857Y-113557200D02*
X128977619Y-113604819D01*
X128977619Y-113604819D02*
X128691905Y-113604819D01*
X128691905Y-113604819D02*
X128596667Y-113557200D01*
X128596667Y-113557200D02*
X128549048Y-113509580D01*
X130072857Y-112604819D02*
X129596667Y-112604819D01*
X129596667Y-112604819D02*
X129549048Y-113081009D01*
X129549048Y-113081009D02*
X129596667Y-113033390D01*
X129596667Y-113033390D02*
X129691905Y-112985771D01*
X129691905Y-112985771D02*
X129930000Y-112985771D01*
X129930000Y-112985771D02*
X130025238Y-113033390D01*
X130025238Y-113033390D02*
X130072857Y-113081009D01*
X130072857Y-113081009D02*
X130120476Y-113176247D01*
X130120476Y-113176247D02*
X130120476Y-113414342D01*
X130120476Y-113414342D02*
X130072857Y-113509580D01*
X130072857Y-113509580D02*
X130025238Y-113557200D01*
X130025238Y-113557200D02*
X129930000Y-113604819D01*
X129930000Y-113604819D02*
X129691905Y-113604819D01*
X129691905Y-113604819D02*
X129596667Y-113557200D01*
X129596667Y-113557200D02*
X129549048Y-113509580D01*
X130691905Y-113033390D02*
X130596667Y-112985771D01*
X130596667Y-112985771D02*
X130549048Y-112938152D01*
X130549048Y-112938152D02*
X130501429Y-112842914D01*
X130501429Y-112842914D02*
X130501429Y-112795295D01*
X130501429Y-112795295D02*
X130549048Y-112700057D01*
X130549048Y-112700057D02*
X130596667Y-112652438D01*
X130596667Y-112652438D02*
X130691905Y-112604819D01*
X130691905Y-112604819D02*
X130882381Y-112604819D01*
X130882381Y-112604819D02*
X130977619Y-112652438D01*
X130977619Y-112652438D02*
X131025238Y-112700057D01*
X131025238Y-112700057D02*
X131072857Y-112795295D01*
X131072857Y-112795295D02*
X131072857Y-112842914D01*
X131072857Y-112842914D02*
X131025238Y-112938152D01*
X131025238Y-112938152D02*
X130977619Y-112985771D01*
X130977619Y-112985771D02*
X130882381Y-113033390D01*
X130882381Y-113033390D02*
X130691905Y-113033390D01*
X130691905Y-113033390D02*
X130596667Y-113081009D01*
X130596667Y-113081009D02*
X130549048Y-113128628D01*
X130549048Y-113128628D02*
X130501429Y-113223866D01*
X130501429Y-113223866D02*
X130501429Y-113414342D01*
X130501429Y-113414342D02*
X130549048Y-113509580D01*
X130549048Y-113509580D02*
X130596667Y-113557200D01*
X130596667Y-113557200D02*
X130691905Y-113604819D01*
X130691905Y-113604819D02*
X130882381Y-113604819D01*
X130882381Y-113604819D02*
X130977619Y-113557200D01*
X130977619Y-113557200D02*
X131025238Y-113509580D01*
X131025238Y-113509580D02*
X131072857Y-113414342D01*
X131072857Y-113414342D02*
X131072857Y-113223866D01*
X131072857Y-113223866D02*
X131025238Y-113128628D01*
X131025238Y-113128628D02*
X130977619Y-113081009D01*
X130977619Y-113081009D02*
X130882381Y-113033390D01*
X150238095Y-127962438D02*
X150142857Y-127914819D01*
X150142857Y-127914819D02*
X150000000Y-127914819D01*
X150000000Y-127914819D02*
X149857143Y-127962438D01*
X149857143Y-127962438D02*
X149761905Y-128057676D01*
X149761905Y-128057676D02*
X149714286Y-128152914D01*
X149714286Y-128152914D02*
X149666667Y-128343390D01*
X149666667Y-128343390D02*
X149666667Y-128486247D01*
X149666667Y-128486247D02*
X149714286Y-128676723D01*
X149714286Y-128676723D02*
X149761905Y-128771961D01*
X149761905Y-128771961D02*
X149857143Y-128867200D01*
X149857143Y-128867200D02*
X150000000Y-128914819D01*
X150000000Y-128914819D02*
X150095238Y-128914819D01*
X150095238Y-128914819D02*
X150238095Y-128867200D01*
X150238095Y-128867200D02*
X150285714Y-128819580D01*
X150285714Y-128819580D02*
X150285714Y-128486247D01*
X150285714Y-128486247D02*
X150095238Y-128486247D01*
X151285714Y-128914819D02*
X150952381Y-128438628D01*
X150714286Y-128914819D02*
X150714286Y-127914819D01*
X150714286Y-127914819D02*
X151095238Y-127914819D01*
X151095238Y-127914819D02*
X151190476Y-127962438D01*
X151190476Y-127962438D02*
X151238095Y-128010057D01*
X151238095Y-128010057D02*
X151285714Y-128105295D01*
X151285714Y-128105295D02*
X151285714Y-128248152D01*
X151285714Y-128248152D02*
X151238095Y-128343390D01*
X151238095Y-128343390D02*
X151190476Y-128391009D01*
X151190476Y-128391009D02*
X151095238Y-128438628D01*
X151095238Y-128438628D02*
X150714286Y-128438628D01*
X151714286Y-128914819D02*
X151714286Y-127914819D01*
X151714286Y-127914819D02*
X152285714Y-128914819D01*
X152285714Y-128914819D02*
X152285714Y-127914819D01*
X139357142Y-96914819D02*
X139023809Y-96438628D01*
X138785714Y-96914819D02*
X138785714Y-95914819D01*
X138785714Y-95914819D02*
X139166666Y-95914819D01*
X139166666Y-95914819D02*
X139261904Y-95962438D01*
X139261904Y-95962438D02*
X139309523Y-96010057D01*
X139309523Y-96010057D02*
X139357142Y-96105295D01*
X139357142Y-96105295D02*
X139357142Y-96248152D01*
X139357142Y-96248152D02*
X139309523Y-96343390D01*
X139309523Y-96343390D02*
X139261904Y-96391009D01*
X139261904Y-96391009D02*
X139166666Y-96438628D01*
X139166666Y-96438628D02*
X138785714Y-96438628D01*
X139785714Y-96391009D02*
X140119047Y-96391009D01*
X140261904Y-96914819D02*
X139785714Y-96914819D01*
X139785714Y-96914819D02*
X139785714Y-95914819D01*
X139785714Y-95914819D02*
X140261904Y-95914819D01*
X140690476Y-96914819D02*
X140690476Y-95914819D01*
X140690476Y-95914819D02*
X140928571Y-95914819D01*
X140928571Y-95914819D02*
X141071428Y-95962438D01*
X141071428Y-95962438D02*
X141166666Y-96057676D01*
X141166666Y-96057676D02*
X141214285Y-96152914D01*
X141214285Y-96152914D02*
X141261904Y-96343390D01*
X141261904Y-96343390D02*
X141261904Y-96486247D01*
X141261904Y-96486247D02*
X141214285Y-96676723D01*
X141214285Y-96676723D02*
X141166666Y-96771961D01*
X141166666Y-96771961D02*
X141071428Y-96867200D01*
X141071428Y-96867200D02*
X140928571Y-96914819D01*
X140928571Y-96914819D02*
X140690476Y-96914819D01*
X132804819Y-84309523D02*
X132804819Y-83690476D01*
X132804819Y-83690476D02*
X133185771Y-84023809D01*
X133185771Y-84023809D02*
X133185771Y-83880952D01*
X133185771Y-83880952D02*
X133233390Y-83785714D01*
X133233390Y-83785714D02*
X133281009Y-83738095D01*
X133281009Y-83738095D02*
X133376247Y-83690476D01*
X133376247Y-83690476D02*
X133614342Y-83690476D01*
X133614342Y-83690476D02*
X133709580Y-83738095D01*
X133709580Y-83738095D02*
X133757200Y-83785714D01*
X133757200Y-83785714D02*
X133804819Y-83880952D01*
X133804819Y-83880952D02*
X133804819Y-84166666D01*
X133804819Y-84166666D02*
X133757200Y-84261904D01*
X133757200Y-84261904D02*
X133709580Y-84309523D01*
X132804819Y-83357142D02*
X132804819Y-82738095D01*
X132804819Y-82738095D02*
X133185771Y-83071428D01*
X133185771Y-83071428D02*
X133185771Y-82928571D01*
X133185771Y-82928571D02*
X133233390Y-82833333D01*
X133233390Y-82833333D02*
X133281009Y-82785714D01*
X133281009Y-82785714D02*
X133376247Y-82738095D01*
X133376247Y-82738095D02*
X133614342Y-82738095D01*
X133614342Y-82738095D02*
X133709580Y-82785714D01*
X133709580Y-82785714D02*
X133757200Y-82833333D01*
X133757200Y-82833333D02*
X133804819Y-82928571D01*
X133804819Y-82928571D02*
X133804819Y-83214285D01*
X133804819Y-83214285D02*
X133757200Y-83309523D01*
X133757200Y-83309523D02*
X133709580Y-83357142D01*
X133804819Y-82309523D02*
X132804819Y-82309523D01*
X133804819Y-81738095D02*
X133233390Y-82166666D01*
X132804819Y-81738095D02*
X133376247Y-82309523D01*
X88857142Y-128494819D02*
X88523809Y-128018628D01*
X88285714Y-128494819D02*
X88285714Y-127494819D01*
X88285714Y-127494819D02*
X88666666Y-127494819D01*
X88666666Y-127494819D02*
X88761904Y-127542438D01*
X88761904Y-127542438D02*
X88809523Y-127590057D01*
X88809523Y-127590057D02*
X88857142Y-127685295D01*
X88857142Y-127685295D02*
X88857142Y-127828152D01*
X88857142Y-127828152D02*
X88809523Y-127923390D01*
X88809523Y-127923390D02*
X88761904Y-127971009D01*
X88761904Y-127971009D02*
X88666666Y-128018628D01*
X88666666Y-128018628D02*
X88285714Y-128018628D01*
X89285714Y-127971009D02*
X89619047Y-127971009D01*
X89761904Y-128494819D02*
X89285714Y-128494819D01*
X89285714Y-128494819D02*
X89285714Y-127494819D01*
X89285714Y-127494819D02*
X89761904Y-127494819D01*
X90190476Y-128494819D02*
X90190476Y-127494819D01*
X90190476Y-127494819D02*
X90428571Y-127494819D01*
X90428571Y-127494819D02*
X90571428Y-127542438D01*
X90571428Y-127542438D02*
X90666666Y-127637676D01*
X90666666Y-127637676D02*
X90714285Y-127732914D01*
X90714285Y-127732914D02*
X90761904Y-127923390D01*
X90761904Y-127923390D02*
X90761904Y-128066247D01*
X90761904Y-128066247D02*
X90714285Y-128256723D01*
X90714285Y-128256723D02*
X90666666Y-128351961D01*
X90666666Y-128351961D02*
X90571428Y-128447200D01*
X90571428Y-128447200D02*
X90428571Y-128494819D01*
X90428571Y-128494819D02*
X90190476Y-128494819D01*
X136104819Y-65523809D02*
X136104819Y-65714285D01*
X136104819Y-65714285D02*
X136152438Y-65809523D01*
X136152438Y-65809523D02*
X136200057Y-65857142D01*
X136200057Y-65857142D02*
X136342914Y-65952380D01*
X136342914Y-65952380D02*
X136533390Y-65999999D01*
X136533390Y-65999999D02*
X136914342Y-65999999D01*
X136914342Y-65999999D02*
X137009580Y-65952380D01*
X137009580Y-65952380D02*
X137057200Y-65904761D01*
X137057200Y-65904761D02*
X137104819Y-65809523D01*
X137104819Y-65809523D02*
X137104819Y-65619047D01*
X137104819Y-65619047D02*
X137057200Y-65523809D01*
X137057200Y-65523809D02*
X137009580Y-65476190D01*
X137009580Y-65476190D02*
X136914342Y-65428571D01*
X136914342Y-65428571D02*
X136676247Y-65428571D01*
X136676247Y-65428571D02*
X136581009Y-65476190D01*
X136581009Y-65476190D02*
X136533390Y-65523809D01*
X136533390Y-65523809D02*
X136485771Y-65619047D01*
X136485771Y-65619047D02*
X136485771Y-65809523D01*
X136485771Y-65809523D02*
X136533390Y-65904761D01*
X136533390Y-65904761D02*
X136581009Y-65952380D01*
X136581009Y-65952380D02*
X136676247Y-65999999D01*
X137009580Y-64999999D02*
X137057200Y-64952380D01*
X137057200Y-64952380D02*
X137104819Y-64999999D01*
X137104819Y-64999999D02*
X137057200Y-65047618D01*
X137057200Y-65047618D02*
X137009580Y-64999999D01*
X137009580Y-64999999D02*
X137104819Y-64999999D01*
X136533390Y-64380952D02*
X136485771Y-64476190D01*
X136485771Y-64476190D02*
X136438152Y-64523809D01*
X136438152Y-64523809D02*
X136342914Y-64571428D01*
X136342914Y-64571428D02*
X136295295Y-64571428D01*
X136295295Y-64571428D02*
X136200057Y-64523809D01*
X136200057Y-64523809D02*
X136152438Y-64476190D01*
X136152438Y-64476190D02*
X136104819Y-64380952D01*
X136104819Y-64380952D02*
X136104819Y-64190476D01*
X136104819Y-64190476D02*
X136152438Y-64095238D01*
X136152438Y-64095238D02*
X136200057Y-64047619D01*
X136200057Y-64047619D02*
X136295295Y-64000000D01*
X136295295Y-64000000D02*
X136342914Y-64000000D01*
X136342914Y-64000000D02*
X136438152Y-64047619D01*
X136438152Y-64047619D02*
X136485771Y-64095238D01*
X136485771Y-64095238D02*
X136533390Y-64190476D01*
X136533390Y-64190476D02*
X136533390Y-64380952D01*
X136533390Y-64380952D02*
X136581009Y-64476190D01*
X136581009Y-64476190D02*
X136628628Y-64523809D01*
X136628628Y-64523809D02*
X136723866Y-64571428D01*
X136723866Y-64571428D02*
X136914342Y-64571428D01*
X136914342Y-64571428D02*
X137009580Y-64523809D01*
X137009580Y-64523809D02*
X137057200Y-64476190D01*
X137057200Y-64476190D02*
X137104819Y-64380952D01*
X137104819Y-64380952D02*
X137104819Y-64190476D01*
X137104819Y-64190476D02*
X137057200Y-64095238D01*
X137057200Y-64095238D02*
X137009580Y-64047619D01*
X137009580Y-64047619D02*
X136914342Y-64000000D01*
X136914342Y-64000000D02*
X136723866Y-64000000D01*
X136723866Y-64000000D02*
X136628628Y-64047619D01*
X136628628Y-64047619D02*
X136581009Y-64095238D01*
X136581009Y-64095238D02*
X136533390Y-64190476D01*
X137104819Y-63571428D02*
X136104819Y-63571428D01*
X137104819Y-63000000D02*
X136533390Y-63428571D01*
X136104819Y-63000000D02*
X136676247Y-63571428D01*
X116333333Y-84104819D02*
X115761905Y-84104819D01*
X116047619Y-84104819D02*
X116047619Y-83104819D01*
X116047619Y-83104819D02*
X115952381Y-83247676D01*
X115952381Y-83247676D02*
X115857143Y-83342914D01*
X115857143Y-83342914D02*
X115761905Y-83390533D01*
X116952381Y-83104819D02*
X117047619Y-83104819D01*
X117047619Y-83104819D02*
X117142857Y-83152438D01*
X117142857Y-83152438D02*
X117190476Y-83200057D01*
X117190476Y-83200057D02*
X117238095Y-83295295D01*
X117238095Y-83295295D02*
X117285714Y-83485771D01*
X117285714Y-83485771D02*
X117285714Y-83723866D01*
X117285714Y-83723866D02*
X117238095Y-83914342D01*
X117238095Y-83914342D02*
X117190476Y-84009580D01*
X117190476Y-84009580D02*
X117142857Y-84057200D01*
X117142857Y-84057200D02*
X117047619Y-84104819D01*
X117047619Y-84104819D02*
X116952381Y-84104819D01*
X116952381Y-84104819D02*
X116857143Y-84057200D01*
X116857143Y-84057200D02*
X116809524Y-84009580D01*
X116809524Y-84009580D02*
X116761905Y-83914342D01*
X116761905Y-83914342D02*
X116714286Y-83723866D01*
X116714286Y-83723866D02*
X116714286Y-83485771D01*
X116714286Y-83485771D02*
X116761905Y-83295295D01*
X116761905Y-83295295D02*
X116809524Y-83200057D01*
X116809524Y-83200057D02*
X116857143Y-83152438D01*
X116857143Y-83152438D02*
X116952381Y-83104819D01*
X117904762Y-83104819D02*
X118000000Y-83104819D01*
X118000000Y-83104819D02*
X118095238Y-83152438D01*
X118095238Y-83152438D02*
X118142857Y-83200057D01*
X118142857Y-83200057D02*
X118190476Y-83295295D01*
X118190476Y-83295295D02*
X118238095Y-83485771D01*
X118238095Y-83485771D02*
X118238095Y-83723866D01*
X118238095Y-83723866D02*
X118190476Y-83914342D01*
X118190476Y-83914342D02*
X118142857Y-84009580D01*
X118142857Y-84009580D02*
X118095238Y-84057200D01*
X118095238Y-84057200D02*
X118000000Y-84104819D01*
X118000000Y-84104819D02*
X117904762Y-84104819D01*
X117904762Y-84104819D02*
X117809524Y-84057200D01*
X117809524Y-84057200D02*
X117761905Y-84009580D01*
X117761905Y-84009580D02*
X117714286Y-83914342D01*
X117714286Y-83914342D02*
X117666667Y-83723866D01*
X117666667Y-83723866D02*
X117666667Y-83485771D01*
X117666667Y-83485771D02*
X117714286Y-83295295D01*
X117714286Y-83295295D02*
X117761905Y-83200057D01*
X117761905Y-83200057D02*
X117809524Y-83152438D01*
X117809524Y-83152438D02*
X117904762Y-83104819D01*
X118666667Y-84104819D02*
X118666667Y-83104819D01*
X119238095Y-84104819D02*
X118809524Y-83533390D01*
X119238095Y-83104819D02*
X118666667Y-83676247D01*
X111833333Y-105804819D02*
X111261905Y-105804819D01*
X111547619Y-105804819D02*
X111547619Y-104804819D01*
X111547619Y-104804819D02*
X111452381Y-104947676D01*
X111452381Y-104947676D02*
X111357143Y-105042914D01*
X111357143Y-105042914D02*
X111261905Y-105090533D01*
X112452381Y-104804819D02*
X112547619Y-104804819D01*
X112547619Y-104804819D02*
X112642857Y-104852438D01*
X112642857Y-104852438D02*
X112690476Y-104900057D01*
X112690476Y-104900057D02*
X112738095Y-104995295D01*
X112738095Y-104995295D02*
X112785714Y-105185771D01*
X112785714Y-105185771D02*
X112785714Y-105423866D01*
X112785714Y-105423866D02*
X112738095Y-105614342D01*
X112738095Y-105614342D02*
X112690476Y-105709580D01*
X112690476Y-105709580D02*
X112642857Y-105757200D01*
X112642857Y-105757200D02*
X112547619Y-105804819D01*
X112547619Y-105804819D02*
X112452381Y-105804819D01*
X112452381Y-105804819D02*
X112357143Y-105757200D01*
X112357143Y-105757200D02*
X112309524Y-105709580D01*
X112309524Y-105709580D02*
X112261905Y-105614342D01*
X112261905Y-105614342D02*
X112214286Y-105423866D01*
X112214286Y-105423866D02*
X112214286Y-105185771D01*
X112214286Y-105185771D02*
X112261905Y-104995295D01*
X112261905Y-104995295D02*
X112309524Y-104900057D01*
X112309524Y-104900057D02*
X112357143Y-104852438D01*
X112357143Y-104852438D02*
X112452381Y-104804819D01*
X113404762Y-104804819D02*
X113500000Y-104804819D01*
X113500000Y-104804819D02*
X113595238Y-104852438D01*
X113595238Y-104852438D02*
X113642857Y-104900057D01*
X113642857Y-104900057D02*
X113690476Y-104995295D01*
X113690476Y-104995295D02*
X113738095Y-105185771D01*
X113738095Y-105185771D02*
X113738095Y-105423866D01*
X113738095Y-105423866D02*
X113690476Y-105614342D01*
X113690476Y-105614342D02*
X113642857Y-105709580D01*
X113642857Y-105709580D02*
X113595238Y-105757200D01*
X113595238Y-105757200D02*
X113500000Y-105804819D01*
X113500000Y-105804819D02*
X113404762Y-105804819D01*
X113404762Y-105804819D02*
X113309524Y-105757200D01*
X113309524Y-105757200D02*
X113261905Y-105709580D01*
X113261905Y-105709580D02*
X113214286Y-105614342D01*
X113214286Y-105614342D02*
X113166667Y-105423866D01*
X113166667Y-105423866D02*
X113166667Y-105185771D01*
X113166667Y-105185771D02*
X113214286Y-104995295D01*
X113214286Y-104995295D02*
X113261905Y-104900057D01*
X113261905Y-104900057D02*
X113309524Y-104852438D01*
X113309524Y-104852438D02*
X113404762Y-104804819D01*
X114166667Y-105804819D02*
X114166667Y-104804819D01*
X114738095Y-105804819D02*
X114309524Y-105233390D01*
X114738095Y-104804819D02*
X114166667Y-105376247D01*
X139976190Y-134104819D02*
X139785714Y-134104819D01*
X139785714Y-134104819D02*
X139690476Y-134152438D01*
X139690476Y-134152438D02*
X139642857Y-134200057D01*
X139642857Y-134200057D02*
X139547619Y-134342914D01*
X139547619Y-134342914D02*
X139500000Y-134533390D01*
X139500000Y-134533390D02*
X139500000Y-134914342D01*
X139500000Y-134914342D02*
X139547619Y-135009580D01*
X139547619Y-135009580D02*
X139595238Y-135057200D01*
X139595238Y-135057200D02*
X139690476Y-135104819D01*
X139690476Y-135104819D02*
X139880952Y-135104819D01*
X139880952Y-135104819D02*
X139976190Y-135057200D01*
X139976190Y-135057200D02*
X140023809Y-135009580D01*
X140023809Y-135009580D02*
X140071428Y-134914342D01*
X140071428Y-134914342D02*
X140071428Y-134676247D01*
X140071428Y-134676247D02*
X140023809Y-134581009D01*
X140023809Y-134581009D02*
X139976190Y-134533390D01*
X139976190Y-134533390D02*
X139880952Y-134485771D01*
X139880952Y-134485771D02*
X139690476Y-134485771D01*
X139690476Y-134485771D02*
X139595238Y-134533390D01*
X139595238Y-134533390D02*
X139547619Y-134581009D01*
X139547619Y-134581009D02*
X139500000Y-134676247D01*
X140500000Y-135009580D02*
X140547619Y-135057200D01*
X140547619Y-135057200D02*
X140500000Y-135104819D01*
X140500000Y-135104819D02*
X140452381Y-135057200D01*
X140452381Y-135057200D02*
X140500000Y-135009580D01*
X140500000Y-135009580D02*
X140500000Y-135104819D01*
X141119047Y-134533390D02*
X141023809Y-134485771D01*
X141023809Y-134485771D02*
X140976190Y-134438152D01*
X140976190Y-134438152D02*
X140928571Y-134342914D01*
X140928571Y-134342914D02*
X140928571Y-134295295D01*
X140928571Y-134295295D02*
X140976190Y-134200057D01*
X140976190Y-134200057D02*
X141023809Y-134152438D01*
X141023809Y-134152438D02*
X141119047Y-134104819D01*
X141119047Y-134104819D02*
X141309523Y-134104819D01*
X141309523Y-134104819D02*
X141404761Y-134152438D01*
X141404761Y-134152438D02*
X141452380Y-134200057D01*
X141452380Y-134200057D02*
X141499999Y-134295295D01*
X141499999Y-134295295D02*
X141499999Y-134342914D01*
X141499999Y-134342914D02*
X141452380Y-134438152D01*
X141452380Y-134438152D02*
X141404761Y-134485771D01*
X141404761Y-134485771D02*
X141309523Y-134533390D01*
X141309523Y-134533390D02*
X141119047Y-134533390D01*
X141119047Y-134533390D02*
X141023809Y-134581009D01*
X141023809Y-134581009D02*
X140976190Y-134628628D01*
X140976190Y-134628628D02*
X140928571Y-134723866D01*
X140928571Y-134723866D02*
X140928571Y-134914342D01*
X140928571Y-134914342D02*
X140976190Y-135009580D01*
X140976190Y-135009580D02*
X141023809Y-135057200D01*
X141023809Y-135057200D02*
X141119047Y-135104819D01*
X141119047Y-135104819D02*
X141309523Y-135104819D01*
X141309523Y-135104819D02*
X141404761Y-135057200D01*
X141404761Y-135057200D02*
X141452380Y-135009580D01*
X141452380Y-135009580D02*
X141499999Y-134914342D01*
X141499999Y-134914342D02*
X141499999Y-134723866D01*
X141499999Y-134723866D02*
X141452380Y-134628628D01*
X141452380Y-134628628D02*
X141404761Y-134581009D01*
X141404761Y-134581009D02*
X141309523Y-134533390D01*
X141928571Y-135104819D02*
X141928571Y-134104819D01*
X142499999Y-135104819D02*
X142071428Y-134533390D01*
X142499999Y-134104819D02*
X141928571Y-134676247D01*
X114238095Y-90962438D02*
X114142857Y-90914819D01*
X114142857Y-90914819D02*
X114000000Y-90914819D01*
X114000000Y-90914819D02*
X113857143Y-90962438D01*
X113857143Y-90962438D02*
X113761905Y-91057676D01*
X113761905Y-91057676D02*
X113714286Y-91152914D01*
X113714286Y-91152914D02*
X113666667Y-91343390D01*
X113666667Y-91343390D02*
X113666667Y-91486247D01*
X113666667Y-91486247D02*
X113714286Y-91676723D01*
X113714286Y-91676723D02*
X113761905Y-91771961D01*
X113761905Y-91771961D02*
X113857143Y-91867200D01*
X113857143Y-91867200D02*
X114000000Y-91914819D01*
X114000000Y-91914819D02*
X114095238Y-91914819D01*
X114095238Y-91914819D02*
X114238095Y-91867200D01*
X114238095Y-91867200D02*
X114285714Y-91819580D01*
X114285714Y-91819580D02*
X114285714Y-91486247D01*
X114285714Y-91486247D02*
X114095238Y-91486247D01*
X115285714Y-91914819D02*
X114952381Y-91438628D01*
X114714286Y-91914819D02*
X114714286Y-90914819D01*
X114714286Y-90914819D02*
X115095238Y-90914819D01*
X115095238Y-90914819D02*
X115190476Y-90962438D01*
X115190476Y-90962438D02*
X115238095Y-91010057D01*
X115238095Y-91010057D02*
X115285714Y-91105295D01*
X115285714Y-91105295D02*
X115285714Y-91248152D01*
X115285714Y-91248152D02*
X115238095Y-91343390D01*
X115238095Y-91343390D02*
X115190476Y-91391009D01*
X115190476Y-91391009D02*
X115095238Y-91438628D01*
X115095238Y-91438628D02*
X114714286Y-91438628D01*
X115714286Y-91914819D02*
X115714286Y-90914819D01*
X115714286Y-90914819D02*
X116285714Y-91914819D01*
X116285714Y-91914819D02*
X116285714Y-90914819D01*
X137833333Y-105104819D02*
X137261905Y-105104819D01*
X137547619Y-105104819D02*
X137547619Y-104104819D01*
X137547619Y-104104819D02*
X137452381Y-104247676D01*
X137452381Y-104247676D02*
X137357143Y-104342914D01*
X137357143Y-104342914D02*
X137261905Y-104390533D01*
X138452381Y-104104819D02*
X138547619Y-104104819D01*
X138547619Y-104104819D02*
X138642857Y-104152438D01*
X138642857Y-104152438D02*
X138690476Y-104200057D01*
X138690476Y-104200057D02*
X138738095Y-104295295D01*
X138738095Y-104295295D02*
X138785714Y-104485771D01*
X138785714Y-104485771D02*
X138785714Y-104723866D01*
X138785714Y-104723866D02*
X138738095Y-104914342D01*
X138738095Y-104914342D02*
X138690476Y-105009580D01*
X138690476Y-105009580D02*
X138642857Y-105057200D01*
X138642857Y-105057200D02*
X138547619Y-105104819D01*
X138547619Y-105104819D02*
X138452381Y-105104819D01*
X138452381Y-105104819D02*
X138357143Y-105057200D01*
X138357143Y-105057200D02*
X138309524Y-105009580D01*
X138309524Y-105009580D02*
X138261905Y-104914342D01*
X138261905Y-104914342D02*
X138214286Y-104723866D01*
X138214286Y-104723866D02*
X138214286Y-104485771D01*
X138214286Y-104485771D02*
X138261905Y-104295295D01*
X138261905Y-104295295D02*
X138309524Y-104200057D01*
X138309524Y-104200057D02*
X138357143Y-104152438D01*
X138357143Y-104152438D02*
X138452381Y-104104819D01*
X139404762Y-104104819D02*
X139500000Y-104104819D01*
X139500000Y-104104819D02*
X139595238Y-104152438D01*
X139595238Y-104152438D02*
X139642857Y-104200057D01*
X139642857Y-104200057D02*
X139690476Y-104295295D01*
X139690476Y-104295295D02*
X139738095Y-104485771D01*
X139738095Y-104485771D02*
X139738095Y-104723866D01*
X139738095Y-104723866D02*
X139690476Y-104914342D01*
X139690476Y-104914342D02*
X139642857Y-105009580D01*
X139642857Y-105009580D02*
X139595238Y-105057200D01*
X139595238Y-105057200D02*
X139500000Y-105104819D01*
X139500000Y-105104819D02*
X139404762Y-105104819D01*
X139404762Y-105104819D02*
X139309524Y-105057200D01*
X139309524Y-105057200D02*
X139261905Y-105009580D01*
X139261905Y-105009580D02*
X139214286Y-104914342D01*
X139214286Y-104914342D02*
X139166667Y-104723866D01*
X139166667Y-104723866D02*
X139166667Y-104485771D01*
X139166667Y-104485771D02*
X139214286Y-104295295D01*
X139214286Y-104295295D02*
X139261905Y-104200057D01*
X139261905Y-104200057D02*
X139309524Y-104152438D01*
X139309524Y-104152438D02*
X139404762Y-104104819D01*
X140166667Y-105104819D02*
X140166667Y-104104819D01*
X140738095Y-105104819D02*
X140309524Y-104533390D01*
X140738095Y-104104819D02*
X140166667Y-104676247D01*
X124397023Y-99304819D02*
X123825595Y-99304819D01*
X124111309Y-99304819D02*
X124111309Y-98304819D01*
X124111309Y-98304819D02*
X124016071Y-98447676D01*
X124016071Y-98447676D02*
X123920833Y-98542914D01*
X123920833Y-98542914D02*
X123825595Y-98590533D01*
X124968452Y-98733390D02*
X124873214Y-98685771D01*
X124873214Y-98685771D02*
X124825595Y-98638152D01*
X124825595Y-98638152D02*
X124777976Y-98542914D01*
X124777976Y-98542914D02*
X124777976Y-98495295D01*
X124777976Y-98495295D02*
X124825595Y-98400057D01*
X124825595Y-98400057D02*
X124873214Y-98352438D01*
X124873214Y-98352438D02*
X124968452Y-98304819D01*
X124968452Y-98304819D02*
X125158928Y-98304819D01*
X125158928Y-98304819D02*
X125254166Y-98352438D01*
X125254166Y-98352438D02*
X125301785Y-98400057D01*
X125301785Y-98400057D02*
X125349404Y-98495295D01*
X125349404Y-98495295D02*
X125349404Y-98542914D01*
X125349404Y-98542914D02*
X125301785Y-98638152D01*
X125301785Y-98638152D02*
X125254166Y-98685771D01*
X125254166Y-98685771D02*
X125158928Y-98733390D01*
X125158928Y-98733390D02*
X124968452Y-98733390D01*
X124968452Y-98733390D02*
X124873214Y-98781009D01*
X124873214Y-98781009D02*
X124825595Y-98828628D01*
X124825595Y-98828628D02*
X124777976Y-98923866D01*
X124777976Y-98923866D02*
X124777976Y-99114342D01*
X124777976Y-99114342D02*
X124825595Y-99209580D01*
X124825595Y-99209580D02*
X124873214Y-99257200D01*
X124873214Y-99257200D02*
X124968452Y-99304819D01*
X124968452Y-99304819D02*
X125158928Y-99304819D01*
X125158928Y-99304819D02*
X125254166Y-99257200D01*
X125254166Y-99257200D02*
X125301785Y-99209580D01*
X125301785Y-99209580D02*
X125349404Y-99114342D01*
X125349404Y-99114342D02*
X125349404Y-98923866D01*
X125349404Y-98923866D02*
X125301785Y-98828628D01*
X125301785Y-98828628D02*
X125254166Y-98781009D01*
X125254166Y-98781009D02*
X125158928Y-98733390D01*
X125777976Y-99304819D02*
X125777976Y-98304819D01*
X126349404Y-99304819D02*
X125920833Y-98733390D01*
X126349404Y-98304819D02*
X125777976Y-98876247D01*
D12*
%TO.C,Q2*%
X113470000Y-132210000D02*
X117070000Y-132210000D01*
X112913600Y-129261193D02*
G75*
G02*
X115270000Y-127760000I2356400J-1098807D01*
G01*
X113470000Y-132210000D02*
G75*
G02*
X112945816Y-131482795I1800000J1850000D01*
G01*
X115270000Y-127760000D02*
G75*
G02*
X117626400Y-129261193I0J-2600000D01*
G01*
X117594184Y-131482795D02*
G75*
G02*
X117070000Y-132210000I-2324184J1122795D01*
G01*
%TO.C,Q1*%
X125470000Y-64120000D02*
X129070000Y-64120000D01*
X124913600Y-61171193D02*
G75*
G02*
X127270000Y-59670000I2356400J-1098807D01*
G01*
X125470000Y-64120000D02*
G75*
G02*
X124945816Y-63392795I1800000J1850000D01*
G01*
X127270000Y-59670000D02*
G75*
G02*
X129626400Y-61171193I0J-2600000D01*
G01*
X129594184Y-63392795D02*
G75*
G02*
X129070000Y-64120000I-2324184J1122795D01*
G01*
%TO.C,R18*%
X157272936Y-130265000D02*
X157727064Y-130265000D01*
X157272936Y-131735000D02*
X157727064Y-131735000D01*
%TO.C,R17*%
X104265000Y-134227064D02*
X104265000Y-133772936D01*
X105735000Y-134227064D02*
X105735000Y-133772936D01*
%TO.C,R16*%
X124272936Y-76265000D02*
X124727064Y-76265000D01*
X124272936Y-77735000D02*
X124727064Y-77735000D01*
%TO.C,R12*%
X106772936Y-75765000D02*
X107227064Y-75765000D01*
X106772936Y-77235000D02*
X107227064Y-77235000D01*
%TO.C,R5*%
X151227064Y-99765000D02*
X150772936Y-99765000D01*
X151227064Y-101235000D02*
X150772936Y-101235000D01*
%TO.C,R7*%
X111227064Y-96265000D02*
X110772936Y-96265000D01*
X111227064Y-97735000D02*
X110772936Y-97735000D01*
%TO.C,R2*%
X125227064Y-89265000D02*
X124772936Y-89265000D01*
X125227064Y-90735000D02*
X124772936Y-90735000D01*
%TO.C,D6*%
X115440000Y-62764000D02*
X115440000Y-62920000D01*
X115440000Y-65080000D02*
X115440000Y-65236000D01*
X115440000Y-62764484D02*
G75*
G02*
X118671437Y-62920000I1560000J-1235516D01*
G01*
X115959039Y-62920000D02*
G75*
G02*
X118040961Y-62920000I1040961J-1080000D01*
G01*
X118040961Y-65080000D02*
G75*
G02*
X115959039Y-65080000I-1040961J1080000D01*
G01*
X118671437Y-65080000D02*
G75*
G02*
X115440000Y-65235516I-1671437J1080000D01*
G01*
%TO.C,C1*%
X101738748Y-98265000D02*
X102261252Y-98265000D01*
X101738748Y-99735000D02*
X102261252Y-99735000D01*
%TO.C,R4*%
X99265000Y-127227064D02*
X99265000Y-126772936D01*
X100735000Y-127227064D02*
X100735000Y-126772936D01*
%TO.C,C2*%
X119238748Y-115265000D02*
X119761252Y-115265000D01*
X119238748Y-116735000D02*
X119761252Y-116735000D01*
%TO.C,R6*%
X120727064Y-45765000D02*
X120272936Y-45765000D01*
X120727064Y-47235000D02*
X120272936Y-47235000D01*
%TO.C,R15*%
X137765000Y-115227064D02*
X137765000Y-114772936D01*
X139235000Y-115227064D02*
X139235000Y-114772936D01*
%TO.C,D3*%
X128440000Y-50764000D02*
X128440000Y-50920000D01*
X128440000Y-53080000D02*
X128440000Y-53236000D01*
X128440000Y-50764484D02*
G75*
G02*
X131671437Y-50920000I1560000J-1235516D01*
G01*
X128959039Y-50920000D02*
G75*
G02*
X131040961Y-50920000I1040961J-1080000D01*
G01*
X131040961Y-53080000D02*
G75*
G02*
X128959039Y-53080000I-1040961J1080000D01*
G01*
X131671437Y-53080000D02*
G75*
G02*
X128440000Y-53235516I-1671437J1080000D01*
G01*
%TO.C,R10*%
X145265000Y-75639564D02*
X145265000Y-75185436D01*
X146735000Y-75639564D02*
X146735000Y-75185436D01*
%TO.C,U1*%
X126370000Y-107190000D02*
X130490000Y-107190000D01*
X126370000Y-107285000D02*
X126370000Y-107190000D01*
X126370000Y-112310000D02*
X126370000Y-112215000D01*
X130490000Y-107190000D02*
X130490000Y-107285000D01*
X130490000Y-112215000D02*
X130490000Y-112310000D01*
X130490000Y-112310000D02*
X126370000Y-112310000D01*
X125830000Y-107280000D02*
X125590000Y-106950000D01*
X126070000Y-106950000D01*
X125830000Y-107280000D01*
G36*
X125830000Y-107280000D02*
G01*
X125590000Y-106950000D01*
X126070000Y-106950000D01*
X125830000Y-107280000D01*
G37*
%TO.C,D1*%
X149440000Y-124264000D02*
X149440000Y-124420000D01*
X149440000Y-126580000D02*
X149440000Y-126736000D01*
X149440000Y-124264484D02*
G75*
G02*
X152671437Y-124420000I1560000J-1235516D01*
G01*
X149959039Y-124420000D02*
G75*
G02*
X152040961Y-124420000I1040961J-1080000D01*
G01*
X152040961Y-126580000D02*
G75*
G02*
X149959039Y-126580000I-1040961J1080000D01*
G01*
X152671437Y-126580000D02*
G75*
G02*
X149440000Y-126735516I-1671437J1080000D01*
G01*
%TO.C,D5*%
X138440000Y-92264000D02*
X138440000Y-92420000D01*
X138440000Y-94580000D02*
X138440000Y-94736000D01*
X138440000Y-92264484D02*
G75*
G02*
X141671437Y-92420000I1560000J-1235516D01*
G01*
X138959039Y-92420000D02*
G75*
G02*
X141040961Y-92420000I1040961J-1080000D01*
G01*
X141040961Y-94580000D02*
G75*
G02*
X138959039Y-94580000I-1040961J1080000D01*
G01*
X141671437Y-94580000D02*
G75*
G02*
X138440000Y-94735516I-1671437J1080000D01*
G01*
%TO.C,R8*%
X134265000Y-82772936D02*
X134265000Y-83227064D01*
X135735000Y-82772936D02*
X135735000Y-83227064D01*
%TO.C,D4*%
X91060000Y-129920000D02*
X91060000Y-129764000D01*
X91060000Y-132236000D02*
X91060000Y-132080000D01*
X87828563Y-129920000D02*
G75*
G02*
X91060000Y-129764484I1671437J-1080000D01*
G01*
X88459039Y-129920000D02*
G75*
G02*
X90540961Y-129920000I1040961J-1080000D01*
G01*
X90540961Y-132080000D02*
G75*
G02*
X88459039Y-132080000I-1040961J1080000D01*
G01*
X91060000Y-132235516D02*
G75*
G02*
X87828563Y-132080000I-1560000J1235516D01*
G01*
%TO.C,R3*%
X134265000Y-64727064D02*
X134265000Y-64272936D01*
X135735000Y-64727064D02*
X135735000Y-64272936D01*
%TO.C,R9*%
X117272936Y-81265000D02*
X117727064Y-81265000D01*
X117272936Y-82735000D02*
X117727064Y-82735000D01*
%TO.C,R13*%
X113227064Y-106265000D02*
X112772936Y-106265000D01*
X113227064Y-107735000D02*
X112772936Y-107735000D01*
%TO.C,R1*%
X140772936Y-132265000D02*
X141227064Y-132265000D01*
X140772936Y-133735000D02*
X141227064Y-133735000D01*
%TO.C,D2*%
X113440000Y-87264000D02*
X113440000Y-87420000D01*
X113440000Y-89580000D02*
X113440000Y-89736000D01*
X113440000Y-87264484D02*
G75*
G02*
X116671437Y-87420000I1560000J-1235516D01*
G01*
X113959039Y-87420000D02*
G75*
G02*
X116040961Y-87420000I1040961J-1080000D01*
G01*
X116040961Y-89580000D02*
G75*
G02*
X113959039Y-89580000I-1040961J1080000D01*
G01*
X116671437Y-89580000D02*
G75*
G02*
X113440000Y-89735516I-1671437J1080000D01*
G01*
%TO.C,R14*%
X138772936Y-102265000D02*
X139227064Y-102265000D01*
X138772936Y-103735000D02*
X139227064Y-103735000D01*
%TO.C,R11*%
X125314564Y-99765000D02*
X124860436Y-99765000D01*
X125314564Y-101235000D02*
X124860436Y-101235000D01*
%TD*%
%LPC*%
D10*
G36*
X133000000Y-144999931D02*
G01*
X116999943Y-144999931D01*
X116999943Y-137000023D01*
X133000000Y-137000023D01*
X133000000Y-144999931D01*
G37*
G36*
X143212296Y-69049023D02*
G01*
X143612862Y-69435884D01*
X144019588Y-69818309D01*
X144434026Y-70196800D01*
X144857727Y-70571859D01*
X145292241Y-70943987D01*
X145739119Y-71313686D01*
X146199912Y-71681459D01*
X146676170Y-72047806D01*
X144032316Y-72551039D01*
X141369740Y-72968541D01*
X138686012Y-73308181D01*
X135978704Y-73577827D01*
X133245388Y-73785346D01*
X130483634Y-73938608D01*
X127691013Y-74045480D01*
X124865097Y-74113831D01*
X122067529Y-74046321D01*
X119302622Y-73941095D01*
X116568018Y-73790537D01*
X113861356Y-73587032D01*
X111180276Y-73322963D01*
X108522419Y-72990714D01*
X105885424Y-72582669D01*
X103266931Y-72091213D01*
X103746719Y-71723781D01*
X104210693Y-71354991D01*
X104660435Y-70984333D01*
X105097525Y-70611298D01*
X105523542Y-70235376D01*
X105940066Y-69856058D01*
X106348678Y-69472833D01*
X106750957Y-69085194D01*
X108356363Y-69327894D01*
X110142339Y-69563894D01*
X112112721Y-69787203D01*
X114271350Y-69991830D01*
X116622064Y-70171785D01*
X119168701Y-70321078D01*
X121915099Y-70433717D01*
X124865097Y-70503712D01*
X127868531Y-70431997D01*
X130661595Y-70316165D01*
X133248041Y-70162541D01*
X135631619Y-69977454D01*
X137816083Y-69767230D01*
X139805183Y-69538199D01*
X141602670Y-69296686D01*
X143212296Y-69049019D01*
X143212296Y-69049023D01*
G37*
G36*
X125088377Y-25014103D02*
G01*
X125145432Y-25052881D01*
X125207454Y-25114775D01*
X125274066Y-25198198D01*
X125419555Y-25423291D01*
X125578893Y-25715471D01*
X125749071Y-26062053D01*
X125927083Y-26450349D01*
X126294574Y-27301334D01*
X126991210Y-28945642D01*
X127139836Y-29270698D01*
X127272232Y-29535972D01*
X127385392Y-29728776D01*
X127433818Y-29794037D01*
X127476307Y-29836423D01*
X127526387Y-29865493D01*
X127598680Y-29893379D01*
X127803779Y-29946071D01*
X128079342Y-29995434D01*
X128413111Y-30042405D01*
X130085031Y-30225063D01*
X130951458Y-30326355D01*
X131349378Y-30382766D01*
X131707422Y-30444267D01*
X132013330Y-30511793D01*
X132254843Y-30586281D01*
X132347619Y-30626428D01*
X132419699Y-30668665D01*
X132469550Y-30713111D01*
X132495640Y-30759881D01*
X132498848Y-30815784D01*
X132481293Y-30884644D01*
X132444300Y-30965596D01*
X132389189Y-31057776D01*
X132229910Y-31272360D01*
X132014039Y-31521478D01*
X131752156Y-31798211D01*
X131454845Y-32095641D01*
X130796266Y-32724919D01*
X129519580Y-33927435D01*
X129270570Y-34176032D01*
X129070788Y-34389981D01*
X128930818Y-34562362D01*
X128886568Y-34630803D01*
X128861240Y-34686257D01*
X128850340Y-34745165D01*
X128847378Y-34825851D01*
X128862947Y-35046595D01*
X128903310Y-35336555D01*
X128963829Y-35683800D01*
X129314733Y-37406964D01*
X129490561Y-38301996D01*
X129562338Y-38716110D01*
X129617175Y-39092045D01*
X129650434Y-39417868D01*
X129657479Y-39681647D01*
X129649721Y-39786541D01*
X129633671Y-39871449D01*
X129608749Y-39934879D01*
X129574375Y-39975340D01*
X129524643Y-39995813D01*
X129456737Y-39999593D01*
X129371849Y-39987732D01*
X129271174Y-39961280D01*
X129027235Y-39868812D01*
X128734469Y-39730600D01*
X128402423Y-39555055D01*
X128040647Y-39350589D01*
X127266097Y-38888534D01*
X125780359Y-37987453D01*
X125477824Y-37816045D01*
X125221946Y-37683004D01*
X125022274Y-37596741D01*
X124946499Y-37573780D01*
X124888355Y-37565668D01*
X124831541Y-37573006D01*
X124757421Y-37594988D01*
X124561963Y-37678731D01*
X124311373Y-37808583D01*
X124015045Y-37976236D01*
X122560194Y-38858626D01*
X121802539Y-39310535D01*
X121449029Y-39510079D01*
X121124919Y-39680935D01*
X120839603Y-39814793D01*
X120602473Y-39903340D01*
X120504913Y-39928026D01*
X120422922Y-39938267D01*
X120357673Y-39933025D01*
X120310341Y-39911262D01*
X120276396Y-39868010D01*
X120251978Y-39801482D01*
X120236504Y-39713191D01*
X120229387Y-39604653D01*
X120237886Y-39332893D01*
X120272796Y-38998319D01*
X120329437Y-38613050D01*
X120403129Y-38189205D01*
X120582946Y-37274257D01*
X120941279Y-35514646D01*
X121003291Y-35160076D01*
X121044915Y-34863875D01*
X121061471Y-34638161D01*
X121048279Y-34495054D01*
X121024065Y-34440683D01*
X120981220Y-34373586D01*
X120844853Y-34204610D01*
X120649622Y-33994922D01*
X120405966Y-33751316D01*
X119815152Y-33189536D01*
X119155943Y-32573632D01*
X118511876Y-31957965D01*
X118221624Y-31667208D01*
X117966483Y-31396897D01*
X117756895Y-31153827D01*
X117603300Y-30944792D01*
X117550763Y-30855162D01*
X117516141Y-30776589D01*
X117500738Y-30709922D01*
X117505859Y-30656012D01*
X117534611Y-30608807D01*
X117587424Y-30563909D01*
X117662744Y-30521200D01*
X117759015Y-30480568D01*
X118008193Y-30405069D01*
X118322516Y-30336489D01*
X118689545Y-30273909D01*
X119096841Y-30216408D01*
X119982472Y-30112956D01*
X121689573Y-29926469D01*
X122030415Y-29878728D01*
X122312004Y-29828698D01*
X122521900Y-29775457D01*
X122596076Y-29747344D01*
X122647663Y-29718084D01*
X122689514Y-29677144D01*
X122737156Y-29613694D01*
X122848346Y-29425526D01*
X122978291Y-29166088D01*
X123124053Y-28847891D01*
X123806457Y-27237719D01*
X124166115Y-26405343D01*
X124340267Y-26026118D01*
X124506715Y-25688215D01*
X124662519Y-25404144D01*
X124804738Y-25186416D01*
X124869835Y-25106339D01*
X124930433Y-25047540D01*
X124986165Y-25011581D01*
X125036663Y-25000026D01*
X125088377Y-25014103D01*
G37*
G36*
X149314070Y-115552667D02*
G01*
X149701818Y-116054544D01*
X150105677Y-116561682D01*
X150525901Y-117073591D01*
X150962746Y-117589782D01*
X151416466Y-118109762D01*
X151887318Y-118633043D01*
X152375557Y-119159134D01*
X150724305Y-119837668D01*
X149067940Y-120454094D01*
X147405851Y-121011368D01*
X145737427Y-121512447D01*
X144062059Y-121960287D01*
X142379134Y-122357843D01*
X140688043Y-122708074D01*
X138988175Y-123013934D01*
X137278919Y-123278381D01*
X135559664Y-123504370D01*
X132088717Y-123852801D01*
X128570447Y-124082879D01*
X124999969Y-124218254D01*
X121429492Y-124082879D01*
X117911222Y-123852801D01*
X114440275Y-123504370D01*
X112721020Y-123278381D01*
X111011764Y-123013934D01*
X109311896Y-122708074D01*
X107620805Y-122357843D01*
X105937880Y-121960287D01*
X104262512Y-121512447D01*
X102594088Y-121011368D01*
X100931999Y-120454094D01*
X99275634Y-119837668D01*
X97624382Y-119159134D01*
X98112624Y-118633041D01*
X98583477Y-118109760D01*
X99037197Y-117589780D01*
X99474040Y-117073591D01*
X99894263Y-116561683D01*
X100298121Y-116054546D01*
X100685869Y-115552669D01*
X101057764Y-115056541D01*
X102186721Y-115500459D01*
X103823675Y-116044078D01*
X105980888Y-116643250D01*
X108670620Y-117253823D01*
X111905133Y-117831646D01*
X115696688Y-118332569D01*
X117805188Y-118540395D01*
X120057546Y-118712440D01*
X122455296Y-118843184D01*
X124999969Y-118927109D01*
X127544789Y-118843180D01*
X129942658Y-118712430D01*
X132195111Y-118540379D01*
X134303682Y-118332544D01*
X136269905Y-118094447D01*
X138095315Y-117831606D01*
X139781445Y-117549540D01*
X141329830Y-117253769D01*
X142742004Y-116949812D01*
X144019501Y-116643189D01*
X145163855Y-116339419D01*
X146176600Y-116044022D01*
X147059270Y-115762516D01*
X147813401Y-115500421D01*
X148942177Y-115056541D01*
X149314070Y-115552667D01*
G37*
D13*
%TO.C,Q2*%
X112730000Y-130360000D03*
D14*
X115270000Y-130360000D03*
X117810000Y-130360000D03*
%TD*%
D13*
%TO.C,Q1*%
X124730000Y-62270000D03*
D14*
X127270000Y-62270000D03*
X129810000Y-62270000D03*
%TD*%
D15*
%TO.C,BT1*%
X125000000Y-117000000D03*
D16*
X125000000Y-97000000D03*
%TD*%
D17*
%TO.C,SW3*%
X127540000Y-130500000D03*
X125000000Y-130500000D03*
D18*
X122460000Y-130500000D03*
%TD*%
%TO.C,SW2*%
X122460000Y-126500000D03*
D17*
X125000000Y-126500000D03*
X127540000Y-126500000D03*
%TD*%
D19*
%TO.C,R18*%
X156587500Y-131000000D03*
X158412500Y-131000000D03*
%TD*%
D20*
%TO.C,R17*%
X105000000Y-134912500D03*
X105000000Y-133087500D03*
%TD*%
D19*
%TO.C,R16*%
X123587500Y-77000000D03*
X125412500Y-77000000D03*
%TD*%
%TO.C,R12*%
X106087500Y-76500000D03*
X107912500Y-76500000D03*
%TD*%
D21*
%TO.C,R5*%
X151912500Y-100500000D03*
X150087500Y-100500000D03*
%TD*%
%TO.C,R7*%
X111912500Y-97000000D03*
X110087500Y-97000000D03*
%TD*%
%TO.C,R2*%
X125912500Y-90000000D03*
X124087500Y-90000000D03*
%TD*%
D22*
%TO.C,D6*%
X115730000Y-64000000D03*
D23*
X118270000Y-64000000D03*
%TD*%
D24*
%TO.C,C1*%
X101050000Y-99000000D03*
X102950000Y-99000000D03*
%TD*%
D20*
%TO.C,R4*%
X100000000Y-127912500D03*
X100000000Y-126087500D03*
%TD*%
D24*
%TO.C,C2*%
X118550000Y-116000000D03*
X120450000Y-116000000D03*
%TD*%
D21*
%TO.C,R6*%
X121412500Y-46500000D03*
X119587500Y-46500000D03*
%TD*%
D20*
%TO.C,R15*%
X138500000Y-115912500D03*
X138500000Y-114087500D03*
%TD*%
D22*
%TO.C,D3*%
X128730000Y-52000000D03*
D23*
X131270000Y-52000000D03*
%TD*%
D20*
%TO.C,R10*%
X146000000Y-76325000D03*
X146000000Y-74500000D03*
%TD*%
D25*
%TO.C,U1*%
X125955000Y-107845000D03*
X125955000Y-109115000D03*
X125955000Y-110385000D03*
X125955000Y-111655000D03*
X130905000Y-111655000D03*
X130905000Y-110385000D03*
X130905000Y-109115000D03*
X130905000Y-107845000D03*
D26*
X128430000Y-109750000D03*
%TD*%
D22*
%TO.C,D1*%
X149730000Y-125500000D03*
D23*
X152270000Y-125500000D03*
%TD*%
D22*
%TO.C,D5*%
X138730000Y-93500000D03*
D23*
X141270000Y-93500000D03*
%TD*%
D27*
%TO.C,R8*%
X135000000Y-82087500D03*
X135000000Y-83912500D03*
%TD*%
D22*
%TO.C,D4*%
X90770000Y-131000000D03*
D23*
X88230000Y-131000000D03*
%TD*%
D20*
%TO.C,R3*%
X135000000Y-65412500D03*
X135000000Y-63587500D03*
%TD*%
D19*
%TO.C,R9*%
X116587500Y-82000000D03*
X118412500Y-82000000D03*
%TD*%
D21*
%TO.C,R13*%
X113912500Y-107000000D03*
X112087500Y-107000000D03*
%TD*%
D19*
%TO.C,R1*%
X140087500Y-133000000D03*
X141912500Y-133000000D03*
%TD*%
D22*
%TO.C,D2*%
X113730000Y-88500000D03*
D23*
X116270000Y-88500000D03*
%TD*%
D19*
%TO.C,R14*%
X138087500Y-103000000D03*
X139912500Y-103000000D03*
%TD*%
D21*
%TO.C,R11*%
X126000000Y-100500000D03*
X124175000Y-100500000D03*
%TD*%
D18*
%TO.C,SW1*%
X122420000Y-135500000D03*
D17*
X124960000Y-135500000D03*
X127500000Y-135500000D03*
%TD*%
%LPD*%
M02*
