M48
; DRILL file {KiCad 9.0.6} date 2025-11-21T00:36:41-0500
; FORMAT={-:-/ absolute / inch / decimal}
; #@! TF.CreationDate,2025-11-21T00:36:41-05:00
; #@! TF.GenerationSoftware,Kicad,Pcbnew,9.0.6
; #@! TF.FileFunction,Plated,1,4,PTH
FMAT,2
INCH
; #@! TA.AperFunction,Plated,PTH,ViaDrill
T1C0.0118
; #@! TA.AperFunction,Plated,PTH,ComponentDrill
T2C0.0315
; #@! TA.AperFunction,Plated,PTH,ComponentDrill
T3C0.0354
; #@! TA.AperFunction,Plated,PTH,ComponentDrill
T4C0.0394
; #@! TA.AperFunction,Plated,PTH,ComponentDrill
T5C0.0591
%
G90
G05
T1
X3.937Y-5.0787
X4.0157Y-3.0118
X4.0945Y-3.8386
X4.2126Y-5.2362
X4.2913Y-3.0131
X4.2913Y-3.8189
X4.311Y-3.9961
X4.3463Y-4.0708
X4.3701Y-4.2126
X4.3898Y-5.0
X4.4094Y-3.7598
X4.4094Y-4.1142
X4.4685Y-3.3858
X4.5866Y-3.9961
X4.626Y-4.5669
X4.685Y-3.9961
X4.7244Y-3.5039
X4.7835Y-3.029
X4.8228Y-5.0787
X4.8425Y-1.8307
X4.8819Y-4.2913
X4.8819Y-4.3898
X4.9409Y-4.1929
X5.0Y-3.0315
X5.0Y-3.5433
X5.0Y-4.5472
X5.0394Y-3.9961
X5.0984Y-3.0512
X5.1181Y-4.1929
X5.1378Y-5.0787
X5.1575Y-2.7362
X5.1969Y-4.4488
X5.2362Y-4.2717
X5.315Y-2.6181
X5.374Y-4.5472
X5.4134Y-3.5433
X5.4528Y-4.2717
X5.4724Y-5.2362
X5.5118Y-4.5079
X6.0236Y-3.9567
X6.2598Y-5.0591
T2
X4.4382Y-5.1323
X4.5382Y-5.1323
X4.6382Y-5.1323
X4.9106Y-2.4516
X5.0106Y-2.4516
X5.1106Y-2.4516
T3
X3.4736Y-5.1575
X3.5736Y-5.1575
X4.4776Y-3.4843
X4.5563Y-2.5197
X4.5776Y-3.4843
X4.6563Y-2.5197
X5.0681Y-2.0472
X5.1681Y-2.0472
X5.4618Y-3.6811
X5.5618Y-3.6811
X5.8949Y-4.9409
X5.9949Y-4.9409
T4
X4.8197Y-5.3346
X4.8213Y-4.9803
X4.8213Y-5.1378
X4.9197Y-5.3346
X4.9213Y-4.9803
X4.9213Y-5.1378
X5.0197Y-5.3346
X5.0213Y-4.9803
X5.0213Y-5.1378
T5
X4.9213Y-3.8189
X4.9213Y-4.6063
M30
