%TF.GenerationSoftware,KiCad,Pcbnew,9.0.6*%
%TF.CreationDate,2025-11-21T00:36:58-05:00*%
%TF.ProjectId,Ornament2025,4f726e61-6d65-46e7-9432-3032352e6b69,rev?*%
%TF.SameCoordinates,Original*%
%TF.FileFunction,Soldermask,Top*%
%TF.FilePolarity,Negative*%
%FSLAX46Y46*%
G04 Gerber Fmt 4.6, Leading zero omitted, Abs format (unit mm)*
G04 Created by KiCad (PCBNEW 9.0.6) date 2025-11-21 00:36:58*
%MOMM*%
%LPD*%
G01*
G04 APERTURE LIST*
G04 Aperture macros list*
%AMRoundRect*
0 Rectangle with rounded corners*
0 $1 Rounding radius*
0 $2 $3 $4 $5 $6 $7 $8 $9 X,Y pos of 4 corners*
0 Add a 4 corners polygon primitive as box body*
4,1,4,$2,$3,$4,$5,$6,$7,$8,$9,$2,$3,0*
0 Add four circle primitives for the rounded corners*
1,1,$1+$1,$2,$3*
1,1,$1+$1,$4,$5*
1,1,$1+$1,$6,$7*
1,1,$1+$1,$8,$9*
0 Add four rect primitives between the rounded corners*
20,1,$1+$1,$2,$3,$4,$5,0*
20,1,$1+$1,$4,$5,$6,$7,0*
20,1,$1+$1,$6,$7,$8,$9,0*
20,1,$1+$1,$8,$9,$2,$3,0*%
G04 Aperture macros list end*
%ADD10C,0.000000*%
%ADD11R,1.500000X1.500000*%
%ADD12C,1.500000*%
%ADD13R,2.000000X2.000000*%
%ADD14C,2.000000*%
%ADD15C,1.700000*%
%ADD16R,1.700000X1.700000*%
%ADD17RoundRect,0.250000X-0.262500X-0.450000X0.262500X-0.450000X0.262500X0.450000X-0.262500X0.450000X0*%
%ADD18RoundRect,0.250000X0.450000X-0.262500X0.450000X0.262500X-0.450000X0.262500X-0.450000X-0.262500X0*%
%ADD19RoundRect,0.250000X0.262500X0.450000X-0.262500X0.450000X-0.262500X-0.450000X0.262500X-0.450000X0*%
%ADD20R,1.800000X1.800000*%
%ADD21C,1.800000*%
%ADD22RoundRect,0.250000X-0.250000X-0.475000X0.250000X-0.475000X0.250000X0.475000X-0.250000X0.475000X0*%
%ADD23RoundRect,0.150000X-0.825000X-0.150000X0.825000X-0.150000X0.825000X0.150000X-0.825000X0.150000X0*%
%ADD24R,2.290000X3.000000*%
%ADD25RoundRect,0.250000X-0.450000X0.262500X-0.450000X-0.262500X0.450000X-0.262500X0.450000X0.262500X0*%
G04 APERTURE END LIST*
D10*
G36*
X133000000Y-144999931D02*
G01*
X116999943Y-144999931D01*
X116999943Y-137000023D01*
X133000000Y-137000023D01*
X133000000Y-144999931D01*
G37*
G36*
X143212296Y-69049023D02*
G01*
X143612862Y-69435884D01*
X144019588Y-69818309D01*
X144434026Y-70196800D01*
X144857727Y-70571859D01*
X145292241Y-70943987D01*
X145739119Y-71313686D01*
X146199912Y-71681459D01*
X146676170Y-72047806D01*
X144032316Y-72551039D01*
X141369740Y-72968541D01*
X138686012Y-73308181D01*
X135978704Y-73577827D01*
X133245388Y-73785346D01*
X130483634Y-73938608D01*
X127691013Y-74045480D01*
X124865097Y-74113831D01*
X122067529Y-74046321D01*
X119302622Y-73941095D01*
X116568018Y-73790537D01*
X113861356Y-73587032D01*
X111180276Y-73322963D01*
X108522419Y-72990714D01*
X105885424Y-72582669D01*
X103266931Y-72091213D01*
X103746719Y-71723781D01*
X104210693Y-71354991D01*
X104660435Y-70984333D01*
X105097525Y-70611298D01*
X105523542Y-70235376D01*
X105940066Y-69856058D01*
X106348678Y-69472833D01*
X106750957Y-69085194D01*
X108356363Y-69327894D01*
X110142339Y-69563894D01*
X112112721Y-69787203D01*
X114271350Y-69991830D01*
X116622064Y-70171785D01*
X119168701Y-70321078D01*
X121915099Y-70433717D01*
X124865097Y-70503712D01*
X127868531Y-70431997D01*
X130661595Y-70316165D01*
X133248041Y-70162541D01*
X135631619Y-69977454D01*
X137816083Y-69767230D01*
X139805183Y-69538199D01*
X141602670Y-69296686D01*
X143212296Y-69049019D01*
X143212296Y-69049023D01*
G37*
G36*
X125088377Y-25014103D02*
G01*
X125145432Y-25052881D01*
X125207454Y-25114775D01*
X125274066Y-25198198D01*
X125419555Y-25423291D01*
X125578893Y-25715471D01*
X125749071Y-26062053D01*
X125927083Y-26450349D01*
X126294574Y-27301334D01*
X126991210Y-28945642D01*
X127139836Y-29270698D01*
X127272232Y-29535972D01*
X127385392Y-29728776D01*
X127433818Y-29794037D01*
X127476307Y-29836423D01*
X127526387Y-29865493D01*
X127598680Y-29893379D01*
X127803779Y-29946071D01*
X128079342Y-29995434D01*
X128413111Y-30042405D01*
X130085031Y-30225063D01*
X130951458Y-30326355D01*
X131349378Y-30382766D01*
X131707422Y-30444267D01*
X132013330Y-30511793D01*
X132254843Y-30586281D01*
X132347619Y-30626428D01*
X132419699Y-30668665D01*
X132469550Y-30713111D01*
X132495640Y-30759881D01*
X132498848Y-30815784D01*
X132481293Y-30884644D01*
X132444300Y-30965596D01*
X132389189Y-31057776D01*
X132229910Y-31272360D01*
X132014039Y-31521478D01*
X131752156Y-31798211D01*
X131454845Y-32095641D01*
X130796266Y-32724919D01*
X129519580Y-33927435D01*
X129270570Y-34176032D01*
X129070788Y-34389981D01*
X128930818Y-34562362D01*
X128886568Y-34630803D01*
X128861240Y-34686257D01*
X128850340Y-34745165D01*
X128847378Y-34825851D01*
X128862947Y-35046595D01*
X128903310Y-35336555D01*
X128963829Y-35683800D01*
X129314733Y-37406964D01*
X129490561Y-38301996D01*
X129562338Y-38716110D01*
X129617175Y-39092045D01*
X129650434Y-39417868D01*
X129657479Y-39681647D01*
X129649721Y-39786541D01*
X129633671Y-39871449D01*
X129608749Y-39934879D01*
X129574375Y-39975340D01*
X129524643Y-39995813D01*
X129456737Y-39999593D01*
X129371849Y-39987732D01*
X129271174Y-39961280D01*
X129027235Y-39868812D01*
X128734469Y-39730600D01*
X128402423Y-39555055D01*
X128040647Y-39350589D01*
X127266097Y-38888534D01*
X125780359Y-37987453D01*
X125477824Y-37816045D01*
X125221946Y-37683004D01*
X125022274Y-37596741D01*
X124946499Y-37573780D01*
X124888355Y-37565668D01*
X124831541Y-37573006D01*
X124757421Y-37594988D01*
X124561963Y-37678731D01*
X124311373Y-37808583D01*
X124015045Y-37976236D01*
X122560194Y-38858626D01*
X121802539Y-39310535D01*
X121449029Y-39510079D01*
X121124919Y-39680935D01*
X120839603Y-39814793D01*
X120602473Y-39903340D01*
X120504913Y-39928026D01*
X120422922Y-39938267D01*
X120357673Y-39933025D01*
X120310341Y-39911262D01*
X120276396Y-39868010D01*
X120251978Y-39801482D01*
X120236504Y-39713191D01*
X120229387Y-39604653D01*
X120237886Y-39332893D01*
X120272796Y-38998319D01*
X120329437Y-38613050D01*
X120403129Y-38189205D01*
X120582946Y-37274257D01*
X120941279Y-35514646D01*
X121003291Y-35160076D01*
X121044915Y-34863875D01*
X121061471Y-34638161D01*
X121048279Y-34495054D01*
X121024065Y-34440683D01*
X120981220Y-34373586D01*
X120844853Y-34204610D01*
X120649622Y-33994922D01*
X120405966Y-33751316D01*
X119815152Y-33189536D01*
X119155943Y-32573632D01*
X118511876Y-31957965D01*
X118221624Y-31667208D01*
X117966483Y-31396897D01*
X117756895Y-31153827D01*
X117603300Y-30944792D01*
X117550763Y-30855162D01*
X117516141Y-30776589D01*
X117500738Y-30709922D01*
X117505859Y-30656012D01*
X117534611Y-30608807D01*
X117587424Y-30563909D01*
X117662744Y-30521200D01*
X117759015Y-30480568D01*
X118008193Y-30405069D01*
X118322516Y-30336489D01*
X118689545Y-30273909D01*
X119096841Y-30216408D01*
X119982472Y-30112956D01*
X121689573Y-29926469D01*
X122030415Y-29878728D01*
X122312004Y-29828698D01*
X122521900Y-29775457D01*
X122596076Y-29747344D01*
X122647663Y-29718084D01*
X122689514Y-29677144D01*
X122737156Y-29613694D01*
X122848346Y-29425526D01*
X122978291Y-29166088D01*
X123124053Y-28847891D01*
X123806457Y-27237719D01*
X124166115Y-26405343D01*
X124340267Y-26026118D01*
X124506715Y-25688215D01*
X124662519Y-25404144D01*
X124804738Y-25186416D01*
X124869835Y-25106339D01*
X124930433Y-25047540D01*
X124986165Y-25011581D01*
X125036663Y-25000026D01*
X125088377Y-25014103D01*
G37*
G36*
X149314070Y-115552667D02*
G01*
X149701818Y-116054544D01*
X150105677Y-116561682D01*
X150525901Y-117073591D01*
X150962746Y-117589782D01*
X151416466Y-118109762D01*
X151887318Y-118633043D01*
X152375557Y-119159134D01*
X150724305Y-119837668D01*
X149067940Y-120454094D01*
X147405851Y-121011368D01*
X145737427Y-121512447D01*
X144062059Y-121960287D01*
X142379134Y-122357843D01*
X140688043Y-122708074D01*
X138988175Y-123013934D01*
X137278919Y-123278381D01*
X135559664Y-123504370D01*
X132088717Y-123852801D01*
X128570447Y-124082879D01*
X124999969Y-124218254D01*
X121429492Y-124082879D01*
X117911222Y-123852801D01*
X114440275Y-123504370D01*
X112721020Y-123278381D01*
X111011764Y-123013934D01*
X109311896Y-122708074D01*
X107620805Y-122357843D01*
X105937880Y-121960287D01*
X104262512Y-121512447D01*
X102594088Y-121011368D01*
X100931999Y-120454094D01*
X99275634Y-119837668D01*
X97624382Y-119159134D01*
X98112624Y-118633041D01*
X98583477Y-118109760D01*
X99037197Y-117589780D01*
X99474040Y-117073591D01*
X99894263Y-116561683D01*
X100298121Y-116054546D01*
X100685869Y-115552669D01*
X101057764Y-115056541D01*
X102186721Y-115500459D01*
X103823675Y-116044078D01*
X105980888Y-116643250D01*
X108670620Y-117253823D01*
X111905133Y-117831646D01*
X115696688Y-118332569D01*
X117805188Y-118540395D01*
X120057546Y-118712440D01*
X122455296Y-118843184D01*
X124999969Y-118927109D01*
X127544789Y-118843180D01*
X129942658Y-118712430D01*
X132195111Y-118540379D01*
X134303682Y-118332544D01*
X136269905Y-118094447D01*
X138095315Y-117831606D01*
X139781445Y-117549540D01*
X141329830Y-117253769D01*
X142742004Y-116949812D01*
X144019501Y-116643189D01*
X145163855Y-116339419D01*
X146176600Y-116044022D01*
X147059270Y-115762516D01*
X147813401Y-115500421D01*
X148942177Y-115056541D01*
X149314070Y-115552667D01*
G37*
D11*
%TO.C,Q2*%
X112730000Y-130360000D03*
D12*
X115270000Y-130360000D03*
X117810000Y-130360000D03*
%TD*%
D11*
%TO.C,Q1*%
X124730000Y-62270000D03*
D12*
X127270000Y-62270000D03*
X129810000Y-62270000D03*
%TD*%
D13*
%TO.C,BT1*%
X125000000Y-117000000D03*
D14*
X125000000Y-97000000D03*
%TD*%
D15*
%TO.C,SW3*%
X127540000Y-130500000D03*
X125000000Y-130500000D03*
D16*
X122460000Y-130500000D03*
%TD*%
%TO.C,SW2*%
X122460000Y-126500000D03*
D15*
X125000000Y-126500000D03*
X127540000Y-126500000D03*
%TD*%
D17*
%TO.C,R18*%
X156587500Y-131000000D03*
X158412500Y-131000000D03*
%TD*%
D18*
%TO.C,R17*%
X105000000Y-134912500D03*
X105000000Y-133087500D03*
%TD*%
D17*
%TO.C,R16*%
X123587500Y-77000000D03*
X125412500Y-77000000D03*
%TD*%
%TO.C,R12*%
X106087500Y-76500000D03*
X107912500Y-76500000D03*
%TD*%
D19*
%TO.C,R5*%
X151912500Y-100500000D03*
X150087500Y-100500000D03*
%TD*%
%TO.C,R7*%
X111912500Y-97000000D03*
X110087500Y-97000000D03*
%TD*%
%TO.C,R2*%
X125912500Y-90000000D03*
X124087500Y-90000000D03*
%TD*%
D20*
%TO.C,D6*%
X115730000Y-64000000D03*
D21*
X118270000Y-64000000D03*
%TD*%
D22*
%TO.C,C1*%
X101050000Y-99000000D03*
X102950000Y-99000000D03*
%TD*%
D18*
%TO.C,R4*%
X100000000Y-127912500D03*
X100000000Y-126087500D03*
%TD*%
D22*
%TO.C,C2*%
X118550000Y-116000000D03*
X120450000Y-116000000D03*
%TD*%
D19*
%TO.C,R6*%
X121412500Y-46500000D03*
X119587500Y-46500000D03*
%TD*%
D18*
%TO.C,R15*%
X138500000Y-115912500D03*
X138500000Y-114087500D03*
%TD*%
D20*
%TO.C,D3*%
X128730000Y-52000000D03*
D21*
X131270000Y-52000000D03*
%TD*%
D18*
%TO.C,R10*%
X146000000Y-76325000D03*
X146000000Y-74500000D03*
%TD*%
D23*
%TO.C,U1*%
X125955000Y-107845000D03*
X125955000Y-109115000D03*
X125955000Y-110385000D03*
X125955000Y-111655000D03*
X130905000Y-111655000D03*
X130905000Y-110385000D03*
X130905000Y-109115000D03*
X130905000Y-107845000D03*
D24*
X128430000Y-109750000D03*
%TD*%
D20*
%TO.C,D1*%
X149730000Y-125500000D03*
D21*
X152270000Y-125500000D03*
%TD*%
D20*
%TO.C,D5*%
X138730000Y-93500000D03*
D21*
X141270000Y-93500000D03*
%TD*%
D25*
%TO.C,R8*%
X135000000Y-82087500D03*
X135000000Y-83912500D03*
%TD*%
D20*
%TO.C,D4*%
X90770000Y-131000000D03*
D21*
X88230000Y-131000000D03*
%TD*%
D18*
%TO.C,R3*%
X135000000Y-65412500D03*
X135000000Y-63587500D03*
%TD*%
D17*
%TO.C,R9*%
X116587500Y-82000000D03*
X118412500Y-82000000D03*
%TD*%
D19*
%TO.C,R13*%
X113912500Y-107000000D03*
X112087500Y-107000000D03*
%TD*%
D17*
%TO.C,R1*%
X140087500Y-133000000D03*
X141912500Y-133000000D03*
%TD*%
D20*
%TO.C,D2*%
X113730000Y-88500000D03*
D21*
X116270000Y-88500000D03*
%TD*%
D17*
%TO.C,R14*%
X138087500Y-103000000D03*
X139912500Y-103000000D03*
%TD*%
D19*
%TO.C,R11*%
X126000000Y-100500000D03*
X124175000Y-100500000D03*
%TD*%
D16*
%TO.C,SW1*%
X122420000Y-135500000D03*
D15*
X124960000Y-135500000D03*
X127500000Y-135500000D03*
%TD*%
M02*
