  0
SECTION
  2
HEADER
  9
$ACADVER
  1
AC1015
  9
$ACADMAINTVER
 70
     6
  9
$DWGCODEPAGE
  3
ANSI_1254
  9
$INSBASE
 10
0.0
 20
0.0
 30
0.0
  9
$EXTMIN
 10
0.0
 20
0.0
 30
0.0
  9
$EXTMAX
 10
297.0
 20
210.0
 30
0.0
  9
$LIMMIN
 10
0.0
 20
0.0
  9
$LIMMAX
 10
297.0
 20
210.0
  9
$ORTHOMODE
 70
     0
  9
$REGENMODE
 70
     1
  9
$FILLMODE
 70
     1
  9
$QTEXTMODE
 70
     0
  9
$MIRRTEXT
 70
     1
  9
$LTSCALE
 40
1.0
  9
$ATTMODE
 70
     1
  9
$TEXTSIZE
 40
3.5
  9
$TRACEWID
 40
1.0
  9
$TEXTSTYLE
  7
Standard
  9
$CLAYER
  8
0
  9
$CELTYPE
  6
ByLayer
  9
$CECOLOR
 62
   256
  9
$CELTSCALE
 40
1.0
  9
$DISPSILH
 70
     0
  9
$DIMSCALE
 40
1.0
  9
$DIMASZ
 40
3.302
  9
$DIMEXO
 40
1.0
  9
$DIMDLI
 40
3.75
  9
$DIMRND
 40
0.0
  9
$DIMDLE
 40
0.0
  9
$DIMEXE
 40
1.0
  9
$DIMTP
 40
0.0
  9
$DIMTM
 40
0.0
  9
$DIMTXT
 40
3.5277777778
  9
$DIMCEN
 40
2.5
  9
$DIMTSZ
 40
0.0
  9
$DIMTOL
 70
     0
  9
$DIMLIM
 70
     0
  9
$DIMTIH
 70
     1
  9
$DIMTOH
 70
     1
  9
$DIMSE1
 70
     0
  9
$DIMSE2
 70
     0
  9
$DIMTAD
 70
     1
  9
$DIMZIN
 70
     0
  9
$DIMBLK
  1

  9
$DIMASO
 70
     1
  9
$DIMSHO
 70
     1
  9
$DIMPOST
  1

  9
$DIMAPOST
  1

  9
$DIMALT
 70
     0
  9
$DIMALTD
 70
     3
  9
$DIMALTF
 40
0.0393700787
  9
$DIMLFAC
 40
0.5
  9
$DIMTOFL
 70
     1
  9
$DIMTVP
 40
0.0
  9
$DIMTIX
 70
     0
  9
$DIMSOXD
 70
     0
  9
$DIMSAH
 70
     0
  9
$DIMBLK1
  1

  9
$DIMBLK2
  1

  9
$DIMSTYLE
  2
ISO-25
  9
$DIMCLRD
 70
     0
  9
$DIMCLRE
 70
     0
  9
$DIMCLRT
 70
     0
  9
$DIMTFAC
 40
1.0
  9
$DIMGAP
 40
1.524
  9
$DIMJUST
 70
     0
  9
$DIMSD1
 70
     0
  9
$DIMSD2
 70
     0
  9
$DIMTOLJ
 70
     0
  9
$DIMTZIN
 70
     0
  9
$DIMALTZ
 70
     0
  9
$DIMALTTZ
 70
     0
  9
$DIMUPT
 70
     0
  9
$DIMDEC
 70
     2
  9
$DIMTDEC
 70
     2
  9
$DIMALTU
 70
     2
  9
$DIMALTTD
 70
     3
  9
$DIMTXSTY
  7
Standard
  9
$DIMAUNIT
 70
     0
  9
$DIMADEC
 70
     2
  9
$DIMALTRND
 40
0.0
  9
$DIMAZIN
 70
     0
  9
$DIMDSEP
 70
    44
  9
$DIMATFIT
 70
     3
  9
$DIMFRAC
 70
     0
  9
$DIMLDRBLK
  1

  9
$DIMLUNIT
 70
     2
  9
$DIMLWD
 70
    -2
  9
$DIMLWE
 70
    -2
  9
$DIMTMOVE
 70
     0
  9
$LUNITS
 70
     2
  9
$LUPREC
 70
     2
  9
$SKETCHINC
 40
1.0
  9
$FILLETRAD
 40
10.0
  9
$AUNITS
 70
     0
  9
$AUPREC
 70
     2
  9
$MENU
  1
.
  9
$ELEVATION
 40
0.0
  9
$PELEVATION
 40
0.0
  9
$THICKNESS
 40
0.0
  9
$LIMCHECK
 70
     0
  9
$CHAMFERA
 40
10.0
  9
$CHAMFERB
 40
10.0
  9
$CHAMFERC
 40
20.0
  9
$CHAMFERD
 40
0.0
  9
$SKPOLY
 70
     0
  9
$TDCREATE
 40
2455160.571646111
  9
$TDUCREATE
 40
2455160.488312778
  9
$TDUPDATE
 40
2455160.571646123
  9
$TDUUPDATE
 40
2455160.488312789
  9
$TDINDWG
 40
0.0000000116
  9
$TDUSRTIMER
 40
0.0000000116
  9
$USRTIMER
 70
     1
  9
$ANGBASE
 50
0.0
  9
$ANGDIR
 70
     0
  9
$PDMODE
 70
     0
  9
$PDSIZE
 40
-1.0
  9
$PLINEWID
 40
0.0
  9
$SPLFRAME
 70
     0
  9
$SPLINETYPE
 70
     6
  9
$SPLINESEGS
 70
     8
  9
$HANDSEED
  5
2CC
  9
$SURFTAB1
 70
     6
  9
$SURFTAB2
 70
     6
  9
$SURFTYPE
 70
     6
  9
$SURFU
 70
     6
  9
$SURFV
 70
     6
  9
$UCSBASE
  2

  9
$UCSNAME
  2

  9
$UCSORG
 10
0.0
 20
0.0
 30
0.0
  9
$UCSXDIR
 10
1.0
 20
0.0
 30
0.0
  9
$UCSYDIR
 10
0.0
 20
1.0
 30
0.0
  9
$UCSORTHOREF
  2

  9
$UCSORTHOVIEW
 70
     0
  9
$UCSORGTOP
 10
0.0
 20
0.0
 30
0.0
  9
$UCSORGBOTTOM
 10
0.0
 20
0.0
 30
0.0
  9
$UCSORGLEFT
 10
0.0
 20
0.0
 30
0.0
  9
$UCSORGRIGHT
 10
0.0
 20
0.0
 30
0.0
  9
$UCSORGFRONT
 10
0.0
 20
0.0
 30
0.0
  9
$UCSORGBACK
 10
0.0
 20
0.0
 30
0.0
  9
$PUCSBASE
  2

  9
$PUCSNAME
  2

  9
$PUCSORG
 10
0.0
 20
0.0
 30
0.0
  9
$PUCSXDIR
 10
1.0
 20
0.0
 30
0.0
  9
$PUCSYDIR
 10
0.0
 20
1.0
 30
0.0
  9
$PUCSORTHOREF
  2

  9
$PUCSORTHOVIEW
 70
     0
  9
$PUCSORGTOP
 10
0.0
 20
0.0
 30
0.0
  9
$PUCSORGBOTTOM
 10
0.0
 20
0.0
 30
0.0
  9
$PUCSORGLEFT
 10
0.0
 20
0.0
 30
0.0
  9
$PUCSORGRIGHT
 10
0.0
 20
0.0
 30
0.0
  9
$PUCSORGFRONT
 10
0.0
 20
0.0
 30
0.0
  9
$PUCSORGBACK
 10
0.0
 20
0.0
 30
0.0
  9
$USERI1
 70
     0
  9
$USERI2
 70
     0
  9
$USERI3
 70
     0
  9
$USERI4
 70
     0
  9
$USERI5
 70
     0
  9
$USERR1
 40
0.0
  9
$USERR2
 40
0.0
  9
$USERR3
 40
0.0
  9
$USERR4
 40
0.0
  9
$USERR5
 40
0.0
  9
$WORLDVIEW
 70
     1
  9
$SHADEDGE
 70
     3
  9
$SHADEDIF
 70
    70
  9
$TILEMODE
 70
     1
  9
$MAXACTVP
 70
    64
  9
$PINSBASE
 10
0.0
 20
0.0
 30
0.0
  9
$PLIMCHECK
 70
     0
  9
$PEXTMIN
 10
1.0000000000E+20
 20
1.0000000000E+20
 30
1.0000000000E+20
  9
$PEXTMAX
 10
-1.0000000000E+20
 20
-1.0000000000E+20
 30
-1.0000000000E+20
  9
$PLIMMIN
 10
0.0
 20
0.0
  9
$PLIMMAX
 10
420.0
 20
297.0
  9
$UNITMODE
 70
     0
  9
$VISRETAIN
 70
     1
  9
$PLINEGEN
 70
     0
  9
$PSLTSCALE
 70
     1
  9
$TREEDEPTH
 70
  3020
  9
$CMLSTYLE
  2
Standard
  9
$CMLJUST
 70
     0
  9
$CMLSCALE
 40
20.0
  9
$PROXYGRAPHICS
 70
     1
  9
$MEASUREMENT
 70
     1
  9
$CELWEIGHT
370
    -1
  9
$ENDCAPS
280
     0
  9
$JOINSTYLE
280
     0
  9
$LWDISPLAY
290
     1
  9
$INSUNITS
 70
     4
  9
$HYPERLINKBASE
  1

  9
$STYLESHEET
  1

  9
$XEDIT
290
     1
  9
$CEPSNTYPE
380
     0
  9
$PSTYLEMODE
290
     1
  9
$FINGERPRINTGUID
  2
{142CBFCA-C5B0-4E9E-ADEC-AB651145B60B}
  9
$VERSIONGUID
  2
{FAEB1C32-E019-11D5-929B-00C0DF256EC4}
  9
$EXTNAMES
290
     1
  9
$PSVPSCALE
 40
0.0
  9
$OLESTARTUP
290
     0
  0
ENDSEC
  0
SECTION
  2
CLASSES
  0
CLASS
  1
ACDBDICTIONARYWDFLT
  2
AcDbDictionaryWithDefault
  3
ObjectDBX Classes
 90
        0
280
     0
281
     0
  0
CLASS
  1
VISUALSTYLE
  2
AcDbVisualStyle
  3
ObjectDBX Classes
 90
     4095
280
     0
281
     0
  0
CLASS
  1
SCALE
  2
AcDbScale
  3
ObjectDBX Classes
 90
     1153
280
     0
281
     0
  0
CLASS
  1
DICTIONARYVAR
  2
AcDbDictionaryVar
  3
ObjectDBX Classes
 90
        0
280
     0
281
     0
  0
CLASS
  1
ACDBPLACEHOLDER
  2
AcDbPlaceHolder
  3
ObjectDBX Classes
 90
        0
280
     0
281
     0
  0
CLASS
  1
LAYOUT
  2
AcDbLayout
  3
ObjectDBX Classes
 90
        0
280
     0
281
     0
  0
ENDSEC
  0
SECTION
  2
TABLES
  0
TABLE
  2
VPORT
  5
8
330
0
100
AcDbSymbolTable
 70
     1
  0
VPORT
  5
29
330
8
100
AcDbSymbolTableRecord
100
AcDbViewportTableRecord
  2
*Active
 70
     0
 10
0.0
 20
0.0
 11
1.0
 21
1.0
 12
148.5
 22
105.0
 13
0.0
 23
0.0
 14
10.0
 24
10.0
 15
10.0
 25
10.0
 16
0.0
 26
0.0
 36
1.0
 17
0.0
 27
0.0
 37
0.0
 40
210.0
 41
1.4142857143
 42
50.0
 43
0.0
 44
0.0
 50
0.0
 51
0.0
 71
     0
 72
  2000
 73
     1
 74
     3
 75
     0
 76
     0
 77
     0
 78
     0
281
     0
 65
     1
110
0.0
120
0.0
130
0.0
111
1.0
121
0.0
131
0.0
112
0.0
122
1.0
132
0.0
 79
     0
146
0.0
  0
ENDTAB
  0
TABLE
  2
LTYPE
  5
5
330
0
100
AcDbSymbolTable
 70
     6
  0
LTYPE
  5
14
330
5
100
AcDbSymbolTableRecord
100
AcDbLinetypeTableRecord
  2
ByBlock
 70
     0
  3

 72
    65
 73
     0
 40
0.0
  0
LTYPE
  5
15
330
5
100
AcDbSymbolTableRecord
100
AcDbLinetypeTableRecord
  2
ByLayer
 70
     0
  3

 72
    65
 73
     0
 40
0.0
  0
LTYPE
  5
16
330
5
100
AcDbSymbolTableRecord
100
AcDbLinetypeTableRecord
  2
Continuous
 70
     0
  3
Solid line
 72
    65
 73
     0
 40
0.0
  0
LTYPE
  5
3B
330
5
100
AcDbSymbolTableRecord
100
AcDbLinetypeTableRecord
  2
HIDDEN
 70
     0
  3
Hidden __ __ __ __ __ __ __ __ __ __ __ __ __ __
 72
    65
 73
     2
 40
1.905
 49
1.27
 74
     0
 49
-0.635
 74
     0
  0
LTYPE
  5
3C
330
5
100
AcDbSymbolTableRecord
100
AcDbLinetypeTableRecord
  2
PHANTOM
 70
     0
  3
Phantom ______  __  __  ______  __  __  ______
 72
    65
 73
     6
 40
12.7
 49
6.35
 74
     0
 49
-1.27
 74
     0
 49
1.27
 74
     0
 49
-1.27
 74
     0
 49
1.27
 74
     0
 49
-1.27
 74
     0
  0
LTYPE
  5
3D
330
5
100
AcDbSymbolTableRecord
100
AcDbLinetypeTableRecord
  2
CENTER
 70
     0
  3
Center ____ _ ____ _ ____ _ ____ _ ____ _ ____
 72
    65
 73
     4
 40
10.16
 49
6.35
 74
     0
 49
-1.27
 74
     0
 49
1.27
 74
     0
 49
-1.27
 74
     0
  0
LTYPE
  5
3E
330
5
100
AcDbSymbolTableRecord
100
AcDbLinetypeTableRecord
  2
CENTERX2
 70
     0
  3
Center (2x) ________  __  ________  __  _____
 72
    65
 73
     4
 40
20.32
 49
12.7
 74
     0
 49
-2.54
 74
     0
 49
2.54
 74
     0
 49
-2.54
 74
     0
  0
LTYPE
  5
3F
330
5
100
AcDbSymbolTableRecord
100
AcDbLinetypeTableRecord
  2
DOT2
 70
     0
  3
Dot (.5x) ........................................
 72
    65
 73
     2
 40
0.635
 49
0.0
 74
     0
 49
-0.635
 74
     0
  0
ENDTAB
  0
TABLE
  2
LAYER
  5
2
330
0
100
AcDbSymbolTable
 70
     4
  0
LAYER
  5
10
330
2
100
AcDbSymbolTableRecord
100
AcDbLayerTableRecord
  2
0
 70
     0
 62
     7
  6
Continuous
370
    -3
390
F
  0
LAYER
  5
40
330
2
100
AcDbSymbolTableRecord
100
AcDbLayerTableRecord
  2
FORMAT
 70
     0
 62
     7
  6
Continuous
370
    -3
390
F
  0
LAYER
  5
41
330
2
100
AcDbSymbolTableRecord
100
AcDbLayerTableRecord
  2
LAYER1
 70
     0
 62
     7
  6
Continuous
370
    15
390
F
  0
LAYER
  5
42
330
2
100
AcDbSymbolTableRecord
100
AcDbLayerTableRecord
  2
LAYER2
 70
     0
 62
     1
  6
Continuous
370
    -3
390
F
  0
ENDTAB
  0
TABLE
  2
STYLE
  5
3
330
0
100
AcDbSymbolTable
 70
     5
  0
STYLE
  5
11
330
3
100
AcDbSymbolTableRecord
100
AcDbTextStyleTableRecord
  2
Standard
 70
     0
 40
0.0
 41
1.0
 50
0.0
 71
     0
 42
2.5
  3
txt
  4

  0
STYLE
  5
51
330
3
100
AcDbSymbolTableRecord
100
AcDbTextStyleTableRecord
  2
SLDTEXTSTYLE0
 70
     0
 40
0.0
 41
0.7
 50
0.0
 71
     0
 42
0.2
  3
TXT
  4

  0
STYLE
  5
126
330
3
100
AcDbSymbolTableRecord
100
AcDbTextStyleTableRecord
  2
SLDTEXTSTYLE1
 70
     0
 40
0.0
 41
0.75
 50
0.0
 71
     0
 42
0.2
  3
TXT
  4

  0
STYLE
  5
137
330
3
100
AcDbSymbolTableRecord
100
AcDbTextStyleTableRecord
  2
SLDTEXTSTYLE2
 70
     0
 40
0.0
 41
0.605
 50
0.0
 71
     0
 42
0.2
  3
TXT
  4

  0
STYLE
  5
14E
330
3
100
AcDbSymbolTableRecord
100
AcDbTextStyleTableRecord
  2
SLDTEXTSTYLE3
 70
     0
 40
0.0
 41
0.605
 50
0.0
 71
     0
 42
0.2
  3
TXT
  4
bigfont
  0
ENDTAB
  0
TABLE
  2
VIEW
  5
6
330
0
100
AcDbSymbolTable
 70
     0
  0
ENDTAB
  0
TABLE
  2
UCS
  5
7
330
0
100
AcDbSymbolTable
 70
     0
  0
ENDTAB
  0
TABLE
  2
APPID
  5
9
330
0
100
AcDbSymbolTable
 70
     1
  0
APPID
  5
12
330
9
100
AcDbSymbolTableRecord
100
AcDbRegAppTableRecord
  2
ACAD
 70
     0
  0
ENDTAB
  0
TABLE
  2
DIMSTYLE
  5
A
330
0
100
AcDbSymbolTable
 70
     4
100
AcDbDimStyleTable
  0
DIMSTYLE
105
27
330
A
100
AcDbSymbolTableRecord
100
AcDbDimStyleTableRecord
  2
ISO-25
 70
     0
 41
2.5
 42
0.625
 43
3.75
 44
1.25
 73
     0
 74
     0
 77
     1
 78
     8
140
2.5
141
2.5
143
0.0393700787
147
0.625
171
     3
172
     1
271
     2
272
     2
274
     3
278
    44
283
     0
284
     8
340
11
  0
DIMSTYLE
105
22F
102
{ACAD_REACTORS
330
22E
102
}
330
A
100
AcDbSymbolTableRecord
100
AcDbDimStyleTableRecord
  2
SLDDIMSTYLE0
 70
     0
 41
3.302
 44
0.0
 45
0.000000001
 73
     0
 74
     0
 77
     2
 78
    12
140
2.6458333333
144
0.5
147
0.6614583333
173
     1
271
     2
272
     2
284
    12
340
126
  0
DIMSTYLE
105
23A
102
{ACAD_REACTORS
330
239
330
268
330
28A
102
}
330
A
100
AcDbSymbolTableRecord
100
AcDbDimStyleTableRecord
  2
SLDDIMSTYLE1
 70
     0
 41
3.302
 44
0.0
 45
0.000000001
 73
     0
 74
     0
 77
     2
 78
    12
140
2.6458333333
144
0.5
147
0.6614583333
173
     1
271
     2
272
     2
284
    12
340
126
  0
DIMSTYLE
105
25C
102
{ACAD_REACTORS
330
25B
330
294
330
2A0
330
2AC
330
2B8
102
}
330
A
100
AcDbSymbolTableRecord
100
AcDbDimStyleTableRecord
  2
SLDDIMSTYLE2
 70
     0
 41
3.302
 44
0.0
 45
0.000000001
 73
     0
 74
     0
 77
     2
 78
    12
140
2.6458333333
144
0.5
147
0.6614583333
173
     1
271
     2
272
     2
284
    12
340
126
  0
ENDTAB
  0
TABLE
  2
BLOCK_RECORD
  5
1
330
0
100
AcDbSymbolTable
 70
    15
  0
BLOCK_RECORD
  5
1F
330
1
100
AcDbSymbolTableRecord
100
AcDbBlockTableRecord
  2
*Model_Space
340
22
  0
BLOCK_RECORD
  5
1B
330
1
100
AcDbSymbolTableRecord
100
AcDbBlockTableRecord
  2
*Paper_Space
340
1E
  0
BLOCK_RECORD
  5
23
330
1
100
AcDbSymbolTableRecord
100
AcDbBlockTableRecord
  2
*Paper_Space0
340
26
  0
BLOCK_RECORD
  5
43
330
1
100
AcDbSymbolTableRecord
100
AcDbBlockTableRecord
  2
Block5
340
0
102
{BLKREFS
331
124
102
}
  0
BLOCK_RECORD
  5
4E
330
1
100
AcDbSymbolTableRecord
100
AcDbBlockTableRecord
  2
Block4
340
0
102
{BLKREFS
331
123
102
}
  0
BLOCK_RECORD
  5
75
330
1
100
AcDbSymbolTableRecord
100
AcDbBlockTableRecord
  2
Block6
340
0
102
{BLKREFS
331
125
102
}
  0
BLOCK_RECORD
  5
13E
330
1
100
AcDbSymbolTableRecord
100
AcDbBlockTableRecord
  2
SW_NOTE_0
340
0
102
{BLKREFS
331
143
102
}
  0
BLOCK_RECORD
  5
144
330
1
100
AcDbSymbolTableRecord
100
AcDbBlockTableRecord
  2
SW_NOTE_1
340
0
102
{BLKREFS
331
14C
102
}
  0
BLOCK_RECORD
  5
230
330
1
100
AcDbSymbolTableRecord
100
AcDbBlockTableRecord
  2
*D6
340
0
  0
BLOCK_RECORD
  5
23B
330
1
100
AcDbSymbolTableRecord
100
AcDbBlockTableRecord
  2
*D7
340
0
  0
BLOCK_RECORD
  5
25D
330
1
100
AcDbSymbolTableRecord
100
AcDbBlockTableRecord
  2
*D8
340
0
  0
BLOCK_RECORD
  5
269
330
1
100
AcDbSymbolTableRecord
100
AcDbBlockTableRecord
  2
*D9
340
0
  0
BLOCK_RECORD
  5
28B
330
1
100
AcDbSymbolTableRecord
100
AcDbBlockTableRecord
  2
*D10
340
0
  0
BLOCK_RECORD
  5
295
330
1
100
AcDbSymbolTableRecord
100
AcDbBlockTableRecord
  2
*D11
340
0
  0
BLOCK_RECORD
  5
2A1
330
1
100
AcDbSymbolTableRecord
100
AcDbBlockTableRecord
  2
*D12
340
0
  0
BLOCK_RECORD
  5
2AD
330
1
100
AcDbSymbolTableRecord
100
AcDbBlockTableRecord
  2
*D13
340
0
  0
BLOCK_RECORD
  5
2B9
330
1
100
AcDbSymbolTableRecord
100
AcDbBlockTableRecord
  2
*D14
340
0
  0
ENDTAB
  0
ENDSEC
  0
SECTION
  2
BLOCKS
  0
BLOCK
  5
20
330
1F
100
AcDbEntity
  8
0
100
AcDbBlockBegin
  2
*Model_Space
 70
     0
 10
0.0
 20
0.0
 30
0.0
  3
*Model_Space
  1

  0
ENDBLK
  5
21
330
1F
100
AcDbEntity
  8
0
100
AcDbBlockEnd
  0
BLOCK
  5
1C
330
1B
100
AcDbEntity
 67
     1
  8
0
100
AcDbBlockBegin
  2
*Paper_Space
 70
     0
 10
0.0
 20
0.0
 30
0.0
  3
*Paper_Space
  1

  0
ENDBLK
  5
1D
330
1B
100
AcDbEntity
 67
     1
  8
0
100
AcDbBlockEnd
  0
BLOCK
  5
24
330
23
100
AcDbEntity
  8
0
100
AcDbBlockBegin
  2
*Paper_Space0
 70
     0
 10
0.0
 20
0.0
 30
0.0
  3
*Paper_Space0
  1

  0
ENDBLK
  5
25
330
23
100
AcDbEntity
  8
0
100
AcDbBlockEnd
  0
BLOCK
  5
44
330
43
100
AcDbEntity
  8
0
100
AcDbBlockBegin
  2
Block5
 70
     0
 10
0.0
 20
0.0
 30
0.0
  3
Block5
  1

  0
CIRCLE
  5
46
330
43
100
AcDbEntity
  8
FORMAT
100
AcDbCircle
 10
11.8202720118
 20
3.9855728122
 30
0.0
 40
1.400000000000031
  0
CIRCLE
  5
47
330
43
100
AcDbEntity
  8
FORMAT
100
AcDbCircle
 10
11.8202720118
 20
3.9855728122
 30
0.0
 40
3.400000000000028
  0
LINE
  5
48
330
43
100
AcDbEntity
  8
FORMAT
100
AcDbLine
 10
0.0
 20
4.0266952847
 30
0.0
 11
15.8776569467
 21
4.0266952847
 31
0.0
  0
LINE
  5
49
330
43
100
AcDbEntity
  8
FORMAT
100
AcDbLine
 10
6.7934234199
 20
7.3359236059
 30
0.0
 11
6.7934234199
 21
0.5359236059
 31
0.0
  0
LINE
  5
4A
330
43
100
AcDbEntity
  8
FORMAT
100
AcDbLine
 10
1.0125475392
 20
5.3359236059
 30
0.0
 11
1.0125475392
 21
2.5359236059
 31
0.0
  0
LINE
  5
4B
330
43
100
AcDbEntity
  8
FORMAT
100
AcDbLine
 10
1.0125475392
 20
2.5359236059
 30
0.0
 11
6.7934234199
 21
0.5359236059
 31
0.0
  0
LINE
  5
4C
330
43
100
AcDbEntity
  8
FORMAT
100
AcDbLine
 10
6.7934234199
 20
7.3359236059
 30
0.0
 11
1.0125475392
 21
5.3359236059
 31
0.0
  0
LINE
  5
4D
330
43
100
AcDbEntity
  8
FORMAT
100
AcDbLine
 10
11.8202720118
 20
8.1865819926
 30
0.0
 11
11.8202720118
 21
0.0
 31
0.0
  0
ENDBLK
  5
45
330
43
100
AcDbEntity
  8
0
100
AcDbBlockEnd
  0
BLOCK
  5
4F
330
4E
100
AcDbEntity
  8
0
100
AcDbBlockBegin
  2
Block4
 70
     0
 10
0.0
 20
0.0
 30
0.0
  3
Block4
  1

  0
MTEXT
  5
74
330
4E
100
AcDbEntity
  8
0
  6
Continuous
 62
     7
370
     0
100
AcDbMText
 10
0.0681123653
 20
1.3698043087
 30
0.0
 40
1.3229166667
 41
0.0
 71
     1
 72
     1
  1
ENCLOSURES FOR ELECTRONICS
  7
SLDTEXTSTYLE0
 73
     1
 44
1.0
  0
ENDBLK
  5
50
330
4E
100
AcDbEntity
  8
0
100
AcDbBlockEnd
  0
BLOCK
  5
76
330
75
100
AcDbEntity
  8
0
100
AcDbBlockBegin
  2
Block6
 70
     0
 10
0.0
 20
0.0
 30
0.0
  3
Block6
  1

  0
LINE
  5
78
330
75
100
AcDbEntity
  8
FORMAT
 62
   250
100
AcDbLine
 10
24.9996066667
 20
0.0
 30
0.0
 11
26.2681466667
 21
4.35981
 31
0.0
  0
LINE
  5
79
330
75
100
AcDbEntity
  8
FORMAT
 62
   250
100
AcDbLine
 10
26.2681466667
 20
4.35981
 30
0.0
 11
27.4404866667
 21
4.35981
 31
0.0
  0
LINE
  5
7A
330
75
100
AcDbEntity
  8
FORMAT
 62
   250
100
AcDbLine
 10
27.4404866667
 20
4.35981
 30
0.0
 11
28.7082033333
 21
0.0
 31
0.0
  0
LINE
  5
7B
330
75
100
AcDbEntity
  8
FORMAT
 62
   250
100
AcDbLine
 10
28.7082033333
 20
0.0
 30
0.0
 11
27.56
 21
0.0
 31
0.0
  0
LINE
  5
7C
330
75
100
AcDbEntity
  8
FORMAT
 62
   250
100
AcDbLine
 10
27.56
 20
0.0
 30
0.0
 11
27.4255366667
 21
0.5769833333
 31
0.0
  0
LINE
  5
7D
330
75
100
AcDbEntity
  8
FORMAT
 62
   250
100
AcDbLine
 10
27.4255366667
 20
0.5769833333
 30
0.0
 11
26.27716
 21
0.5769833333
 31
0.0
  0
LINE
  5
7E
330
75
100
AcDbEntity
  8
FORMAT
 62
   250
100
AcDbLine
 10
26.27716
 20
0.5769833333
 30
0.0
 11
26.1376266667
 21
0.0
 31
0.0
  0
LINE
  5
7F
330
75
100
AcDbEntity
  8
FORMAT
 62
   250
100
AcDbLine
 10
26.1376266667
 20
0.0
 30
0.0
 11
24.9996066667
 21
0.0
 31
0.0
  0
LINE
  5
80
330
75
100
AcDbEntity
  8
FORMAT
 62
   250
100
AcDbLine
 10
26.48776
 20
1.4914466667
 30
0.0
 11
27.2148066667
 21
1.4914466667
 31
0.0
  0
LINE
  5
81
330
75
100
AcDbEntity
  8
FORMAT
 62
   250
100
AcDbLine
 10
27.2148066667
 20
1.4914466667
 30
0.0
 11
26.8553566667
 21
3.00079
 31
0.0
  0
LINE
  5
82
330
75
100
AcDbEntity
  8
FORMAT
 62
   250
100
AcDbLine
 10
26.8553566667
 20
3.00079
 30
0.0
 11
26.48776
 21
1.4914466667
 31
0.0
  0
LINE
  5
83
330
75
100
AcDbEntity
  8
FORMAT
 62
   250
100
AcDbLine
 10
23.2651466667
 20
0.0
 30
0.0
 11
23.2651466667
 21
1.6134733333
 31
0.0
  0
LINE
  5
84
330
75
100
AcDbEntity
  8
FORMAT
 62
   250
100
AcDbLine
 10
23.2651466667
 20
1.6134733333
 30
0.0
 11
21.93815
 21
4.35981
 31
0.0
  0
LINE
  5
85
330
75
100
AcDbEntity
  8
FORMAT
 62
   250
100
AcDbLine
 10
21.93815
 20
4.35981
 30
0.0
 11
23.2209466667
 21
4.35981
 31
0.0
  0
LINE
  5
86
330
75
100
AcDbEntity
  8
FORMAT
 62
   250
100
AcDbLine
 10
23.2209466667
 20
4.35981
 30
0.0
 11
23.84356
 21
2.87352
 31
0.0
  0
LINE
  5
87
330
75
100
AcDbEntity
  8
FORMAT
 62
   250
100
AcDbLine
 10
23.84356
 20
2.87352
 30
0.0
 11
24.47042
 21
4.35981
 31
0.0
  0
LINE
  5
88
330
75
100
AcDbEntity
  8
FORMAT
 62
   250
100
AcDbLine
 10
24.47042
 20
4.35981
 30
0.0
 11
25.71881
 21
4.35981
 31
0.0
  0
LINE
  5
89
330
75
100
AcDbEntity
  8
FORMAT
 62
   250
100
AcDbLine
 10
25.71881
 20
4.35981
 30
0.0
 11
24.4234033333
 21
1.6134733333
 31
0.0
  0
LINE
  5
8A
330
75
100
AcDbEntity
  8
FORMAT
 62
   250
100
AcDbLine
 10
24.4234033333
 20
1.6134733333
 30
0.0
 11
24.4234033333
 21
0.0
 31
0.0
  0
LINE
  5
8B
330
75
100
AcDbEntity
  8
FORMAT
 62
   250
100
AcDbLine
 10
24.4234033333
 20
0.0
 30
0.0
 11
23.2651466667
 21
0.0
 31
0.0
  0
LINE
  5
8C
330
75
100
AcDbEntity
  8
FORMAT
 62
   250
100
AcDbLine
 10
18.94035
 20
0.0
 30
0.0
 11
20.2091066667
 21
4.35981
 31
0.0
  0
LINE
  5
8D
330
75
100
AcDbEntity
  8
FORMAT
 62
   250
100
AcDbLine
 10
20.2091066667
 20
4.35981
 30
0.0
 11
21.38136
 21
4.35981
 31
0.0
  0
LINE
  5
8E
330
75
100
AcDbEntity
  8
FORMAT
 62
   250
100
AcDbLine
 10
21.38136
 20
4.35981
 30
0.0
 11
22.64912
 21
0.0
 31
0.0
  0
LINE
  5
8F
330
75
100
AcDbEntity
  8
FORMAT
 62
   250
100
AcDbLine
 10
22.64912
 20
0.0
 30
0.0
 11
21.50083
 21
0.0
 31
0.0
  0
LINE
  5
90
330
75
100
AcDbEntity
  8
FORMAT
 62
   250
100
AcDbLine
 10
21.50083
 20
0.0
 30
0.0
 11
21.36641
 21
0.5769833333
 31
0.0
  0
LINE
  5
91
330
75
100
AcDbEntity
  8
FORMAT
 62
   250
100
AcDbLine
 10
21.36641
 20
0.5769833333
 30
0.0
 11
20.21799
 21
0.5769833333
 31
0.0
  0
LINE
  5
92
330
75
100
AcDbEntity
  8
FORMAT
 62
   250
100
AcDbLine
 10
20.21799
 20
0.5769833333
 30
0.0
 11
20.07863
 21
0.0
 31
0.0
  0
LINE
  5
93
330
75
100
AcDbEntity
  8
FORMAT
 62
   250
100
AcDbLine
 10
20.07863
 20
0.0
 30
0.0
 11
18.94035
 21
0.0
 31
0.0
  0
LINE
  5
94
330
75
100
AcDbEntity
  8
FORMAT
 62
   250
100
AcDbLine
 10
20.4289366667
 20
1.4914466667
 30
0.0
 11
21.15594
 21
1.4914466667
 31
0.0
  0
LINE
  5
95
330
75
100
AcDbEntity
  8
FORMAT
 62
   250
100
AcDbLine
 10
21.15594
 20
1.4914466667
 30
0.0
 11
20.79649
 21
3.00079
 31
0.0
  0
LINE
  5
96
330
75
100
AcDbEntity
  8
FORMAT
 62
   250
100
AcDbLine
 10
20.79649
 20
3.00079
 30
0.0
 11
20.4289366667
 21
1.4914466667
 31
0.0
  0
LINE
  5
97
330
75
100
AcDbEntity
  8
FORMAT
 62
   250
100
AcDbLine
 10
15.4246733333
 20
0.0
 30
0.0
 11
15.4246733333
 21
4.35981
 31
0.0
  0
LINE
  5
98
330
75
100
AcDbEntity
  8
FORMAT
 62
   250
100
AcDbLine
 10
15.4246733333
 20
4.35981
 30
0.0
 11
16.5728333333
 21
4.35981
 31
0.0
  0
LINE
  5
99
330
75
100
AcDbEntity
  8
FORMAT
 62
   250
100
AcDbLine
 10
16.5728333333
 20
4.35981
 30
0.0
 11
16.5728333333
 21
2.9150333333
 31
0.0
  0
LINE
  5
9A
330
75
100
AcDbEntity
  8
FORMAT
 62
   250
100
AcDbLine
 10
16.5728333333
 20
2.9150333333
 30
0.0
 11
17.6108833333
 21
4.35981
 31
0.0
  0
LINE
  5
9B
330
75
100
AcDbEntity
  8
FORMAT
 62
   250
100
AcDbLine
 10
17.6108833333
 20
4.35981
 30
0.0
 11
18.9553433333
 21
4.35981
 31
0.0
  0
LINE
  5
9C
330
75
100
AcDbEntity
  8
FORMAT
 62
   250
100
AcDbLine
 10
18.9553433333
 20
4.35981
 30
0.0
 11
17.6676066667
 21
2.75223
 31
0.0
  0
LINE
  5
9D
330
75
100
AcDbEntity
  8
FORMAT
 62
   250
100
AcDbLine
 10
17.6676066667
 20
2.75223
 30
0.0
 11
19.1215266667
 21
0.0
 31
0.0
  0
LINE
  5
9E
330
75
100
AcDbEntity
  8
FORMAT
 62
   250
100
AcDbLine
 10
19.1215266667
 20
0.0
 30
0.0
 11
17.7411
 21
0.0
 31
0.0
  0
LINE
  5
9F
330
75
100
AcDbEntity
  8
FORMAT
 62
   250
100
AcDbLine
 10
17.7411
 20
0.0
 30
0.0
 11
16.8593966667
 21
1.7459
 31
0.0
  0
LINE
  5
A0
330
75
100
AcDbEntity
  8
FORMAT
 62
   250
100
AcDbLine
 10
16.8593966667
 20
1.7459
 30
0.0
 11
16.5728333333
 21
1.38827
 31
0.0
  0
LINE
  5
A1
330
75
100
AcDbEntity
  8
FORMAT
 62
   250
100
AcDbLine
 10
16.5728333333
 20
1.38827
 30
0.0
 11
16.5728333333
 21
0.0
 31
0.0
  0
LINE
  5
A2
330
75
100
AcDbEntity
  8
FORMAT
 62
   250
100
AcDbLine
 10
16.5728333333
 20
0.0
 30
0.0
 11
15.4246733333
 21
0.0
 31
0.0
  0
LINE
  5
A3
330
75
100
AcDbEntity
  8
FORMAT
 62
   250
100
AcDbLine
 10
11.5248466667
 20
0.0
 30
0.0
 11
11.5248466667
 21
4.35981
 31
0.0
  0
LINE
  5
A4
330
75
100
AcDbEntity
  8
FORMAT
 62
   250
100
AcDbLine
 10
11.5248466667
 20
4.35981
 30
0.0
 11
12.6237366667
 21
4.35981
 31
0.0
  0
LINE
  5
A5
330
75
100
AcDbEntity
  8
FORMAT
 62
   250
100
AcDbLine
 10
12.6237366667
 20
4.35981
 30
0.0
 11
13.6350933333
 21
2.33181
 31
0.0
  0
LINE
  5
A6
330
75
100
AcDbEntity
  8
FORMAT
 62
   250
100
AcDbLine
 10
13.8163566667
 20
2.3027766667
 30
0.0
 11
13.8163566667
 21
4.35981
 31
0.0
  0
LINE
  5
A7
330
75
100
AcDbEntity
  8
FORMAT
 62
   250
100
AcDbLine
 10
13.8163566667
 20
4.35981
 30
0.0
 11
14.9203166667
 21
4.35981
 31
0.0
  0
LINE
  5
A8
330
75
100
AcDbEntity
  8
FORMAT
 62
   250
100
AcDbLine
 10
14.9203166667
 20
4.35981
 30
0.0
 11
14.9203166667
 21
0.0
 31
0.0
  0
LINE
  5
A9
330
75
100
AcDbEntity
  8
FORMAT
 62
   250
100
AcDbLine
 10
14.9203166667
 20
0.0
 30
0.0
 11
13.8163566667
 21
0.0
 31
0.0
  0
LINE
  5
AA
330
75
100
AcDbEntity
  8
FORMAT
 62
   250
100
AcDbLine
 10
13.8163566667
 20
0.0
 30
0.0
 11
12.805
 21
2.0127466667
 31
0.0
  0
LINE
  5
AB
330
75
100
AcDbEntity
  8
FORMAT
 62
   250
100
AcDbLine
 10
12.6237366667
 20
2.0419533333
 30
0.0
 11
12.6237366667
 21
0.0
 31
0.0
  0
LINE
  5
AC
330
75
100
AcDbEntity
  8
FORMAT
 62
   250
100
AcDbLine
 10
12.6237366667
 20
0.0
 30
0.0
 11
11.5248466667
 21
0.0
 31
0.0
  0
LINE
  5
AD
330
75
100
AcDbEntity
  8
FORMAT
 62
   250
100
AcDbLine
 10
9.8223666667
 20
0.0
 30
0.0
 11
9.8223666667
 21
4.35981
 31
0.0
  0
LINE
  5
AE
330
75
100
AcDbEntity
  8
FORMAT
 62
   250
100
AcDbLine
 10
9.8223666667
 20
4.35981
 30
0.0
 11
11.0021166667
 21
4.35981
 31
0.0
  0
LINE
  5
AF
330
75
100
AcDbEntity
  8
FORMAT
 62
   250
100
AcDbLine
 10
11.0021166667
 20
4.35981
 30
0.0
 11
11.0021166667
 21
0.0
 31
0.0
  0
LINE
  5
B0
330
75
100
AcDbEntity
  8
FORMAT
 62
   250
100
AcDbLine
 10
11.0021166667
 20
0.0
 30
0.0
 11
9.8223666667
 21
0.0
 31
0.0
  0
LINE
  5
B1
330
75
100
AcDbEntity
  8
FORMAT
 62
   250
100
AcDbLine
 10
7.23138
 20
0.0
 30
0.0
 11
7.23138
 21
3.2110433333
 31
0.0
  0
LINE
  5
B2
330
75
100
AcDbEntity
  8
FORMAT
 62
   250
100
AcDbLine
 10
7.23138
 20
3.2110433333
 30
0.0
 11
6.19346
 21
3.2110433333
 31
0.0
  0
LINE
  5
B3
330
75
100
AcDbEntity
  8
FORMAT
 62
   250
100
AcDbLine
 10
6.19346
 20
3.2110433333
 30
0.0
 11
6.19346
 21
4.35981
 31
0.0
  0
LINE
  5
B4
330
75
100
AcDbEntity
  8
FORMAT
 62
   250
100
AcDbLine
 10
6.19346
 20
4.35981
 30
0.0
 11
9.40576
 21
4.35981
 31
0.0
  0
LINE
  5
B5
330
75
100
AcDbEntity
  8
FORMAT
 62
   250
100
AcDbLine
 10
9.40576
 20
4.35981
 30
0.0
 11
9.40576
 21
3.2110433333
 31
0.0
  0
LINE
  5
B6
330
75
100
AcDbEntity
  8
FORMAT
 62
   250
100
AcDbLine
 10
9.40576
 20
3.2110433333
 30
0.0
 11
8.3895933333
 21
3.2110433333
 31
0.0
  0
LINE
  5
B7
330
75
100
AcDbEntity
  8
FORMAT
 62
   250
100
AcDbLine
 10
8.3895933333
 20
3.2110433333
 30
0.0
 11
8.3895933333
 21
0.0
 31
0.0
  0
LINE
  5
B8
330
75
100
AcDbEntity
  8
FORMAT
 62
   250
100
AcDbLine
 10
8.3895933333
 20
0.0
 30
0.0
 11
7.23138
 21
0.0
 31
0.0
  0
LINE
  5
B9
330
75
100
AcDbEntity
  8
FORMAT
 62
   250
100
AcDbLine
 10
4.0396633333
 20
0.0
 30
0.0
 11
4.0396633333
 21
4.35981
 31
0.0
  0
LINE
  5
BA
330
75
100
AcDbEntity
  8
FORMAT
 62
   250
100
AcDbLine
 10
4.0396633333
 20
4.35981
 30
0.0
 11
5.1978766667
 21
4.35981
 31
0.0
  0
LINE
  5
BB
330
75
100
AcDbEntity
  8
FORMAT
 62
   250
100
AcDbLine
 10
5.1978766667
 20
4.35981
 30
0.0
 11
5.1978766667
 21
1.15791
 31
0.0
  0
LINE
  5
BC
330
75
100
AcDbEntity
  8
FORMAT
 62
   250
100
AcDbLine
 10
5.1978766667
 20
1.15791
 30
0.0
 11
6.7722633333
 21
1.15791
 31
0.0
  0
LINE
  5
BD
330
75
100
AcDbEntity
  8
FORMAT
 62
   250
100
AcDbLine
 10
6.7722633333
 20
1.15791
 30
0.0
 11
6.7722633333
 21
0.0
 31
0.0
  0
LINE
  5
BE
330
75
100
AcDbEntity
  8
FORMAT
 62
   250
100
AcDbLine
 10
6.7722633333
 20
0.0
 30
0.0
 11
4.0396633333
 21
0.0
 31
0.0
  0
LINE
  5
BF
330
75
100
AcDbEntity
  8
FORMAT
 62
   250
100
AcDbLine
 10
0.0
 20
0.0
 30
0.0
 11
1.26854
 21
4.35981
 31
0.0
  0
LINE
  5
C0
330
75
100
AcDbEntity
  8
FORMAT
 62
   250
100
AcDbLine
 10
1.26854
 20
4.35981
 30
0.0
 11
2.4410966667
 21
4.35981
 31
0.0
  0
LINE
  5
C1
330
75
100
AcDbEntity
  8
FORMAT
 62
   250
100
AcDbLine
 10
2.4410966667
 20
4.35981
 30
0.0
 11
3.7088133333
 21
0.0
 31
0.0
  0
LINE
  5
C2
330
75
100
AcDbEntity
  8
FORMAT
 62
   250
100
AcDbLine
 10
3.7088133333
 20
0.0
 30
0.0
 11
2.5605233333
 21
0.0
 31
0.0
  0
LINE
  5
C3
330
75
100
AcDbEntity
  8
FORMAT
 62
   250
100
AcDbLine
 10
2.5605233333
 20
0.0
 30
0.0
 11
2.4260166667
 21
0.5769833333
 31
0.0
  0
LINE
  5
C4
330
75
100
AcDbEntity
  8
FORMAT
 62
   250
100
AcDbLine
 10
2.4260166667
 20
0.5769833333
 30
0.0
 11
1.27777
 21
0.5769833333
 31
0.0
  0
LINE
  5
C5
330
75
100
AcDbEntity
  8
FORMAT
 62
   250
100
AcDbLine
 10
1.27777
 20
0.5769833333
 30
0.0
 11
1.1383233333
 21
0.0
 31
0.0
  0
LINE
  5
C6
330
75
100
AcDbEntity
  8
FORMAT
 62
   250
100
AcDbLine
 10
1.1383233333
 20
0.0
 30
0.0
 11
0.0
 21
0.0
 31
0.0
  0
LINE
  5
C7
330
75
100
AcDbEntity
  8
FORMAT
 62
   250
100
AcDbLine
 10
1.48824
 20
1.4914466667
 30
0.0
 11
2.21533
 21
1.4914466667
 31
0.0
  0
LINE
  5
C8
330
75
100
AcDbEntity
  8
FORMAT
 62
   250
100
AcDbLine
 10
2.21533
 20
1.4914466667
 30
0.0
 11
1.8562266667
 21
3.00079
 31
0.0
  0
LINE
  5
C9
330
75
100
AcDbEntity
  8
FORMAT
 62
   250
100
AcDbLine
 10
1.8562266667
 20
3.00079
 30
0.0
 11
1.48824
 21
1.4914466667
 31
0.0
  0
SPLINE
  5
CA
330
75
100
AcDbEntity
  8
FORMAT
 62
   250
100
AcDbSpline
210
0.0
220
0.0
230
1.0
 70
     8
 71
     3
 72
     8
 73
     4
 74
     0
 42
0.00000001
 43
0.00000001
 40
0.1666666666666667
 40
0.1666666666666667
 40
0.1666666666666667
 40
0.1666666666666667
 40
0.2222222222222222
 40
0.2222222222222222
 40
0.2222222222222222
 40
0.2222222222222222
 10
13.63509333333335
 20
2.331810000000011
 30
0.0
 10
13.66599000000002
 20
2.275390000000009
 30
0.0
 10
13.69931333333335
 20
2.194486666666683
 30
0.0
 10
13.73441333333336
 20
2.089576666666683
 30
0.0
  0
SPLINE
  5
CB
330
75
100
AcDbEntity
  8
FORMAT
 62
   250
100
AcDbSpline
210
0.0
220
0.0
230
1.0
 70
     8
 71
     3
 72
     8
 73
     4
 74
     0
 42
0.00000001
 43
0.00000001
 40
0.2222222222222222
 40
0.2222222222222222
 40
0.2222222222222222
 40
0.2222222222222222
 40
0.2777777777777778
 40
0.2777777777777778
 40
0.2777777777777778
 40
0.2777777777777778
 10
13.73441333333336
 20
2.089576666666683
 30
0.0
 10
13.76947000000001
 20
1.985403333333344
 30
0.0
 10
13.80613000000003
 20
1.859043333333338
 30
0.0
 10
13.84569333333335
 20
1.710670000000011
 30
0.0
  0
SPLINE
  5
CC
330
75
100
AcDbEntity
  8
FORMAT
 62
   250
100
AcDbSpline
210
0.0
220
0.0
230
1.0
 70
     8
 71
     3
 72
     8
 73
     4
 74
     0
 42
0.00000001
 43
0.00000001
 40
0.2777777777777778
 40
0.2777777777777778
 40
0.2777777777777778
 40
0.2777777777777778
 40
0.3333333333333334
 40
0.3333333333333334
 40
0.3333333333333334
 40
0.3333333333333334
 10
13.84569333333335
 20
1.710670000000011
 30
0.0
 10
13.83555333333336
 20
1.787543333333343
 30
0.0
 10
13.82879333333337
 20
1.872173333333345
 30
0.0
 10
13.82381000000005
 20
1.965080000000015
 30
0.0
  0
SPLINE
  5
CD
330
75
100
AcDbEntity
  8
FORMAT
 62
   250
100
AcDbSpline
210
0.0
220
0.0
230
1.0
 70
     8
 71
     3
 72
     8
 73
     4
 74
     0
 42
0.00000001
 43
0.00000001
 40
0.3333333333333334
 40
0.3333333333333334
 40
0.3333333333333334
 40
0.3333333333333334
 40
0.388888888888889
 40
0.388888888888889
 40
0.388888888888889
 40
0.388888888888889
 10
13.82381000000005
 20
1.965080000000015
 30
0.0
 10
13.81886999999998
 20
2.058246666666673
 30
0.0
 10
13.8163566666667
 20
2.170263333333346
 30
0.0
 10
13.8163566666667
 20
2.30277666666668
 30
0.0
  0
SPLINE
  5
CE
330
75
100
AcDbEntity
  8
FORMAT
 62
   250
100
AcDbSpline
210
0.0
220
0.0
230
1.0
 70
     8
 71
     3
 72
     8
 73
     4
 74
     0
 42
0.00000001
 43
0.00000001
 40
0.6666666666666669
 40
0.6666666666666669
 40
0.6666666666666669
 40
0.6666666666666669
 40
0.7222222222222224
 40
0.7222222222222224
 40
0.7222222222222224
 40
0.7222222222222224
 10
12.80500000000001
 20
2.012746666666676
 30
0.0
 10
12.77419000000002
 20
2.072330000000004
 30
0.0
 10
12.74004333333334
 20
2.156093333333345
 30
0.0
 10
12.70321000000002
 20
2.264340000000018
 30
0.0
  0
SPLINE
  5
CF
330
75
100
AcDbEntity
  8
FORMAT
 62
   250
100
AcDbSpline
210
0.0
220
0.0
230
1.0
 70
     8
 71
     3
 72
     8
 73
     4
 74
     0
 42
0.00000001
 43
0.00000001
 40
0.7222222222222224
 40
0.7222222222222224
 40
0.7222222222222224
 40
0.7222222222222224
 40
0.777777777777778
 40
0.777777777777778
 40
0.777777777777778
 40
0.777777777777778
 10
12.70321000000002
 20
2.264340000000018
 30
0.0
 10
12.66620333333335
 20
2.372543333333345
 30
0.0
 10
12.62954333333333
 20
2.49665000000001
 30
0.0
 10
12.59206000000002
 20
2.637050000000009
 30
0.0
  0
SPLINE
  5
D0
330
75
100
AcDbEntity
  8
FORMAT
 62
   250
100
AcDbSpline
210
0.0
220
0.0
230
1.0
 70
     8
 71
     3
 72
     8
 73
     4
 74
     0
 42
0.00000001
 43
0.00000001
 40
0.777777777777778
 40
0.777777777777778
 40
0.777777777777778
 40
0.777777777777778
 40
0.8333333333333336
 40
0.8333333333333336
 40
0.8333333333333336
 40
0.8333333333333336
 10
12.59206000000002
 20
2.637050000000009
 30
0.0
 10
12.60367333333334
 20
2.560350000000017
 30
0.0
 10
12.61117
 20
2.479446666666676
 30
0.0
 10
12.61615333333338
 20
2.395553333333349
 30
0.0
  0
SPLINE
  5
D1
330
75
100
AcDbEntity
  8
FORMAT
 62
   250
100
AcDbSpline
210
0.0
220
0.0
230
1.0
 70
     8
 71
     3
 72
     8
 73
     4
 74
     0
 42
0.00000001
 43
0.00000001
 40
0.8333333333333336
 40
0.8333333333333336
 40
0.8333333333333336
 40
0.8333333333333336
 40
0.8888888888888892
 40
0.8888888888888892
 40
0.8888888888888892
 40
0.8888888888888892
 10
12.61615333333338
 20
2.395553333333349
 30
0.0
 10
12.62122333333332
 20
2.311746666666677
 30
0.0
 10
12.62373666666672
 20
2.194486666666683
 30
0.0
 10
12.62373666666672
 20
2.041953333333346
 30
0.0
  0
ENDBLK
  5
77
330
75
100
AcDbEntity
  8
0
100
AcDbBlockEnd
  0
BLOCK
  5
13F
330
13E
100
AcDbEntity
  8
0
100
AcDbBlockBegin
  2
SW_NOTE_0
 70
     0
 10
0.0
 20
0.0
 30
0.0
  3
SW_NOTE_0
  1

  0
MTEXT
  5
141
330
13E
100
AcDbEntity
  8
LAYER1
 62
     0
100
AcDbMText
 10
0.0
 20
1.9336016097
 30
0.0
 40
1.5
 41
0.0
 71
     1
 72
     1
  1
DIMENSIONS ARE IN MILLIMETERS, 
  7
SLDTEXTSTYLE1
 73
     1
 44
1.0
  0
MTEXT
  5
142
330
13E
100
AcDbEntity
  8
LAYER1
 62
     0
100
AcDbMText
 10
0.0
 20
-0.5663983345
 30
0.0
 40
1.5
 41
0.0
 71
     1
 72
     1
  1
DEBUR AND BREAK SHARP EDGES
  7
SLDTEXTSTYLE1
 73
     1
 44
1.0
  0
ENDBLK
  5
140
330
13E
100
AcDbEntity
  8
0
100
AcDbBlockEnd
  0
BLOCK
  5
145
330
144
100
AcDbEntity
  8
0
100
AcDbBlockBegin
  2
SW_NOTE_1
 70
     0
 10
0.0
 20
0.0
 30
0.0
  3
SW_NOTE_1
  1

  0
MTEXT
  5
147
330
144
100
AcDbEntity
  8
LAYER1
 62
     0
100
AcDbMText
 10
0.0
 20
1.3642633579
 30
0.0
 40
1.0583333333
 41
0.0
 71
     1
 72
     1
  1
THE INFORMATION CONTAINED IN THIS DRAWING IS 
  7
SLDTEXTSTYLE2
 73
     1
 44
1.0
  0
MTEXT
  5
148
330
144
100
AcDbEntity
  8
LAYER1
 62
     0
100
AcDbMText
 10
0.0
 20
-0.0468477361
 30
0.0
 40
1.0583333333
 41
0.0
 71
     1
 72
     1
  1
THE SOLE PROPERTY OF ALTINKAYA ENCLOSURES.  
  7
SLDTEXTSTYLE2
 73
     1
 44
1.0
  0
MTEXT
  5
149
330
144
100
AcDbEntity
  8
LAYER1
 62
     0
100
AcDbMText
 10
0.0
 20
-1.4579588302
 30
0.0
 40
1.0583333333
 41
0.0
 71
     1
 72
     1
  1
ANY REPRODUCTION IN PART OR AS A WHOLE 
  7
SLDTEXTSTYLE2
 73
     1
 44
1.0
  0
MTEXT
  5
14A
330
144
100
AcDbEntity
  8
LAYER1
 62
     0
100
AcDbMText
 10
0.0
 20
-2.8690699242
 30
0.0
 40
1.0583333333
 41
0.0
 71
     1
 72
     1
  1
WITHOUT THE WRITTEN PERMISSION OF ALTINKAYA 
  7
SLDTEXTSTYLE2
 73
     1
 44
1.0
  0
MTEXT
  5
14B
330
144
100
AcDbEntity
  8
LAYER1
 62
     0
100
AcDbMText
 10
0.0
 20
-4.2801810183
 30
0.0
 40
1.0583333333
 41
0.0
 71
     1
 72
     1
  1
ENCLOSURES IS PROHIBITED.
  7
SLDTEXTSTYLE2
 73
     1
 44
1.0
  0
ENDBLK
  5
146
330
144
100
AcDbEntity
  8
0
100
AcDbBlockEnd
  0
BLOCK
  5
231
330
230
100
AcDbEntity
  8
0
100
AcDbBlockBegin
  2
*D6
 70
     1
 10
0.0
 20
0.0
 30
0.0
  3
*D6
  1

  0
ARC
  5
233
330
230
100
AcDbEntity
  8
LAYER1
100
AcDbCircle
 10
55.6644104803
 20
154.5807860262
 30
0.0
 40
26.5
100
AcDbArc
 50
140.7239034789
 51
149.9392632074
  0
SOLID
  5
234
330
230
100
AcDbEntity
  8
LAYER1
100
AcDbTrace
 10
34.5326267107
 20
170.5713368207
 30
0.0
 11
32.2060625521
 21
172.9689120992
 31
0.0
 12
31.5929908688
 22
172.1587274837
 32
0.0
 13
31.5929908688
 23
172.1587274837
 33
0.0
  0
LINE
  5
235
330
230
100
AcDbEntity
  8
LAYER1
100
AcDbLine
 10
34.5326267107
 20
170.5713368207
 30
0.0
 11
18.8676656056
 21
182.4251092696
 31
0.0
  0
LINE
  5
236
330
230
100
AcDbEntity
  8
LAYER1
100
AcDbLine
 10
34.5326267107
 20
170.5713368207
 30
0.0
 11
55.6644104803
 21
154.5807860262
 31
0.0
  0
MTEXT
  5
237
330
230
100
AcDbEntity
  8
LAYER1
100
AcDbMText
 10
22.1898060957
 20
184.184523617
 30
0.0
 40
2.6458333333
 41
0.0
 71
     1
 72
     1
  1
R
  7
SLDTEXTSTYLE1
 11
0.797425802628823
 21
-0.6034170111140201
 31
0.0
 73
     1
 44
1.0
  0
MTEXT
  5
238
330
230
100
AcDbEntity
  8
LAYER1
100
AcDbMText
 10
23.8960274422
 20
182.8934154264
 30
0.0
 40
2.6458333333
 41
0.0
 71
     1
 72
     1
  1
13,25
  7
SLDTEXTSTYLE1
 11
0.797425802628823
 21
-0.6034170111140201
 31
0.0
 73
     1
 44
1.0
  0
ENDBLK
  5
232
330
230
100
AcDbEntity
  8
0
100
AcDbBlockEnd
  0
BLOCK
  5
23C
330
23B
100
AcDbEntity
  8
0
100
AcDbBlockBegin
  2
*D7
 70
     1
 10
0.0
 20
0.0
 30
0.0
  3
*D7
  1

  0
SOLID
  5
23E
330
23B
100
AcDbEntity
  8
LAYER1
100
AcDbTrace
 10
90.7329412747
 20
186.6807860262
 30
0.0
 11
90.2249412747
 21
183.3787860262
 31
0.0
 12
91.2409412747
 22
183.3787860262
 32
0.0
 13
91.2409412747
 23
183.3787860262
 33
0.0
  0
SOLID
  5
23F
330
23B
100
AcDbEntity
  8
LAYER1
100
AcDbTrace
 10
90.7329412747
 20
128.0807860262
 30
0.0
 11
91.2409412747
 21
131.3827860262
 31
0.0
 12
90.2249412747
 22
131.3827860262
 32
0.0
 13
90.2249412747
 23
131.3827860262
 33
0.0
  0
LINE
  5
240
330
23B
100
AcDbEntity
  8
LAYER1
100
AcDbLine
 10
67.3644104803
 20
186.6807860262
 30
0.0
 11
91.7329412747
 21
186.6807860262
 31
0.0
  0
LINE
  5
241
330
23B
100
AcDbEntity
  8
LAYER1
100
AcDbLine
 10
56.6644104803
 20
128.0807860262
 30
0.0
 11
91.7329412747
 21
128.0807860262
 31
0.0
  0
LINE
  5
242
330
23B
100
AcDbEntity
  8
LAYER1
100
AcDbLine
 10
90.7329412747
 20
186.6807860262
 30
0.0
 11
90.7329412747
 21
128.0807860262
 31
0.0
  0
MTEXT
  5
243
330
23B
100
AcDbEntity
  8
LAYER1
100
AcDbMText
 10
87.3222829381
 20
153.6340400915
 30
0.0
 40
2.6458333333
 41
0.0
 71
     1
 72
     1
  1
29,30
  7
SLDTEXTSTYLE1
 11
-7.044195017643634E-15
 21
1.0
 31
0.0
 73
     1
 44
1.0
  0
ENDBLK
  5
23D
330
23B
100
AcDbEntity
  8
0
100
AcDbBlockEnd
  0
BLOCK
  5
25E
330
25D
100
AcDbEntity
  8
0
100
AcDbBlockBegin
  2
*D8
 70
     1
 10
0.0
 20
0.0
 30
0.0
  3
*D8
  1

  0
SOLID
  5
260
330
25D
100
AcDbEntity
  8
LAYER1
100
AcDbTrace
 10
183.7626543647
 20
166.7635228518
 30
0.0
 11
184.2706543647
 21
170.0655228518
 31
0.0
 12
183.2546543647
 22
170.0655228518
 32
0.0
 13
183.2546543647
 23
170.0655228518
 33
0.0
  0
SOLID
  5
261
330
25D
100
AcDbEntity
  8
LAYER1
100
AcDbTrace
 10
183.7626543647
 20
148.9635228518
 30
0.0
 11
183.2546543647
 21
145.6615228518
 31
0.0
 12
184.2706543647
 22
145.6615228518
 32
0.0
 13
184.2706543647
 23
145.6615228518
 33
0.0
  0
LINE
  5
262
330
25D
100
AcDbEntity
  8
LAYER1
100
AcDbLine
 10
173.9782138569
 20
166.7635228518
 30
0.0
 11
184.7626543647
 21
166.7635228518
 31
0.0
  0
LINE
  5
263
330
25D
100
AcDbEntity
  8
LAYER1
100
AcDbLine
 10
174.7626543647
 20
148.9635228518
 30
0.0
 11
184.7626543647
 21
148.9635228518
 31
0.0
  0
LINE
  5
264
330
25D
100
AcDbEntity
  8
LAYER1
100
AcDbLine
 10
183.7626543647
 20
166.7635228518
 30
0.0
 11
183.7626543647
 21
173.1135228518
 31
0.0
  0
LINE
  5
265
330
25D
100
AcDbEntity
  8
LAYER1
100
AcDbLine
 10
183.7626543647
 20
166.7635228518
 30
0.0
 11
183.7626543647
 21
148.9635228518
 31
0.0
  0
LINE
  5
266
330
25D
100
AcDbEntity
  8
LAYER1
100
AcDbLine
 10
183.7626543647
 20
148.9635228518
 30
0.0
 11
183.7626543647
 21
142.6135228518
 31
0.0
  0
MTEXT
  5
267
330
25D
100
AcDbEntity
  8
LAYER1
100
AcDbMText
 10
180.351996028
 20
154.4435719785
 30
0.0
 40
2.6458333333
 41
0.0
 71
     1
 72
     1
  1
8,90
  7
SLDTEXTSTYLE1
 11
-7.044195017643634E-15
 21
1.0
 31
0.0
 73
     1
 44
1.0
  0
ENDBLK
  5
25F
330
25D
100
AcDbEntity
  8
0
100
AcDbBlockEnd
  0
BLOCK
  5
26A
330
269
100
AcDbEntity
  8
0
100
AcDbBlockBegin
  2
*D9
 70
     1
 10
0.0
 20
0.0
 30
0.0
  3
*D9
  1

  0
SOLID
  5
26C
330
269
100
AcDbEntity
  8
LAYER1
100
AcDbTrace
 10
195.7626543647
 20
141.3635228518
 30
0.0
 11
196.2706543647
 21
144.6655228518
 31
0.0
 12
195.2546543647
 22
144.6655228518
 32
0.0
 13
195.2546543647
 23
144.6655228518
 33
0.0
  0
SOLID
  5
26D
330
269
100
AcDbEntity
  8
LAYER1
100
AcDbTrace
 10
195.7626543647
 20
166.7635228518
 30
0.0
 11
195.2546543647
 21
163.4615228518
 31
0.0
 12
196.2706543647
 22
163.4615228518
 32
0.0
 13
196.2706543647
 23
163.4615228518
 33
0.0
  0
LINE
  5
26E
330
269
100
AcDbEntity
  8
LAYER1
100
AcDbLine
 10
158.3626543647
 20
141.3635228518
 30
0.0
 11
196.7626543647
 21
141.3635228518
 31
0.0
  0
LINE
  5
26F
330
269
100
AcDbEntity
  8
LAYER1
100
AcDbLine
 10
173.9782138569
 20
166.7635228518
 30
0.0
 11
196.7626543647
 21
166.7635228518
 31
0.0
  0
LINE
  5
270
330
269
100
AcDbEntity
  8
LAYER1
100
AcDbLine
 10
195.7626543647
 20
141.3635228518
 30
0.0
 11
195.7626543647
 21
166.7635228518
 31
0.0
  0
MTEXT
  5
271
330
269
100
AcDbEntity
  8
LAYER1
100
AcDbMText
 10
192.351996028
 20
149.6661090964
 30
0.0
 40
2.6458333333
 41
0.0
 71
     1
 72
     1
  1
12,70
  7
SLDTEXTSTYLE1
 11
6.123233995736766E-17
 21
1.0
 31
0.0
 73
     1
 44
1.0
  0
ENDBLK
  5
26B
330
269
100
AcDbEntity
  8
0
100
AcDbBlockEnd
  0
BLOCK
  5
28C
330
28B
100
AcDbEntity
  8
0
100
AcDbBlockBegin
  2
*D10
 70
     1
 10
0.0
 20
0.0
 30
0.0
  3
*D10
  1

  0
SOLID
  5
28E
330
28B
100
AcDbEntity
  8
LAYER1
100
AcDbTrace
 10
92.1644104803
 20
110.1313182316
 30
0.0
 11
91.6564104803
 21
106.8293182316
 31
0.0
 12
92.6724104803
 22
106.8293182316
 32
0.0
 13
92.6724104803
 23
106.8293182316
 33
0.0
  0
SOLID
  5
28F
330
28B
100
AcDbEntity
  8
LAYER1
100
AcDbTrace
 10
92.1644104803
 20
69.7313182316
 30
0.0
 11
92.6724104803
 21
73.0333182316
 31
0.0
 12
91.6564104803
 22
73.0333182316
 32
0.0
 13
91.6564104803
 23
73.0333182316
 33
0.0
  0
LINE
  5
290
330
28B
100
AcDbEntity
  8
LAYER1
100
AcDbLine
 10
57.5644104803
 20
110.1313182316
 30
0.0
 11
93.1644104803
 21
110.1313182316
 31
0.0
  0
LINE
  5
291
330
28B
100
AcDbEntity
  8
LAYER1
100
AcDbLine
 10
57.5644104803
 20
69.7313182316
 30
0.0
 11
93.1644104803
 21
69.7313182316
 31
0.0
  0
LINE
  5
292
330
28B
100
AcDbEntity
  8
LAYER1
100
AcDbLine
 10
92.1644104803
 20
110.1313182316
 30
0.0
 11
92.1644104803
 21
69.7313182316
 31
0.0
  0
MTEXT
  5
293
330
28B
100
AcDbEntity
  8
LAYER1
100
AcDbMText
 10
88.7537521437
 20
85.5339044762
 30
0.0
 40
2.6458333333
 41
0.0
 71
     1
 72
     1
  1
20,20
  7
SLDTEXTSTYLE1
 11
-1.414962237524464E-14
 21
1.0
 31
0.0
 73
     1
 44
1.0
  0
ENDBLK
  5
28D
330
28B
100
AcDbEntity
  8
0
100
AcDbBlockEnd
  0
BLOCK
  5
296
330
295
100
AcDbEntity
  8
0
100
AcDbBlockBegin
  2
*D11
 70
     1
 10
0.0
 20
0.0
 30
0.0
  3
*D11
  1

  0
SOLID
  5
298
330
295
100
AcDbEntity
  8
LAYER1
100
AcDbTrace
 10
92.1644104803
 20
110.1313182316
 30
0.0
 11
91.6564104803
 21
106.8293182316
 31
0.0
 12
92.6724104803
 22
106.8293182316
 32
0.0
 13
92.6724104803
 23
106.8293182316
 33
0.0
  0
SOLID
  5
299
330
295
100
AcDbEntity
  8
LAYER1
100
AcDbTrace
 10
92.1644104803
 20
111.9313182316
 30
0.0
 11
92.6724104803
 21
115.2333182316
 31
0.0
 12
91.6564104803
 22
115.2333182316
 32
0.0
 13
91.6564104803
 23
115.2333182316
 33
0.0
  0
LINE
  5
29A
330
295
100
AcDbEntity
  8
LAYER1
100
AcDbLine
 10
57.5644104803
 20
110.1313182316
 30
0.0
 11
93.1644104803
 21
110.1313182316
 31
0.0
  0
LINE
  5
29B
330
295
100
AcDbEntity
  8
LAYER1
100
AcDbLine
 10
67.3644104803
 20
111.9313182316
 30
0.0
 11
93.1644104803
 21
111.9313182316
 31
0.0
  0
LINE
  5
29C
330
295
100
AcDbEntity
  8
LAYER1
100
AcDbLine
 10
92.1644104803
 20
110.1313182316
 30
0.0
 11
92.1644104803
 21
103.7813182316
 31
0.0
  0
LINE
  5
29D
330
295
100
AcDbEntity
  8
LAYER1
100
AcDbLine
 10
92.1644104803
 20
110.1313182316
 30
0.0
 11
92.1644104803
 21
111.9313182316
 31
0.0
  0
LINE
  5
29E
330
295
100
AcDbEntity
  8
LAYER1
100
AcDbLine
 10
92.1644104803
 20
111.9313182316
 30
0.0
 11
92.1644104803
 21
124.3769000882
 31
0.0
  0
MTEXT
  5
29F
330
295
100
AcDbEntity
  8
LAYER1
100
AcDbMText
 10
88.7537521437
 20
115.9494983415
 30
0.0
 40
2.6458333333
 41
0.0
 71
     1
 72
     1
  1
0,90
  7
SLDTEXTSTYLE1
 11
-7.044195017643634E-15
 21
1.0
 31
0.0
 73
     1
 44
1.0
  0
ENDBLK
  5
297
330
295
100
AcDbEntity
  8
0
100
AcDbBlockEnd
  0
BLOCK
  5
2A2
330
2A1
100
AcDbEntity
  8
0
100
AcDbBlockBegin
  2
*D12
 70
     1
 10
0.0
 20
0.0
 30
0.0
  3
*D12
  1

  0
SOLID
  5
2A4
330
2A1
100
AcDbEntity
  8
LAYER1
100
AcDbTrace
 10
54.7644104803
 20
98.0991654882
 30
0.0
 11
51.4624104803
 21
98.6071654882
 31
0.0
 12
51.4624104803
 22
97.5911654882
 32
0.0
 13
51.4624104803
 23
97.5911654882
 33
0.0
  0
SOLID
  5
2A5
330
2A1
100
AcDbEntity
  8
LAYER1
100
AcDbTrace
 10
56.5644104803
 20
98.0991654882
 30
0.0
 11
59.8664104803
 21
97.5911654882
 31
0.0
 12
59.8664104803
 22
98.6071654882
 32
0.0
 13
59.8664104803
 23
98.6071654882
 33
0.0
  0
LINE
  5
2A6
330
2A1
100
AcDbEntity
  8
LAYER1
100
AcDbLine
 10
54.7644104803
 20
108.3313182316
 30
0.0
 11
54.7644104803
 21
97.0991654882
 31
0.0
  0
LINE
  5
2A7
330
2A1
100
AcDbEntity
  8
LAYER1
100
AcDbLine
 10
56.5644104803
 20
108.3313182316
 30
0.0
 11
56.5644104803
 21
97.0991654882
 31
0.0
  0
LINE
  5
2A8
330
2A1
100
AcDbEntity
  8
LAYER1
100
AcDbLine
 10
54.7644104803
 20
98.0991654882
 30
0.0
 11
44.0486965141
 21
98.0991654882
 31
0.0
  0
LINE
  5
2A9
330
2A1
100
AcDbEntity
  8
LAYER1
100
AcDbLine
 10
54.7644104803
 20
98.0991654882
 30
0.0
 11
56.5644104803
 21
98.0991654882
 31
0.0
  0
LINE
  5
2AA
330
2A1
100
AcDbEntity
  8
LAYER1
100
AcDbLine
 10
56.5644104803
 20
98.0991654882
 30
0.0
 11
62.9144104803
 21
98.0991654882
 31
0.0
  0
MTEXT
  5
2AB
330
2A1
100
AcDbEntity
  8
LAYER1
100
AcDbMText
 10
45.6361965141
 20
101.5098238248
 30
0.0
 40
2.6458333333
 41
0.0
 71
     1
 72
     1
  1
0,90
  7
SLDTEXTSTYLE1
 73
     1
 44
1.0
  0
ENDBLK
  5
2A3
330
2A1
100
AcDbEntity
  8
0
100
AcDbBlockEnd
  0
BLOCK
  5
2AE
330
2AD
100
AcDbEntity
  8
0
100
AcDbBlockBegin
  2
*D13
 70
     1
 10
0.0
 20
0.0
 30
0.0
  3
*D13
  1

  0
SOLID
  5
2B0
330
2AD
100
AcDbEntity
  8
LAYER1
100
AcDbTrace
 10
52.7035014828
 20
70.5313182316
 30
0.0
 11
53.2115014828
 21
73.8333182316
 31
0.0
 12
52.1955014828
 22
73.8333182316
 32
0.0
 13
52.1955014828
 23
73.8333182316
 33
0.0
  0
SOLID
  5
2B1
330
2AD
100
AcDbEntity
  8
LAYER1
100
AcDbTrace
 10
52.7035014828
 20
69.7313182316
 30
0.0
 11
52.1955014828
 21
66.4293182316
 31
0.0
 12
53.2115014828
 22
66.4293182316
 32
0.0
 13
53.2115014828
 23
66.4293182316
 33
0.0
  0
LINE
  5
2B2
330
2AD
100
AcDbEntity
  8
LAYER1
100
AcDbLine
 10
53.7644104803
 20
70.5313182316
 30
0.0
 11
51.7035014828
 21
70.5313182316
 31
0.0
  0
LINE
  5
2B3
330
2AD
100
AcDbEntity
  8
LAYER1
100
AcDbLine
 10
53.7644104803
 20
69.7313182316
 30
0.0
 11
51.7035014828
 21
69.7313182316
 31
0.0
  0
LINE
  5
2B4
330
2AD
100
AcDbEntity
  8
LAYER1
100
AcDbLine
 10
52.7035014828
 20
70.5313182316
 30
0.0
 11
52.7035014828
 21
86.2858020389
 31
0.0
  0
LINE
  5
2B5
330
2AD
100
AcDbEntity
  8
LAYER1
100
AcDbLine
 10
52.7035014828
 20
70.5313182316
 30
0.0
 11
52.7035014828
 21
69.7313182316
 31
0.0
  0
LINE
  5
2B6
330
2AD
100
AcDbEntity
  8
LAYER1
100
AcDbLine
 10
52.7035014828
 20
69.7313182316
 30
0.0
 11
52.7035014828
 21
63.3813182316
 31
0.0
  0
MTEXT
  5
2B7
330
2AD
100
AcDbEntity
  8
LAYER1
100
AcDbMText
 10
49.2928431462
 20
77.8584002922
 30
0.0
 40
2.6458333333
 41
0.0
 71
     1
 72
     1
  1
0,40
  7
SLDTEXTSTYLE1
 11
-1.414962237524464E-14
 21
1.0
 31
0.0
 73
     1
 44
1.0
  0
ENDBLK
  5
2AF
330
2AD
100
AcDbEntity
  8
0
100
AcDbBlockEnd
  0
BLOCK
  5
2BA
330
2B9
100
AcDbEntity
  8
0
100
AcDbBlockBegin
  2
*D14
 70
     1
 10
0.0
 20
0.0
 30
0.0
  3
*D14
  1

  0
SOLID
  5
2BC
330
2B9
100
AcDbEntity
  8
LAYER1
100
AcDbTrace
 10
44.9644104803
 20
115.1094506279
 30
0.0
 11
41.6624104803
 21
115.6174506279
 31
0.0
 12
41.6624104803
 22
114.6014506279
 32
0.0
 13
41.6624104803
 23
114.6014506279
 33
0.0
  0
SOLID
  5
2BD
330
2B9
100
AcDbEntity
  8
LAYER1
100
AcDbTrace
 10
66.3644104803
 20
115.1094506279
 30
0.0
 11
69.6664104803
 21
114.6014506279
 31
0.0
 12
69.6664104803
 22
115.6174506279
 32
0.0
 13
69.6664104803
 23
115.6174506279
 33
0.0
  0
LINE
  5
2BE
330
2B9
100
AcDbEntity
  8
LAYER1
100
AcDbLine
 10
44.9644104803
 20
112.9313182316
 30
0.0
 11
44.9644104803
 21
116.1094506279
 31
0.0
  0
LINE
  5
2BF
330
2B9
100
AcDbEntity
  8
LAYER1
100
AcDbLine
 10
66.3644104803
 20
112.9313182316
 30
0.0
 11
66.3644104803
 21
116.1094506279
 31
0.0
  0
LINE
  5
2C0
330
2B9
100
AcDbEntity
  8
LAYER1
100
AcDbLine
 10
44.9644104803
 20
115.1094506279
 30
0.0
 11
38.6144104803
 21
115.1094506279
 31
0.0
  0
LINE
  5
2C1
330
2B9
100
AcDbEntity
  8
LAYER1
100
AcDbLine
 10
44.9644104803
 20
115.1094506279
 30
0.0
 11
66.3644104803
 21
115.1094506279
 31
0.0
  0
LINE
  5
2C2
330
2B9
100
AcDbEntity
  8
LAYER1
100
AcDbLine
 10
66.3644104803
 20
115.1094506279
 30
0.0
 11
72.7144104803
 21
115.1094506279
 31
0.0
  0
MTEXT
  5
2C3
330
2B9
100
AcDbEntity
  8
LAYER1
100
AcDbMText
 10
52.3391270162
 20
118.5201089645
 30
0.0
 40
2.6458333333
 41
0.0
 71
     1
 72
     1
  1
10,70
  7
SLDTEXTSTYLE1
 73
     1
 44
1.0
  0
ENDBLK
  5
2BB
330
2B9
100
AcDbEntity
  8
0
100
AcDbBlockEnd
  0
ENDSEC
  0
SECTION
  2
ENTITIES
  0
HATCH
  5
D2
330
1F
100
AcDbEntity
  8
LAYER2
100
AcDbHatch
 10
0.0
 20
0.0
 30
0.0
210
0.0
220
0.0
230
1.0
  2
SOLID
 70
     1
 71
     0
 91
        4
 92
        0
 93
       18
 72
     4
 94
        3
 73
     1
 74
     0
 95
        8
 96
        4
 40
0.9444444444444448
 40
0.9444444444444448
 40
0.9444444444444448
 40
0.9444444444444448
 40
1.0
 40
1.0
 40
1.0
 40
1.0
 10
106.6389386224618
 20
30.05263359261142
 42
1.0
 10
106.3167119557952
 20
30.05263359261142
 42
1.0
 10
106.0538519557951
 20
29.78977359261139
 42
1.0
 10
106.0538519557951
 20
29.46754692594474
 42
1.0
 72
     1
 10
106.0538519557951
 20
29.46754692594474
 11
106.0538519557951
 21
23.03142025927806
 72
     1
 10
106.0538519557951
 20
23.03142025927806
 11
106.7918619557951
 21
23.03142025927806
 72
     4
 94
        3
 73
     1
 74
     0
 95
        8
 96
        4
 40
0.777777777777778
 40
0.777777777777778
 40
0.777777777777778
 40
0.777777777777778
 40
0.8333333333333336
 40
0.8333333333333336
 40
0.8333333333333336
 40
0.8333333333333336
 10
106.7918619557951
 20
23.03142025927806
 42
1.0
 10
106.7751786224618
 20
23.10209692594474
 42
1.0
 10
106.7668586224618
 20
23.17780025927806
 42
1.0
 10
106.7671619557951
 20
23.25866025927807
 42
1.0
 72
     4
 94
        3
 73
     1
 74
     0
 95
        8
 96
        4
 40
0.7222222222222224
 40
0.7222222222222224
 40
0.7222222222222224
 40
0.7222222222222224
 40
0.777777777777778
 40
0.777777777777778
 40
0.777777777777778
 40
0.777777777777778
 10
106.7671619557951
 20
23.25866025927807
 42
1.0
 10
106.7649086224618
 20
23.82299025927808
 42
1.0
 10
107.1865419557951
 20
24.1445235926114
 42
1.0
 10
107.8945219557951
 20
24.1579135926114
 42
1.0
 72
     4
 94
        3
 73
     1
 74
     0
 95
        8
 96
        4
 40
0.6666666666666669
 40
0.6666666666666669
 40
0.6666666666666669
 40
0.6666666666666669
 40
0.7222222222222224
 40
0.7222222222222224
 40
0.7222222222222224
 40
0.7222222222222224
 10
107.8945219557951
 20
24.1579135926114
 42
1.0
 10
108.5149686224618
 20
24.16922359261138
 42
1.0
 10
109.1313852891285
 20
23.82299025927808
 42
1.0
 10
109.2741252891284
 20
23.73732025927807
 42
1.0
 72
     4
 94
        3
 73
     1
 74
     0
 95
        8
 96
        4
 40
0.6111111111111113
 40
0.6111111111111113
 40
0.6111111111111113
 40
0.6111111111111113
 40
0.6666666666666669
 40
0.6666666666666669
 40
0.6666666666666669
 40
0.6666666666666669
 10
109.2741252891284
 20
23.73732025927807
 42
1.0
 10
109.2236852891285
 20
23.58526359261139
 42
1.0
 10
109.1963419557951
 20
23.42285025927806
 42
1.0
 10
109.1963419557951
 20
23.25380692594474
 42
1.0
 72
     4
 94
        3
 73
     1
 74
     0
 95
        8
 96
        4
 40
0.5555555555555557
 40
0.5555555555555557
 40
0.5555555555555557
 40
0.5555555555555557
 40
0.6111111111111113
 40
0.6111111111111113
 40
0.6111111111111113
 40
0.6111111111111113
 10
109.1963419557951
 20
23.25380692594474
 42
1.0
 10
109.1963419557951
 20
23.17823359261141
 42
1.0
 10
109.2017152891285
 20
23.10404692594471
 42
1.0
 10
109.2122886224618
 20
23.03142025927806
 42
1.0
 72
     1
 10
109.2122886224618
 20
23.03142025927806
 11
112.2567586224618
 21
23.03142025927806
 72
     4
 94
        3
 73
     1
 74
     0
 95
        8
 96
        4
 40
0.4444444444444445
 40
0.4444444444444445
 40
0.4444444444444445
 40
0.4444444444444445
 40
0.5000000000000001
 40
0.5000000000000001
 40
0.5000000000000001
 40
0.5000000000000001
 10
112.2567586224618
 20
23.03142025927806
 42
1.0
 10
112.2672886224618
 20
23.10404692594471
 42
1.0
 10
112.2730086224618
 20
23.17823359261141
 42
1.0
 10
112.2730086224618
 20
23.25380692594474
 42
1.0
 72
     4
 94
        3
 73
     1
 74
     0
 95
        8
 96
        4
 40
0.388888888888889
 40
0.388888888888889
 40
0.388888888888889
 40
0.388888888888889
 40
0.4444444444444445
 40
0.4444444444444445
 40
0.4444444444444445
 40
0.4444444444444445
 10
112.2730086224618
 20
23.25380692594474
 42
1.0
 10
112.2730086224618
 20
23.41981692594474
 42
1.0
 10
112.2465319557951
 20
23.57950025927806
 42
1.0
 10
112.1978686224618
 20
23.72921692594473
 42
1.0
 72
     4
 94
        3
 73
     1
 74
     0
 95
        8
 96
        4
 40
0.3333333333333334
 40
0.3333333333333334
 40
0.3333333333333334
 40
0.3333333333333334
 40
0.388888888888889
 40
0.388888888888889
 40
0.388888888888889
 40
0.388888888888889
 10
112.1978686224618
 20
23.72921692594473
 42
1.0
 10
112.3453319557951
 20
23.81740025927805
 42
1.0
 10
112.9580652891284
 20
24.15951692594472
 42
1.0
 10
113.5747419557951
 20
24.14807692594475
 42
1.0
 72
     4
 94
        3
 73
     1
 74
     0
 95
        8
 96
        4
 40
0.2777777777777778
 40
0.2777777777777778
 40
0.2777777777777778
 40
0.2777777777777778
 40
0.3333333333333334
 40
0.3333333333333334
 40
0.3333333333333334
 40
0.3333333333333334
 10
113.5747419557951
 20
24.14807692594475
 42
1.0
 10
114.2827652891284
 20
24.13473025927805
 42
1.0
 10
114.7043552891285
 20
23.81324025927807
 42
1.0
 10
114.7021019557951
 20
23.24891025927807
 42
1.0
 72
     4
 94
        3
 73
     1
 74
     0
 95
        8
 96
        4
 40
0.2222222222222222
 40
0.2222222222222222
 40
0.2222222222222222
 40
0.2222222222222222
 40
0.2777777777777778
 40
0.2777777777777778
 40
0.2777777777777778
 40
0.2777777777777778
 10
114.7021019557951
 20
23.24891025927807
 42
1.0
 10
114.7024486224618
 20
23.17169025927808
 42
1.0
 10
114.6946486224618
 20
23.0993235926114
 42
1.0
 10
114.6793952891285
 20
23.03142025927806
 42
1.0
 72
     1
 10
114.6793952891285
 20
23.03142025927806
 11
115.4155852891284
 21
23.03142025927806
 72
     1
 10
115.4155852891284
 20
23.03142025927806
 11
115.4155852891284
 21
29.46754692594474
 72
     4
 94
        3
 73
     1
 74
     0
 95
        8
 96
        4
 40
0.0555555555555556
 40
0.0555555555555556
 40
0.0555555555555556
 40
0.0555555555555556
 40
0.1111111111111111
 40
0.1111111111111111
 40
0.1111111111111111
 40
0.1111111111111111
 10
115.4155852891284
 20
29.46754692594474
 42
1.0
 10
115.4155852891284
 20
29.78977359261139
 42
1.0
 10
115.1527252891285
 20
30.05263359261142
 42
1.0
 10
114.8304986224618
 20
30.05263359261142
 42
1.0
 72
     1
 10
114.8304986224618
 20
30.05263359261142
 11
106.6389386224618
 21
30.05263359261142
 97
        0
 92
        0
 93
        6
 72
     4
 94
        3
 73
     1
 74
     0
 95
        8
 96
        4
 40
0.6666666666666666
 40
0.6666666666666666
 40
0.6666666666666666
 40
0.6666666666666666
 40
0.8333333333333333
 40
0.8333333333333333
 40
0.8333333333333333
 40
0.8333333333333333
 10
111.2183619557952
 20
24.71440025927806
 42
1.0
 10
111.0662186224618
 20
24.76471025927809
 42
1.0
 10
110.9035452891284
 20
24.79214025927808
 42
1.0
 10
110.7346752891285
 20
24.79214025927808
 42
1.0
 72
     4
 94
        3
 73
     1
 74
     0
 95
        8
 96
        4
 40
0.8333333333333333
 40
0.8333333333333333
 40
0.8333333333333333
 40
0.8333333333333333
 40
1.0
 40
1.0
 40
1.0
 40
1.0
 10
110.7346752891285
 20
24.79214025927808
 42
1.0
 10
110.5687519557951
 20
24.79214025927808
 42
1.0
 10
110.4088952891285
 20
24.7657935926114
 42
1.0
 10
110.2590919557951
 20
24.71708692594473
 42
1.0
 72
     4
 94
        3
 73
     1
 74
     0
 95
        8
 96
        4
 40
0.0
 40
0.0
 40
0.0
 40
0.0
 40
0.1666666666666667
 40
0.1666666666666667
 40
0.1666666666666667
 40
0.1666666666666667
 10
110.2590919557951
 20
24.71708692594473
 42
1.0
 10
110.1709086224618
 20
24.86455025927807
 42
1.0
 10
109.8290086224618
 20
25.47711025927806
 42
1.0
 10
109.8404052891285
 20
26.09396025927806
 42
1.0
 72
     4
 94
        3
 73
     1
 74
     0
 95
        8
 96
        4
 40
0.1666666666666667
 40
0.1666666666666667
 40
0.1666666666666667
 40
0.1666666666666667
 40
0.3333333333333333
 40
0.3333333333333333
 40
0.3333333333333333
 40
0.3333333333333333
 10
109.8404052891285
 20
26.09396025927806
 42
1.0
 10
109.8537519557952
 20
26.80185359261141
 42
1.0
 10
110.1751986224618
 20
27.22353025927806
 42
1.0
 10
110.7395286224618
 20
27.22132025927806
 42
1.0
 72
     4
 94
        3
 73
     1
 74
     0
 95
        8
 96
        4
 40
0.3333333333333333
 40
0.3333333333333333
 40
0.3333333333333333
 40
0.3333333333333333
 40
0.5
 40
0.5
 40
0.5
 40
0.5
 10
110.7395286224618
 20
27.22132025927806
 42
1.0
 10
111.3038586224618
 20
27.22353025927806
 42
1.0
 10
111.6253486224618
 20
26.80185359261141
 42
1.0
 10
111.6386952891284
 20
26.09396025927806
 42
1.0
 72
     4
 94
        3
 73
     1
 74
     0
 95
        8
 96
        4
 40
0.5
 40
0.5
 40
0.5
 40
0.5
 40
0.6666666666666666
 40
0.6666666666666666
 40
0.6666666666666666
 40
0.6666666666666666
 10
111.6386952891284
 20
26.09396025927806
 42
1.0
 10
111.6500486224618
 20
25.47338359261144
 42
1.0
 10
111.3038586224619
 20
24.8569235926114
 42
1.0
 10
111.2183619557952
 20
24.71440025927806
 42
1.0
 97
        0
 92
        0
 93
        5
 72
     4
 94
        3
 73
     1
 74
     0
 95
        8
 96
        4
 40
0.6000000000000001
 40
0.6000000000000001
 40
0.6000000000000001
 40
0.6000000000000001
 40
0.8
 40
0.8
 40
0.8
 40
0.8
 10
109.3665119557952
 20
25.90047692594473
 42
1.0
 10
109.8122819557951
 20
25.47087025927807
 42
1.0
 10
110.0034252891285
 20
24.7920535926114
 42
1.0
 10
110.0443752891285
 20
24.62873025927808
 42
1.0
 72
     4
 94
        3
 73
     1
 74
     0
 95
        8
 96
        4
 40
0.8
 40
0.8
 40
0.8
 40
0.8
 40
1.0
 40
1.0
 40
1.0
 40
1.0
 10
110.0443752891285
 20
24.62873025927808
 42
1.0
 10
109.7515719557952
 20
24.48135359261141
 42
1.0
 10
109.5122419557951
 20
24.24349692594473
 42
1.0
 10
109.3633919557951
 20
23.95169025927806
 42
1.0
 72
     4
 94
        3
 73
     1
 74
     0
 95
        8
 96
        4
 40
0.0
 40
0.0
 40
0.0
 40
0.0
 40
0.2
 40
0.2
 40
0.2
 40
0.2
 10
109.3633919557951
 20
23.95169025927806
 42
1.0
 10
109.1947819557951
 20
23.99420025927805
 42
1.0
 10
108.5219886224618
 20
24.18577692594472
 42
1.0
 10
108.0948519557951
 20
24.62886025927806
 42
1.0
 72
     4
 94
        3
 73
     1
 74
     0
 95
        8
 96
        4
 40
0.2
 40
0.2
 40
0.2
 40
0.2
 40
0.4
 40
0.4
 40
0.4
 40
0.4
 10
108.0948519557951
 20
24.62886025927806
 42
1.0
 10
107.6036252891285
 20
25.13902359261141
 42
1.0
 10
107.5329052891285
 20
25.66439692594473
 42
1.0
 10
107.9334786224618
 20
26.06193692594474
 42
1.0
 72
     4
 94
        3
 73
     1
 74
     0
 95
        8
 96
        4
 40
0.4
 40
0.4
 40
0.4
 40
0.4
 40
0.6000000000000001
 40
0.6000000000000001
 40
0.6000000000000001
 40
0.6000000000000001
 10
107.9334786224618
 20
26.06193692594474
 42
1.0
 10
108.3311486224618
 20
26.46242359261141
 42
1.0
 10
108.8564352891285
 20
26.39170359261141
 42
1.0
 10
109.3665119557952
 20
25.90047692594473
 42
1.0
 97
        0
 92
        0
 93
        5
 72
     4
 94
        3
 73
     1
 74
     0
 95
        8
 96
        4
 40
0.6000000000000001
 40
0.6000000000000001
 40
0.6000000000000001
 40
0.6000000000000001
 40
0.8
 40
0.8
 40
0.8
 40
0.8
 10
113.3813019557952
 20
24.62192692594475
 42
1.0
 10
112.9515652891285
 20
24.17611359261139
 42
1.0
 10
112.2727919557951
 20
23.98492692594474
 42
1.0
 10
112.1095986224618
 20
23.94406359261138
 42
1.0
 72
     4
 94
        3
 73
     1
 74
     0
 95
        8
 96
        4
 40
0.8
 40
0.8
 40
0.8
 40
0.8
 40
1.0
 40
1.0
 40
1.0
 40
1.0
 10
112.1095986224618
 20
23.94406359261138
 42
1.0
 10
111.9622219557951
 20
24.23673692594474
 42
1.0
 10
111.7243652891285
 20
24.47602359261141
 42
1.0
 10
111.4325152891285
 20
24.62487359261142
 42
1.0
 72
     4
 94
        3
 73
     1
 74
     0
 95
        8
 96
        4
 40
0.0
 40
0.0
 40
0.0
 40
0.0
 40
0.2
 40
0.2
 40
0.2
 40
0.2
 10
111.4325152891285
 20
24.62487359261142
 42
1.0
 10
111.4749386224618
 20
24.79326692594474
 42
1.0
 10
111.6665152891285
 20
25.46636359261142
 42
1.0
 10
112.1096852891285
 20
25.89358692594472
 42
1.0
 72
     4
 94
        3
 73
     1
 74
     0
 95
        8
 96
        4
 40
0.2
 40
0.2
 40
0.2
 40
0.2
 40
0.4
 40
0.4
 40
0.4
 40
0.4
 10
112.1096852891285
 20
25.89358692594472
 42
1.0
 10
112.6197186224617
 20
26.3848135926114
 42
1.0
 10
113.1452219557951
 20
26.45549025927809
 42
1.0
 10
113.5426319557951
 20
26.05491692594474
 42
1.0
 72
     4
 94
        3
 73
     1
 74
     0
 95
        8
 96
        4
 40
0.4
 40
0.4
 40
0.4
 40
0.4
 40
0.6000000000000001
 40
0.6000000000000001
 40
0.6000000000000001
 40
0.6000000000000001
 10
113.5426319557951
 20
26.05491692594474
 42
1.0
 10
113.9432486224618
 20
25.65742025927811
 42
1.0
 10
113.8724419557952
 20
25.13204692594475
 42
1.0
 10
113.3813019557952
 20
24.62192692594475
 42
1.0
 97
        0
 75
     0
 76
     1
 98
        1
 10
0.0
 20
0.0
  0
LINE
  5
D3
330
1F
100
AcDbEntity
  8
LAYER1
100
AcDbLine
 10
144.93993075
 20
9.1944201778
 30
0.0
 11
279.027760569
 21
9.1944201778
 31
0.0
  0
LINE
  5
D4
330
1F
100
AcDbEntity
  8
LAYER1
100
AcDbLine
 10
203.627760569
 20
43.1944201778
 30
0.0
 11
203.627760569
 21
34.9671078045
 31
0.0
  0
LINE
  5
D5
330
1F
100
AcDbEntity
  8
LAYER1
100
AcDbLine
 10
159.4514600495
 20
43.1944201778
 30
0.0
 11
104.827760569
 21
43.1944201778
 31
0.0
  0
LINE
  5
D6
330
1F
100
AcDbEntity
  8
LAYER1
100
AcDbLine
 10
104.827760569
 20
39.3842625921
 30
0.0
 11
144.93993075
 21
39.3842625921
 31
0.0
  0
LINE
  5
D7
330
1F
100
AcDbEntity
  8
LAYER1
100
AcDbLine
 10
287.0
 20
55.0
 30
0.0
 11
292.0
 21
55.0
 31
0.0
  0
LINE
  5
D8
330
1F
100
AcDbEntity
  8
LAYER1
100
AcDbLine
 10
159.4514600495
 20
43.1944201778
 30
0.0
 11
287.0
 21
43.1944201778
 31
0.0
  0
LINE
  5
D9
330
1F
100
AcDbEntity
  8
LAYER1
100
AcDbLine
 10
144.93993075
 20
39.3842625921
 30
0.0
 11
144.93993075
 21
4.9444201778
 31
0.0
  0
LINE
  5
DA
330
1F
100
AcDbEntity
  8
LAYER1
100
AcDbLine
 10
144.93993075
 20
39.3842625921
 30
0.0
 11
144.93993075
 21
43.1944201778
 31
0.0
  0
LINE
  5
DB
330
1F
100
AcDbEntity
  8
LAYER1
100
AcDbLine
 10
117.0477891296
 20
43.1944201778
 30
0.0
 11
117.0477891296
 21
30.8654640731
 31
0.0
  0
LINE
  5
DC
330
1F
100
AcDbEntity
  8
LAYER1
100
AcDbLine
 10
238.7084127725
 20
9.1944201778
 30
0.0
 11
238.7084127725
 21
4.9444201778
 31
0.0
  0
LINE
  5
DD
330
1F
100
AcDbEntity
  8
LAYER1
100
AcDbLine
 10
104.827760569
 20
34.9671078045
 30
0.0
 11
144.93993075
 21
34.9671078045
 31
0.0
  0
LINE
  5
DE
330
1F
100
AcDbEntity
  8
LAYER1
100
AcDbLine
 10
104.827760569
 20
30.8654640731
 30
0.0
 11
144.93993075
 21
30.8654640731
 31
0.0
  0
LINE
  5
DF
330
1F
100
AcDbEntity
  8
LAYER1
100
AcDbLine
 10
134.0866541084
 20
43.1944201778
 30
0.0
 11
134.0866541084
 21
30.8654640731
 31
0.0
  0
LINE
  5
E0
330
1F
100
AcDbEntity
  8
LAYER1
100
AcDbLine
 10
104.827760569
 20
18.8578727172
 30
0.0
 11
144.93993075
 21
18.8578727172
 31
0.0
  0
LINE
  5
E1
330
1F
100
AcDbEntity
  8
LAYER1
100
AcDbLine
 10
144.93993075
 20
34.9671078045
 30
0.0
 11
203.627760569
 21
34.9671078045
 31
0.0
  0
LINE
  5
E2
330
1F
100
AcDbEntity
  8
LAYER1
100
AcDbLine
 10
203.627760569
 20
34.9671078045
 30
0.0
 11
203.627760569
 21
9.1944201778
 31
0.0
  0
LINE
  5
E3
330
1F
100
AcDbEntity
  8
0
  6
Continuous
 62
    22
370
     0
100
AcDbLine
 10
106.6389386225
 20
30.0526335926
 30
0.0
 11
114.8304986225
 21
30.0526335926
 31
0.0
  0
LINE
  5
E4
330
1F
100
AcDbEntity
  8
0
  6
Continuous
 62
    22
370
     0
100
AcDbLine
 10
115.4155852891
 20
29.4675469259
 30
0.0
 11
115.4155852891
 21
23.0314202593
 31
0.0
  0
LINE
  5
E5
330
1F
100
AcDbEntity
  8
LAYER1
100
AcDbLine
 10
203.627760569
 20
21.9444201778
 30
0.0
 11
292.0
 21
21.9444201778
 31
0.0
  0
LINE
  5
E6
330
1F
100
AcDbEntity
  8
LAYER1
100
AcDbLine
 10
188.3903516393
 20
43.1944201778
 30
0.0
 11
188.3903516393
 21
34.9671078045
 31
0.0
  0
LINE
  5
E7
330
1F
100
AcDbEntity
  8
LAYER1
 62
     7
100
AcDbLine
 10
257.9466980212
 20
4.9444201778
 30
0.0
 11
257.9466980212
 21
9.1944201778
 31
0.0
  0
LINE
  5
E8
330
1F
100
AcDbEntity
  8
LAYER1
100
AcDbLine
 10
104.827760569
 20
43.1944201778
 30
0.0
 11
104.827760569
 21
7.3739673469
 31
0.0
  0
LINE
  5
E9
330
1F
100
AcDbEntity
  8
0
  6
Continuous
 62
    22
370
     0
100
AcDbLine
 10
115.4155852891
 20
23.0314202593
 30
0.0
 11
114.6793952891
 21
23.0314202593
 31
0.0
  0
LINE
  5
EA
330
1F
100
AcDbEntity
  8
LAYER1
100
AcDbLine
 10
203.627760569
 20
9.1944201778
 30
0.0
 11
203.627760569
 21
5.0
 31
0.0
  0
LINE
  5
EB
330
1F
100
AcDbEntity
  8
0
  6
Continuous
 62
    22
370
     0
100
AcDbLine
 10
112.2567586225
 20
23.0314202593
 30
0.0
 11
109.2122886225
 21
23.0314202593
 31
0.0
  0
LINE
  5
EC
330
1F
100
AcDbEntity
  8
LAYER1
 62
     7
100
AcDbLine
 10
292.027760569
 20
13.4444201778
 30
0.0
 11
279.027760569
 21
13.4444201778
 31
0.0
  0
LINE
  5
ED
330
1F
100
AcDbEntity
  8
0
  6
Continuous
 62
    22
370
     0
100
AcDbLine
 10
106.7918619558
 20
23.0314202593
 30
0.0
 11
106.0538519558
 21
23.0314202593
 31
0.0
  0
LINE
  5
EE
330
1F
100
AcDbEntity
  8
0
  6
Continuous
 62
    22
370
     0
100
AcDbLine
 10
106.0538519558
 20
23.0314202593
 30
0.0
 11
106.0538519558
 21
29.4675469259
 31
0.0
  0
LINE
  5
EF
330
1F
100
AcDbEntity
  8
LAYER1
100
AcDbLine
 10
292.0
 20
5.0
 30
0.0
 11
292.0
 21
77.25
 31
0.0
  0
LINE
  5
F0
330
1F
100
AcDbEntity
  8
LAYER1
100
AcDbLine
 10
279.027760569
 20
21.9444201778
 30
0.0
 11
279.027760569
 21
4.9444201778
 31
0.0
  0
LINE
  5
F1
330
1F
100
AcDbEntity
  8
LAYER1
100
AcDbLine
 10
98.5
 20
10.0
 30
0.0
 11
104.827760569
 21
10.0
 31
0.0
  0
LINE
  5
F2
330
1F
100
AcDbEntity
  8
LAYER1
100
AcDbLine
 10
104.827760569
 20
7.3739673469
 30
0.0
 11
104.827760569
 21
5.0
 31
0.0
  0
LINE
  5
F3
330
1F
100
AcDbEntity
  8
LAYER1
100
AcDbLine
 10
287.0
 20
200.0
 30
0.0
 11
10.0
 21
200.0
 31
0.0
  0
LINE
  5
F4
330
1F
100
AcDbEntity
  8
LAYER1
100
AcDbLine
 10
292.0
 20
205.0
 30
0.0
 11
5.0
 21
205.0
 31
0.0
  0
LINE
  5
F5
330
1F
100
AcDbEntity
  8
LAYER1
100
AcDbLine
 10
10.0
 20
200.0
 30
0.0
 11
10.0
 21
10.0
 31
0.0
  0
LINE
  5
F6
330
1F
100
AcDbEntity
  8
LAYER1
100
AcDbLine
 10
5.0
 20
205.0
 30
0.0
 11
5.0
 21
5.0
 31
0.0
  0
LINE
  5
F7
330
1F
100
AcDbEntity
  8
LAYER1
100
AcDbLine
 10
10.0
 20
55.0
 30
0.0
 11
5.0
 21
55.0
 31
0.0
  0
LINE
  5
F8
330
1F
100
AcDbEntity
  8
LAYER1
100
AcDbLine
 10
5.0
 20
105.0
 30
0.0
 11
15.0
 21
105.0
 31
0.0
  0
LINE
  5
F9
330
1F
100
AcDbEntity
  8
LAYER1
100
AcDbLine
 10
5.0
 20
5.0
 30
0.0
 11
292.0
 21
5.0
 31
0.0
  0
LINE
  5
FA
330
1F
100
AcDbEntity
  8
LAYER1
100
AcDbLine
 10
10.0
 20
10.0
 30
0.0
 11
98.5
 21
10.0
 31
0.0
  0
LINE
  5
FB
330
1F
100
AcDbEntity
  8
LAYER1
100
AcDbLine
 10
48.5
 20
5.0
 30
0.0
 11
48.5
 21
10.0
 31
0.0
  0
LINE
  5
FC
330
1F
100
AcDbEntity
  8
LAYER1
100
AcDbLine
 10
98.5
 20
10.0
 30
0.0
 11
98.5
 21
5.0
 31
0.0
  0
LINE
  5
FD
330
1F
100
AcDbEntity
  8
LAYER1
100
AcDbLine
 10
10.0
 20
155.0
 30
0.0
 11
5.0
 21
155.0
 31
0.0
  0
LINE
  5
FE
330
1F
100
AcDbEntity
  8
LAYER1
100
AcDbLine
 10
48.5
 20
200.0
 30
0.0
 11
48.5
 21
205.0
 31
0.0
  0
LINE
  5
FF
330
1F
100
AcDbEntity
  8
LAYER1
100
AcDbLine
 10
98.5
 20
205.0
 30
0.0
 11
98.5
 21
200.0
 31
0.0
  0
LINE
  5
100
330
1F
100
AcDbEntity
  8
LAYER1
100
AcDbLine
 10
148.5
 20
205.0
 30
0.0
 11
148.5
 21
195.0
 31
0.0
  0
LINE
  5
101
330
1F
100
AcDbEntity
  8
LAYER1
100
AcDbLine
 10
287.0
 20
43.1944201778
 30
0.0
 11
287.0
 21
200.0
 31
0.0
  0
LINE
  5
102
330
1F
100
AcDbEntity
  8
LAYER1
100
AcDbLine
 10
292.0
 20
77.25
 30
0.0
 11
292.0
 21
205.0
 31
0.0
  0
LINE
  5
103
330
1F
100
AcDbEntity
  8
LAYER1
100
AcDbLine
 10
292.0
 20
105.0
 30
0.0
 11
282.0
 21
105.0
 31
0.0
  0
LINE
  5
104
330
1F
100
AcDbEntity
  8
LAYER1
100
AcDbLine
 10
198.5
 20
205.0
 30
0.0
 11
198.5
 21
200.0
 31
0.0
  0
LINE
  5
105
330
1F
100
AcDbEntity
  8
LAYER1
100
AcDbLine
 10
248.5
 20
200.0
 30
0.0
 11
248.5
 21
205.0
 31
0.0
  0
LINE
  5
106
330
1F
100
AcDbEntity
  8
LAYER1
100
AcDbLine
 10
287.0
 20
155.0
 30
0.0
 11
292.0
 21
155.0
 31
0.0
  0
SPLINE
  5
107
330
1F
100
AcDbEntity
  8
0
  6
Continuous
 62
    22
370
     0
100
AcDbSpline
210
0.0
220
0.0
230
1.0
 70
     8
 71
     3
 72
     8
 73
     4
 74
     0
 42
0.00000001
 43
0.00000001
 40
0.0555555555555556
 40
0.0555555555555556
 40
0.0555555555555556
 40
0.0555555555555556
 40
0.1111111111111111
 40
0.1111111111111111
 40
0.1111111111111111
 40
0.1111111111111111
 10
114.8304986224618
 20
30.05263359261142
 30
0.0
 10
115.1527252891285
 20
30.05263359261142
 30
0.0
 10
115.4155852891284
 20
29.78977359261139
 30
0.0
 10
115.4155852891284
 20
29.46754692594474
 30
0.0
  0
SPLINE
  5
108
330
1F
100
AcDbEntity
  8
0
  6
Continuous
 62
    22
370
     0
100
AcDbSpline
210
0.0
220
0.0
230
1.0
 70
     8
 71
     3
 72
     8
 73
     4
 74
     0
 42
0.00000001
 43
0.00000001
 40
0.2222222222222222
 40
0.2222222222222222
 40
0.2222222222222222
 40
0.2222222222222222
 40
0.2777777777777778
 40
0.2777777777777778
 40
0.2777777777777778
 40
0.2777777777777778
 10
114.6793952891285
 20
23.03142025927806
 30
0.0
 10
114.6946486224618
 20
23.0993235926114
 30
0.0
 10
114.7024486224618
 20
23.17169025927808
 30
0.0
 10
114.7021019557951
 20
23.24891025927807
 30
0.0
  0
SPLINE
  5
109
330
1F
100
AcDbEntity
  8
0
  6
Continuous
 62
    22
370
     0
100
AcDbSpline
210
0.0
220
0.0
230
1.0
 70
     8
 71
     3
 72
     8
 73
     4
 74
     0
 42
0.00000001
 43
0.00000001
 40
0.2777777777777778
 40
0.2777777777777778
 40
0.2777777777777778
 40
0.2777777777777778
 40
0.3333333333333334
 40
0.3333333333333334
 40
0.3333333333333334
 40
0.3333333333333334
 10
114.7021019557951
 20
23.24891025927807
 30
0.0
 10
114.7043552891285
 20
23.81324025927807
 30
0.0
 10
114.2827652891284
 20
24.13473025927805
 30
0.0
 10
113.5747419557951
 20
24.14807692594475
 30
0.0
  0
SPLINE
  5
10A
330
1F
100
AcDbEntity
  8
0
  6
Continuous
 62
    22
370
     0
100
AcDbSpline
210
0.0
220
0.0
230
1.0
 70
     8
 71
     3
 72
     8
 73
     4
 74
     0
 42
0.00000001
 43
0.00000001
 40
0.3333333333333334
 40
0.3333333333333334
 40
0.3333333333333334
 40
0.3333333333333334
 40
0.388888888888889
 40
0.388888888888889
 40
0.388888888888889
 40
0.388888888888889
 10
113.5747419557951
 20
24.14807692594475
 30
0.0
 10
112.9580652891284
 20
24.15951692594472
 30
0.0
 10
112.3453319557951
 20
23.81740025927805
 30
0.0
 10
112.1978686224618
 20
23.72921692594473
 30
0.0
  0
SPLINE
  5
10B
330
1F
100
AcDbEntity
  8
0
  6
Continuous
 62
    22
370
     0
100
AcDbSpline
210
0.0
220
0.0
230
1.0
 70
     8
 71
     3
 72
     8
 73
     4
 74
     0
 42
0.00000001
 43
0.00000001
 40
0.388888888888889
 40
0.388888888888889
 40
0.388888888888889
 40
0.388888888888889
 40
0.4444444444444445
 40
0.4444444444444445
 40
0.4444444444444445
 40
0.4444444444444445
 10
112.1978686224618
 20
23.72921692594473
 30
0.0
 10
112.2465319557951
 20
23.57950025927806
 30
0.0
 10
112.2730086224618
 20
23.41981692594474
 30
0.0
 10
112.2730086224618
 20
23.25380692594474
 30
0.0
  0
SPLINE
  5
10C
330
1F
100
AcDbEntity
  8
0
  6
Continuous
 62
    22
370
     0
100
AcDbSpline
210
0.0
220
0.0
230
1.0
 70
     8
 71
     3
 72
     8
 73
     4
 74
     0
 42
0.00000001
 43
0.00000001
 40
0.4444444444444445
 40
0.4444444444444445
 40
0.4444444444444445
 40
0.4444444444444445
 40
0.5000000000000001
 40
0.5000000000000001
 40
0.5000000000000001
 40
0.5000000000000001
 10
112.2730086224618
 20
23.25380692594474
 30
0.0
 10
112.2730086224618
 20
23.17823359261141
 30
0.0
 10
112.2672886224618
 20
23.10404692594471
 30
0.0
 10
112.2567586224618
 20
23.03142025927806
 30
0.0
  0
SPLINE
  5
10D
330
1F
100
AcDbEntity
  8
0
  6
Continuous
 62
    22
370
     0
100
AcDbSpline
210
0.0
220
0.0
230
1.0
 70
     8
 71
     3
 72
     8
 73
     4
 74
     0
 42
0.00000001
 43
0.00000001
 40
0.5555555555555557
 40
0.5555555555555557
 40
0.5555555555555557
 40
0.5555555555555557
 40
0.6111111111111113
 40
0.6111111111111113
 40
0.6111111111111113
 40
0.6111111111111113
 10
109.2122886224618
 20
23.03142025927806
 30
0.0
 10
109.2017152891285
 20
23.10404692594471
 30
0.0
 10
109.1963419557951
 20
23.17823359261141
 30
0.0
 10
109.1963419557951
 20
23.25380692594474
 30
0.0
  0
SPLINE
  5
10E
330
1F
100
AcDbEntity
  8
0
  6
Continuous
 62
    22
370
     0
100
AcDbSpline
210
0.0
220
0.0
230
1.0
 70
     8
 71
     3
 72
     8
 73
     4
 74
     0
 42
0.00000001
 43
0.00000001
 40
0.6111111111111113
 40
0.6111111111111113
 40
0.6111111111111113
 40
0.6111111111111113
 40
0.6666666666666669
 40
0.6666666666666669
 40
0.6666666666666669
 40
0.6666666666666669
 10
109.1963419557951
 20
23.25380692594474
 30
0.0
 10
109.1963419557951
 20
23.42285025927806
 30
0.0
 10
109.2236852891285
 20
23.58526359261139
 30
0.0
 10
109.2741252891284
 20
23.73732025927807
 30
0.0
  0
SPLINE
  5
10F
330
1F
100
AcDbEntity
  8
0
  6
Continuous
 62
    22
370
     0
100
AcDbSpline
210
0.0
220
0.0
230
1.0
 70
     8
 71
     3
 72
     8
 73
     4
 74
     0
 42
0.00000001
 43
0.00000001
 40
0.6666666666666669
 40
0.6666666666666669
 40
0.6666666666666669
 40
0.6666666666666669
 40
0.7222222222222224
 40
0.7222222222222224
 40
0.7222222222222224
 40
0.7222222222222224
 10
109.2741252891284
 20
23.73732025927807
 30
0.0
 10
109.1313852891285
 20
23.82299025927808
 30
0.0
 10
108.5149686224618
 20
24.16922359261138
 30
0.0
 10
107.8945219557951
 20
24.1579135926114
 30
0.0
  0
SPLINE
  5
110
330
1F
100
AcDbEntity
  8
0
  6
Continuous
 62
    22
370
     0
100
AcDbSpline
210
0.0
220
0.0
230
1.0
 70
     8
 71
     3
 72
     8
 73
     4
 74
     0
 42
0.00000001
 43
0.00000001
 40
0.7222222222222224
 40
0.7222222222222224
 40
0.7222222222222224
 40
0.7222222222222224
 40
0.777777777777778
 40
0.777777777777778
 40
0.777777777777778
 40
0.777777777777778
 10
107.8945219557951
 20
24.1579135926114
 30
0.0
 10
107.1865419557951
 20
24.1445235926114
 30
0.0
 10
106.7649086224618
 20
23.82299025927808
 30
0.0
 10
106.7671619557951
 20
23.25866025927807
 30
0.0
  0
SPLINE
  5
111
330
1F
100
AcDbEntity
  8
0
  6
Continuous
 62
    22
370
     0
100
AcDbSpline
210
0.0
220
0.0
230
1.0
 70
     8
 71
     3
 72
     8
 73
     4
 74
     0
 42
0.00000001
 43
0.00000001
 40
0.777777777777778
 40
0.777777777777778
 40
0.777777777777778
 40
0.777777777777778
 40
0.8333333333333336
 40
0.8333333333333336
 40
0.8333333333333336
 40
0.8333333333333336
 10
106.7671619557951
 20
23.25866025927807
 30
0.0
 10
106.7668586224618
 20
23.17780025927806
 30
0.0
 10
106.7751786224618
 20
23.10209692594474
 30
0.0
 10
106.7918619557951
 20
23.03142025927806
 30
0.0
  0
SPLINE
  5
112
330
1F
100
AcDbEntity
  8
0
  6
Continuous
 62
    22
370
     0
100
AcDbSpline
210
0.0
220
0.0
230
1.0
 70
     8
 71
     3
 72
     8
 73
     4
 74
     0
 42
0.00000001
 43
0.00000001
 40
0.9444444444444448
 40
0.9444444444444448
 40
0.9444444444444448
 40
0.9444444444444448
 40
1.0
 40
1.0
 40
1.0
 40
1.0
 10
106.0538519557951
 20
29.46754692594474
 30
0.0
 10
106.0538519557951
 20
29.78977359261139
 30
0.0
 10
106.3167119557952
 20
30.05263359261142
 30
0.0
 10
106.6389386224618
 20
30.05263359261142
 30
0.0
  0
SPLINE
  5
113
330
1F
100
AcDbEntity
  8
0
  6
Continuous
 62
    22
370
     0
100
AcDbSpline
210
0.0
220
0.0
230
1.0
 70
     8
 71
     3
 72
     8
 73
     4
 74
     0
 42
0.00000001
 43
0.00000001
 40
0.0
 40
0.0
 40
0.0
 40
0.0
 40
0.2
 40
0.2
 40
0.2
 40
0.2
 10
109.3633919557951
 20
23.95169025927806
 30
0.0
 10
109.1947819557951
 20
23.99420025927805
 30
0.0
 10
108.5219886224618
 20
24.18577692594472
 30
0.0
 10
108.0948519557951
 20
24.62886025927806
 30
0.0
  0
SPLINE
  5
114
330
1F
100
AcDbEntity
  8
0
  6
Continuous
 62
    22
370
     0
100
AcDbSpline
210
0.0
220
0.0
230
1.0
 70
     8
 71
     3
 72
     8
 73
     4
 74
     0
 42
0.00000001
 43
0.00000001
 40
0.2
 40
0.2
 40
0.2
 40
0.2
 40
0.4
 40
0.4
 40
0.4
 40
0.4
 10
108.0948519557951
 20
24.62886025927806
 30
0.0
 10
107.6036252891285
 20
25.13902359261141
 30
0.0
 10
107.5329052891285
 20
25.66439692594473
 30
0.0
 10
107.9334786224618
 20
26.06193692594474
 30
0.0
  0
SPLINE
  5
115
330
1F
100
AcDbEntity
  8
0
  6
Continuous
 62
    22
370
     0
100
AcDbSpline
210
0.0
220
0.0
230
1.0
 70
     8
 71
     3
 72
     8
 73
     4
 74
     0
 42
0.00000001
 43
0.00000001
 40
0.4
 40
0.4
 40
0.4
 40
0.4
 40
0.6000000000000001
 40
0.6000000000000001
 40
0.6000000000000001
 40
0.6000000000000001
 10
107.9334786224618
 20
26.06193692594474
 30
0.0
 10
108.3311486224618
 20
26.46242359261141
 30
0.0
 10
108.8564352891285
 20
26.39170359261141
 30
0.0
 10
109.3665119557952
 20
25.90047692594473
 30
0.0
  0
SPLINE
  5
116
330
1F
100
AcDbEntity
  8
0
  6
Continuous
 62
    22
370
     0
100
AcDbSpline
210
0.0
220
0.0
230
1.0
 70
     8
 71
     3
 72
     8
 73
     4
 74
     0
 42
0.00000001
 43
0.00000001
 40
0.6000000000000001
 40
0.6000000000000001
 40
0.6000000000000001
 40
0.6000000000000001
 40
0.8
 40
0.8
 40
0.8
 40
0.8
 10
109.3665119557952
 20
25.90047692594473
 30
0.0
 10
109.8122819557951
 20
25.47087025927807
 30
0.0
 10
110.0034252891285
 20
24.7920535926114
 30
0.0
 10
110.0443752891285
 20
24.62873025927808
 30
0.0
  0
SPLINE
  5
117
330
1F
100
AcDbEntity
  8
0
  6
Continuous
 62
    22
370
     0
100
AcDbSpline
210
0.0
220
0.0
230
1.0
 70
     8
 71
     3
 72
     8
 73
     4
 74
     0
 42
0.00000001
 43
0.00000001
 40
0.8
 40
0.8
 40
0.8
 40
0.8
 40
1.0
 40
1.0
 40
1.0
 40
1.0
 10
110.0443752891285
 20
24.62873025927808
 30
0.0
 10
109.7515719557952
 20
24.48135359261141
 30
0.0
 10
109.5122419557951
 20
24.24349692594473
 30
0.0
 10
109.3633919557951
 20
23.95169025927806
 30
0.0
  0
SPLINE
  5
118
330
1F
100
AcDbEntity
  8
0
  6
Continuous
 62
    22
370
     0
100
AcDbSpline
210
0.0
220
0.0
230
1.0
 70
     8
 71
     3
 72
     8
 73
     4
 74
     0
 42
0.00000001
 43
0.00000001
 40
0.0
 40
0.0
 40
0.0
 40
0.0
 40
0.1666666666666667
 40
0.1666666666666667
 40
0.1666666666666667
 40
0.1666666666666667
 10
110.2590919557951
 20
24.71708692594473
 30
0.0
 10
110.1709086224618
 20
24.86455025927807
 30
0.0
 10
109.8290086224618
 20
25.47711025927806
 30
0.0
 10
109.8404052891285
 20
26.09396025927806
 30
0.0
  0
SPLINE
  5
119
330
1F
100
AcDbEntity
  8
0
  6
Continuous
 62
    22
370
     0
100
AcDbSpline
210
0.0
220
0.0
230
1.0
 70
     8
 71
     3
 72
     8
 73
     4
 74
     0
 42
0.00000001
 43
0.00000001
 40
0.1666666666666667
 40
0.1666666666666667
 40
0.1666666666666667
 40
0.1666666666666667
 40
0.3333333333333333
 40
0.3333333333333333
 40
0.3333333333333333
 40
0.3333333333333333
 10
109.8404052891285
 20
26.09396025927806
 30
0.0
 10
109.8537519557952
 20
26.80185359261141
 30
0.0
 10
110.1751986224618
 20
27.22353025927806
 30
0.0
 10
110.7395286224618
 20
27.22132025927806
 30
0.0
  0
SPLINE
  5
11A
330
1F
100
AcDbEntity
  8
0
  6
Continuous
 62
    22
370
     0
100
AcDbSpline
210
0.0
220
0.0
230
1.0
 70
     8
 71
     3
 72
     8
 73
     4
 74
     0
 42
0.00000001
 43
0.00000001
 40
0.3333333333333333
 40
0.3333333333333333
 40
0.3333333333333333
 40
0.3333333333333333
 40
0.5
 40
0.5
 40
0.5
 40
0.5
 10
110.7395286224618
 20
27.22132025927806
 30
0.0
 10
111.3038586224618
 20
27.22353025927806
 30
0.0
 10
111.6253486224618
 20
26.80185359261141
 30
0.0
 10
111.6386952891284
 20
26.09396025927806
 30
0.0
  0
SPLINE
  5
11B
330
1F
100
AcDbEntity
  8
0
  6
Continuous
 62
    22
370
     0
100
AcDbSpline
210
0.0
220
0.0
230
1.0
 70
     8
 71
     3
 72
     8
 73
     4
 74
     0
 42
0.00000001
 43
0.00000001
 40
0.5
 40
0.5
 40
0.5
 40
0.5
 40
0.6666666666666666
 40
0.6666666666666666
 40
0.6666666666666666
 40
0.6666666666666666
 10
111.6386952891284
 20
26.09396025927806
 30
0.0
 10
111.6500486224618
 20
25.47338359261144
 30
0.0
 10
111.3038586224619
 20
24.8569235926114
 30
0.0
 10
111.2183619557952
 20
24.71440025927806
 30
0.0
  0
SPLINE
  5
11C
330
1F
100
AcDbEntity
  8
0
  6
Continuous
 62
    22
370
     0
100
AcDbSpline
210
0.0
220
0.0
230
1.0
 70
     8
 71
     3
 72
     8
 73
     4
 74
     0
 42
0.00000001
 43
0.00000001
 40
0.6666666666666666
 40
0.6666666666666666
 40
0.6666666666666666
 40
0.6666666666666666
 40
0.8333333333333333
 40
0.8333333333333333
 40
0.8333333333333333
 40
0.8333333333333333
 10
111.2183619557952
 20
24.71440025927806
 30
0.0
 10
111.0662186224618
 20
24.76471025927809
 30
0.0
 10
110.9035452891284
 20
24.79214025927808
 30
0.0
 10
110.7346752891285
 20
24.79214025927808
 30
0.0
  0
SPLINE
  5
11D
330
1F
100
AcDbEntity
  8
0
  6
Continuous
 62
    22
370
     0
100
AcDbSpline
210
0.0
220
0.0
230
1.0
 70
     8
 71
     3
 72
     8
 73
     4
 74
     0
 42
0.00000001
 43
0.00000001
 40
0.8333333333333333
 40
0.8333333333333333
 40
0.8333333333333333
 40
0.8333333333333333
 40
1.0
 40
1.0
 40
1.0
 40
1.0
 10
110.7346752891285
 20
24.79214025927808
 30
0.0
 10
110.5687519557951
 20
24.79214025927808
 30
0.0
 10
110.4088952891285
 20
24.7657935926114
 30
0.0
 10
110.2590919557951
 20
24.71708692594473
 30
0.0
  0
SPLINE
  5
11E
330
1F
100
AcDbEntity
  8
0
  6
Continuous
 62
    22
370
     0
100
AcDbSpline
210
0.0
220
0.0
230
1.0
 70
     8
 71
     3
 72
     8
 73
     4
 74
     0
 42
0.00000001
 43
0.00000001
 40
0.0
 40
0.0
 40
0.0
 40
0.0
 40
0.2
 40
0.2
 40
0.2
 40
0.2
 10
111.4325152891285
 20
24.62487359261142
 30
0.0
 10
111.4749386224618
 20
24.79326692594474
 30
0.0
 10
111.6665152891285
 20
25.46636359261142
 30
0.0
 10
112.1096852891285
 20
25.89358692594472
 30
0.0
  0
SPLINE
  5
11F
330
1F
100
AcDbEntity
  8
0
  6
Continuous
 62
    22
370
     0
100
AcDbSpline
210
0.0
220
0.0
230
1.0
 70
     8
 71
     3
 72
     8
 73
     4
 74
     0
 42
0.00000001
 43
0.00000001
 40
0.2
 40
0.2
 40
0.2
 40
0.2
 40
0.4
 40
0.4
 40
0.4
 40
0.4
 10
112.1096852891285
 20
25.89358692594472
 30
0.0
 10
112.6197186224617
 20
26.3848135926114
 30
0.0
 10
113.1452219557951
 20
26.45549025927809
 30
0.0
 10
113.5426319557951
 20
26.05491692594474
 30
0.0
  0
SPLINE
  5
120
330
1F
100
AcDbEntity
  8
0
  6
Continuous
 62
    22
370
     0
100
AcDbSpline
210
0.0
220
0.0
230
1.0
 70
     8
 71
     3
 72
     8
 73
     4
 74
     0
 42
0.00000001
 43
0.00000001
 40
0.4
 40
0.4
 40
0.4
 40
0.4
 40
0.6000000000000001
 40
0.6000000000000001
 40
0.6000000000000001
 40
0.6000000000000001
 10
113.5426319557951
 20
26.05491692594474
 30
0.0
 10
113.9432486224618
 20
25.65742025927811
 30
0.0
 10
113.8724419557952
 20
25.13204692594475
 30
0.0
 10
113.3813019557952
 20
24.62192692594475
 30
0.0
  0
SPLINE
  5
121
330
1F
100
AcDbEntity
  8
0
  6
Continuous
 62
    22
370
     0
100
AcDbSpline
210
0.0
220
0.0
230
1.0
 70
     8
 71
     3
 72
     8
 73
     4
 74
     0
 42
0.00000001
 43
0.00000001
 40
0.6000000000000001
 40
0.6000000000000001
 40
0.6000000000000001
 40
0.6000000000000001
 40
0.8
 40
0.8
 40
0.8
 40
0.8
 10
113.3813019557952
 20
24.62192692594475
 30
0.0
 10
112.9515652891285
 20
24.17611359261139
 30
0.0
 10
112.2727919557951
 20
23.98492692594474
 30
0.0
 10
112.1095986224618
 20
23.94406359261138
 30
0.0
  0
SPLINE
  5
122
330
1F
100
AcDbEntity
  8
0
  6
Continuous
 62
    22
370
     0
100
AcDbSpline
210
0.0
220
0.0
230
1.0
 70
     8
 71
     3
 72
     8
 73
     4
 74
     0
 42
0.00000001
 43
0.00000001
 40
0.8
 40
0.8
 40
0.8
 40
0.8
 40
1.0
 40
1.0
 40
1.0
 40
1.0
 10
112.1095986224618
 20
23.94406359261138
 30
0.0
 10
111.9622219557951
 20
24.23673692594474
 30
0.0
 10
111.7243652891285
 20
24.47602359261141
 30
0.0
 10
111.4325152891285
 20
24.62487359261142
 30
0.0
  0
INSERT
  5
123
330
1F
100
AcDbEntity
  8
0
  6
Continuous
 62
     7
100
AcDbBlockReference
  2
Block4
 10
116.3194412195
 20
23.1343453782
 30
0.0
 41
0.8
 42
0.8
 43
0.8
  0
INSERT
  5
124
330
1F
100
AcDbEntity
  8
0
  6
Continuous
 62
     7
100
AcDbBlockReference
  2
Block5
 10
279.2536587988
 20
5.8965588237
 30
0.0
 41
0.8
 42
0.8
 43
0.8
  0
INSERT
  5
125
330
1F
100
AcDbEntity
  8
0
  6
Continuous
 62
     7
100
AcDbBlockReference
  2
Block6
 10
116.5333686225
 20
25.4908902593
 30
0.0
 41
0.9
 42
0.9
 43
0.9
  0
MTEXT
  5
127
330
1F
100
AcDbEntity
  8
0
  6
Continuous
 62
     7
370
     0
100
AcDbMText
 10
6.6666666667
 20
131.1680164036
 30
0.0
 40
1.8520833333
 41
0.0
 71
     1
 72
     1
  1
B
  7
SLDTEXTSTYLE1
 73
     1
 44
1.0
  0
MTEXT
  5
128
330
1F
100
AcDbEntity
  8
0
  6
Continuous
 62
     7
370
     0
100
AcDbMText
 10
6.6666666667
 20
81.1680164036
 30
0.0
 40
1.8520833333
 41
0.0
 71
     1
 72
     1
  1
C
  7
SLDTEXTSTYLE1
 73
     1
 44
1.0
  0
MTEXT
  5
129
330
1F
100
AcDbEntity
  8
0
  6
Continuous
 62
     7
370
     0
100
AcDbMText
 10
6.6666666667
 20
31.1680164036
 30
0.0
 40
1.8520833333
 41
0.0
 71
     1
 72
     1
  1
D
  7
SLDTEXTSTYLE1
 73
     1
 44
1.0
  0
MTEXT
  5
12A
330
1F
100
AcDbEntity
  8
0
  6
Continuous
 62
     7
370
     0
100
AcDbMText
 10
23.0833373333
 20
8.6680164036
 30
0.0
 40
1.8520833333
 41
0.0
 71
     1
 72
     1
  1
1
  7
SLDTEXTSTYLE1
 73
     1
 44
1.0
  0
MTEXT
  5
12B
330
1F
100
AcDbEntity
  8
0
  6
Continuous
 62
     7
370
     0
100
AcDbMText
 10
72.6666706667
 20
8.6680164036
 30
0.0
 40
1.8520833333
 41
0.0
 71
     1
 72
     1
  1
2
  7
SLDTEXTSTYLE1
 73
     1
 44
1.0
  0
MTEXT
  5
12C
330
1F
100
AcDbEntity
  8
0
  6
Continuous
 62
     7
370
     0
100
AcDbMText
 10
6.6666666667
 20
181.1680164036
 30
0.0
 40
1.8520833333
 41
0.0
 71
     1
 72
     1
  1
A
  7
SLDTEXTSTYLE1
 73
     1
 44
1.0
  0
MTEXT
  5
12D
330
1F
100
AcDbEntity
  8
0
  6
Continuous
 62
     7
370
     0
100
AcDbMText
 10
122.6666706667
 20
203.6680164036
 30
0.0
 40
1.8520833333
 41
0.0
 71
     1
 72
     1
  1
3
  7
SLDTEXTSTYLE1
 73
     1
 44
1.0
  0
MTEXT
  5
12E
330
1F
100
AcDbEntity
  8
0
  6
Continuous
 62
     7
370
     0
100
AcDbMText
 10
72.6666706667
 20
203.6680164036
 30
0.0
 40
1.8520833333
 41
0.0
 71
     1
 72
     1
  1
2
  7
SLDTEXTSTYLE1
 73
     1
 44
1.0
  0
MTEXT
  5
12F
330
1F
100
AcDbEntity
  8
0
  6
Continuous
 62
     7
370
     0
100
AcDbMText
 10
23.0833373333
 20
203.6680164036
 30
0.0
 40
1.8520833333
 41
0.0
 71
     1
 72
     1
  1
1
  7
SLDTEXTSTYLE1
 73
     1
 44
1.0
  0
MTEXT
  5
130
330
1F
100
AcDbEntity
  8
0
  6
Continuous
 62
     7
370
     0
100
AcDbMText
 10
172.6666706667
 20
203.6680164036
 30
0.0
 40
1.8520833333
 41
0.0
 71
     1
 72
     1
  1
4
  7
SLDTEXTSTYLE1
 73
     1
 44
1.0
  0
MTEXT
  5
131
330
1F
100
AcDbEntity
  8
0
  6
Continuous
 62
     7
370
     0
100
AcDbMText
 10
288.6666746667
 20
131.1680164036
 30
0.0
 40
1.8520833333
 41
0.0
 71
     1
 72
     1
  1
B
  7
SLDTEXTSTYLE1
 73
     1
 44
1.0
  0
MTEXT
  5
132
330
1F
100
AcDbEntity
  8
0
  6
Continuous
 62
     7
370
     0
100
AcDbMText
 10
288.6666746667
 20
181.1680164036
 30
0.0
 40
1.8520833333
 41
0.0
 71
     1
 72
     1
  1
A
  7
SLDTEXTSTYLE1
 73
     1
 44
1.0
  0
MTEXT
  5
133
330
1F
100
AcDbEntity
  8
0
  6
Continuous
 62
     7
370
     0
100
AcDbMText
 10
222.6666706667
 20
203.6680164036
 30
0.0
 40
1.8520833333
 41
0.0
 71
     1
 72
     1
  1
5
  7
SLDTEXTSTYLE1
 73
     1
 44
1.0
  0
MTEXT
  5
134
330
1F
100
AcDbEntity
  8
0
  6
Continuous
 62
     7
370
     0
100
AcDbMText
 10
272.6666706667
 20
203.6680164036
 30
0.0
 40
1.8520833333
 41
0.0
 71
     1
 72
     1
  1
6
  7
SLDTEXTSTYLE1
 73
     1
 44
1.0
  0
MTEXT
  5
135
330
1F
100
AcDbEntity
  8
0
  6
Continuous
 62
     7
370
     0
100
AcDbMText
 10
288.6926520658
 20
82.1496220514
 30
0.0
 40
1.8520833333
 41
0.0
 71
     1
 72
     1
  1
C
  7
SLDTEXTSTYLE1
 73
     1
 44
1.0
  0
MTEXT
  5
136
330
1F
100
AcDbEntity
  8
LAYER1
100
AcDbMText
 10
233.377942222
 20
19.0009849915
 30
0.0
 40
4.7625
 41
0.0
 71
     1
 72
     1
  1
CH-273
  7
SLDTEXTSTYLE1
 73
     1
 44
1.0
  0
MTEXT
  5
138
330
1F
100
AcDbEntity
  8
LAYER1
100
AcDbMText
 10
204.1111122242
 20
7.3052724009
 30
0.0
 40
1.4986
 41
0.0
 71
     1
 72
     1
  1
WEIGHT: 
  7
SLDTEXTSTYLE2
 73
     1
 44
1.0
  0
MTEXT
  5
139
330
1F
100
AcDbEntity
  8
LAYER1
100
AcDbMText
 10
282.9487454154
 20
19.244864689
 30
0.0
 40
2.9104166667
 41
0.0
 71
     1
 72
     1
  1
A4
  7
SLDTEXTSTYLE1
 73
     1
 44
1.0
  0
MTEXT
  5
13A
330
1F
100
AcDbEntity
  8
LAYER1
100
AcDbMText
 10
259.0569666982
 20
7.3066882395
 30
0.0
 40
1.5
 41
0.0
 71
     1
 72
     1
  1
SHEET 1 OF 1
  7
SLDTEXTSTYLE2
 73
     1
 44
1.0
  0
MTEXT
  5
13B
330
1F
100
AcDbEntity
  8
LAYER1
100
AcDbMText
 10
240.4266345591
 20
7.3066882395
 30
0.0
 40
1.5
 41
0.0
 71
     1
 72
     1
  1
SCALE:2:1
  7
SLDTEXTSTYLE2
 73
     1
 44
1.0
  0
MTEXT
  5
13C
330
1F
100
AcDbEntity
  8
LAYER1
100
AcDbMText
 10
204.9017266865
 20
19.8130580631
 30
0.0
 40
1.5
 41
0.0
 71
     1
 72
     1
  1
DWG NO.
  7
SLDTEXTSTYLE2
 73
     1
 44
1.0
  0
MTEXT
  5
13D
330
1F
100
AcDbEntity
  8
LAYER1
100
AcDbMText
 10
204.7839475057
 20
41.222754522
 30
0.0
 40
1.5
 41
0.0
 71
     1
 72
     1
  1
TITLE:
  7
SLDTEXTSTYLE2
 73
     1
 44
1.0
  0
INSERT
  5
143
330
1F
100
AcDbEntity
  8
LAYER1
100
AcDbBlockReference
  2
SW_NOTE_0
 10
146.5177782528
 20
28.1902758324
 30
0.0
  0
INSERT
  5
14C
330
1F
100
AcDbEntity
  8
LAYER1
100
AcDbBlockReference
  2
SW_NOTE_1
 10
105.5829111647
 20
12.5619387791
 30
0.0
  0
MTEXT
  5
14D
330
1F
100
AcDbEntity
  8
LAYER1
100
AcDbMText
 10
105.5829111647
 20
16.7617186014
 30
0.0
 40
1.3229166667
 41
0.0
 71
     1
 72
     1
  1
PROPRIETARY AND CONFIDENTIAL
  7
SLDTEXTSTYLE2
 73
     1
 44
1.0
  0
MTEXT
  5
14F
330
1F
100
AcDbEntity
  8
LAYER1
100
AcDbMText
 10
121.3116961464
 20
33.5247984344
 30
0.0
 40
1.3229166667
 41
0.0
 71
     1
 72
     1
  1
Ali Altýnýþýk
  7
SLDTEXTSTYLE3
 73
     1
 44
1.0
  0
MTEXT
  5
150
330
1F
100
AcDbEntity
  8
LAYER1
100
AcDbMText
 10
120.7884485914
 20
37.8374972708
 30
0.0
 40
1.3229166667
 41
0.0
 71
     1
 72
     1
  1
Dursun CAN
  7
SLDTEXTSTYLE2
 73
     1
 44
1.0
  0
MTEXT
  5
151
330
1F
100
AcDbEntity
  8
LAYER1
100
AcDbMText
 10
146.5177782528
 20
33.2258402621
 30
0.0
 40
1.3229166667
 41
0.0
 71
     1
 72
     1
  1
COMMENTS:
  7
SLDTEXTSTYLE2
 73
     1
 44
1.0
  0
MTEXT
  5
152
330
1F
100
AcDbEntity
  8
LAYER1
100
AcDbMText
 10
106.0364153
 20
33.2258402621
 30
0.0
 40
1.3229166667
 41
0.0
 71
     1
 72
     1
  1
CHECKED
  7
SLDTEXTSTYLE2
 73
     1
 44
1.0
  0
MTEXT
  5
153
330
1F
100
AcDbEntity
  8
LAYER1
100
AcDbMText
 10
105.9362159113
 20
37.8456973859
 30
0.0
 40
1.3229166667
 41
0.0
 71
     1
 72
     1
  1
DRAWN
  7
SLDTEXTSTYLE2
 73
     1
 44
1.0
  0
MTEXT
  5
154
330
1F
100
AcDbEntity
  8
LAYER1
100
AcDbMText
 10
136.6465311657
 20
42.1427800177
 30
0.0
 40
1.3229166667
 41
0.0
 71
     1
 72
     1
  1
DATE
  7
SLDTEXTSTYLE2
 73
     1
 44
1.0
  0
MTEXT
  5
155
330
1F
100
AcDbEntity
  8
LAYER1
100
AcDbMText
 10
123.0685794585
 20
42.1427800177
 30
0.0
 40
1.3229166667
 41
0.0
 71
     1
 72
     1
  1
NAME
  7
SLDTEXTSTYLE2
 73
     1
 44
1.0
  0
MTEXT
  5
156
330
1F
100
AcDbEntity
  8
LAYER1
100
AcDbMText
 10
146.3691028483
 20
42.1427800177
 30
0.0
 40
1.3229166667
 41
0.0
 71
     1
 72
     1
  1
ARTICLE NO:
  7
SLDTEXTSTYLE2
 73
     1
 44
1.0
  0
MTEXT
  5
157
330
1F
100
AcDbEntity
  8
LAYER1
100
AcDbMText
 10
191.3417721172
 20
41.3105516068
 30
0.0
 40
1.5
 41
0.0
 71
     1
 72
     1
  1
REVISION:
  7
SLDTEXTSTYLE2
 73
     1
 44
1.0
  0
MTEXT
  5
158
330
1F
100
AcDbEntity
  8
0
  6
Continuous
 62
     7
370
     0
100
AcDbMText
 10
105.5829111647
 20
22.1044604161
 30
0.0
 40
2.38125
 41
0.0
 71
     1
 72
     1
  1
www.altinkaya.com.tr
  7
SLDTEXTSTYLE0
 73
     1
 44
1.0
  0
MTEXT
  5
159
330
1F
100
AcDbEntity
  8
LAYER1
100
AcDbMText
 10
145.8832883612
 20
8.1846583031
 30
0.0
 40
2.38125
 41
0.0
 71
     1
 72
     1
  1
MATERIAL: 
  7
SLDTEXTSTYLE2
 73
     1
 44
1.0
  0
LINE
  5
15A
330
1F
100
AcDbEntity
  8
0
  6
Continuous
 62
     7
370
    15
100
AcDbLine
 10
253.534681613
 20
79.774626223
 30
0.0
 11
253.534681613
 21
92.3353442349
 31
0.0
  0
LINE
  5
15B
330
1F
100
AcDbEntity
  8
0
  6
Continuous
 62
     7
370
    15
100
AcDbLine
 10
200.534681613
 20
94.3090526746
 30
0.0
 11
200.534681613
 21
79.774626223
 31
0.0
  0
LINE
  5
15C
330
1F
100
AcDbEntity
  8
0
  6
Continuous
 62
     7
370
    15
100
AcDbLine
 10
213.3765185136
 20
68.1346980418
 30
0.0
 11
213.3765185136
 21
81.199351032
 31
0.0
  0
ARC
  5
15D
330
1F
100
AcDbEntity
  8
0
  6
Continuous
 62
     7
370
    15
100
AcDbCircle
 10
226.9450527721
 20
121.9139581999
 30
0.0
 40
42.91601517806777
100
AcDbArc
 50
251.5688527003
 51
274.1225671028
  0
ELLIPSE
  5
15E
330
1F
100
AcDbEntity
  8
0
  6
Continuous
 62
     7
370
    15
100
AcDbEllipse
 10
227.034681613
 20
77.2214425137
 30
0.0
 11
26.42648828403136
 21
-19.65755918503903
 31
0.0
210
0.0
220
0.0
230
1.0
 40
0.1003425718
 41
1.346841533493713
 42
1.532014541178691
  0
LWPOLYLINE
  5
15F
330
1F
100
AcDbEntity
  8
0
  6
Continuous
 62
     7
370
    15
100
AcDbPolyline
 90
       22
 70
   128
 43
0.0
 10
252.363149899
 20
85.5646875319
 10
251.9746809855
 20
84.8916756264
 10
251.5325839639
 20
84.2297836294
 10
251.0378094689
 20
83.5804347974
 10
250.4914214066
 20
82.9450254155
 10
249.894594667
 20
82.324921795
 10
249.248612598
 20
81.7214573355
 10
248.5548642449
 20
81.1359296576
 10
247.8148413647
 20
80.5695978126
 10
247.0301352173
 20
80.0236795755
 10
246.2024331447
 20
79.4993488262
 10
245.3335149424
 20
78.9977330252
 10
244.425249032
 20
78.5199107894
 10
243.4795884444
 20
78.0669095729
 10
242.4985666192
 20
77.6397034575
 10
241.4842930331
 20
77.239211058
 10
240.4389486634
 20
76.8662935473
 10
239.3647812985
 20
76.5217528043
 10
238.2641007045
 20
76.2063296899
 10
237.1392736583
 20
75.9207024537
 10
235.9927188588
 20
75.6654852756
 10
234.8269017256
 20
75.4412269453
  0
ELLIPSE
  5
160
330
1F
100
AcDbEntity
  8
0
  6
Continuous
 62
     7
370
    15
100
AcDbEllipse
 10
227.034681613
 20
85.6176158338
 30
0.0
 11
24.17182733276966
 21
15.1511526351577
 31
0.0
210
0.0
220
0.0
230
1.0
 40
0.7168779177
 41
5.562417656276763
 42
6.230635220540899
  0
LWPOLYLINE
  5
161
330
1F
100
AcDbEntity
  8
0
  6
Continuous
 62
     7
370
    15
100
AcDbPolyline
 90
       70
 70
   128
 43
0.0
 10
200.534681613
 20
79.774626223
 10
200.5383059707
 20
79.5216201612
 10
200.5874816926
 20
78.8093955799
 10
200.6940725869
 20
78.0992664524
 10
200.8578472516
 20
77.3927744233
 10
201.0784501424
 20
76.6914532415
 10
201.3554023446
 20
75.9968254303
 10
201.6881026129
 20
75.3103989819
 10
202.0758286761
 20
74.6336640841
 10
202.5177388061
 20
73.9680898849
 10
203.0128736442
 20
73.3151213032
 10
203.5601582846
 20
72.6761758918
 10
204.1584046074
 20
72.0526407601
 10
204.8063138583
 20
71.445869563
 10
205.5024794679
 20
70.8571795615
 10
206.2453901055
 20
70.2878487641
 10
207.0334329596
 20
69.7391131512
 10
207.8648972399
 20
69.2121639926
 10
208.7379778909
 20
68.7081452611
 10
209.6507795106
 20
68.2281511491
 10
210.6013204651
 20
67.7732236928
 10
211.5875371912
 20
67.3443505105
 10
212.6072886758
 20
66.9424626585
 10
213.6583611038
 20
66.5684326094
 10
214.7384726644
 20
66.2230723585
 10
215.845278505
 20
65.9071316606
 10
216.976375821
 20
65.6212964027
 10
218.1293090729
 20
65.3661871148
 10
219.3015753166
 20
65.1423576228
 10
220.4906296374
 20
64.9502938462
 10
221.6938906747
 20
64.790412743
 10
222.9087462261
 20
64.6630614049
 10
224.1325589183
 20
64.5685163034
 10
225.3626719324
 20
64.5069826899
 10
226.5964147722
 20
64.4785941499
 10
227.8311090611
 20
64.4834123131
 10
229.0640743571
 20
64.5214267197
 10
230.2926339719
 20
64.5925548426
 10
231.5141207814
 20
64.6966422674
 10
232.7258830161
 20
64.833463027
 10
233.9252900181
 20
65.0027200922
 10
235.1097379518
 20
65.2040460169
 10
236.2766554569
 20
65.4370037353
 10
237.4235092303
 20
65.7010875114
 10
238.5478095262
 20
65.995724036
 10
239.6471155609
 20
66.3202736723
 10
240.7190408115
 20
66.6740318439
 10
241.7612581972
 20
67.0562305644
 10
242.7715051311
 20
67.4660401051
 10
243.7475884318
 20
67.9025707957
 10
244.6873890852
 20
68.364874956
 10
245.5888668445
 20
68.8519489536
 10
246.4500646593
 20
69.362735382
 10
247.2691129245
 20
69.8961253566
 10
248.044233539
 20
70.4509609222
 10
248.7737437656
 20
71.0260375663
 10
249.4560598846
 20
71.6201068345
 10
250.0897006314
 20
72.2318790405
 10
250.6732904126
 20
72.8600260663
 10
251.2055622924
 20
73.5031842448
 10
251.6853607427
 20
74.1599573211
 10
252.1116441519
 20
74.8289194829
 10
252.483487086
 20
75.5086184565
 10
252.8000822979
 20
76.1975786589
 10
253.0607424798
 20
76.8943044018
 10
253.2649017551
 20
77.5972831384
 10
253.4121169072
 20
78.304988747
 10
253.5020683415
 20
79.0158848441
 10
253.5345607791
 20
79.7284281201
 10
253.534681613
 20
79.774626223
  0
ELLIPSE
  5
162
330
1F
100
AcDbEntity
  8
0
  6
Continuous
 62
     7
370
    15
100
AcDbEllipse
 10
227.034681613
 20
85.6176158338
 30
0.0
 11
24.17182733276966
 21
15.1511526351577
 31
0.0
210
0.0
220
0.0
230
1.0
 40
0.7168779177
 41
0.7787256781451034
 42
1.446943242409236
  0
ARC
  5
163
330
1F
100
AcDbEntity
  8
0
  6
Continuous
 62
     7
370
    15
100
AcDbCircle
 10
221.8568013018
 20
79.6582832094
 30
0.0
 40
25.16275056796867
100
AcDbArc
 50
95.9636343454
 51
141.7526210592
  0
ARC
  5
164
330
1F
100
AcDbEntity
  8
0
  6
Continuous
 62
     7
370
    15
100
AcDbCircle
 10
211.0987088599
 20
94.4643112033
 30
0.0
 40
10.51267928133562
100
AcDbArc
 50
171.3886618768
 51
229.8879431632
  0
LINE
  5
165
330
1F
100
AcDbEntity
  8
0
  6
Continuous
 62
     7
370
    15
100
AcDbLine
 10
204.3255517144
 20
73.3597099575
 30
0.0
 11
204.3255517144
 21
86.4243629476
 31
0.0
  0
ARC
  5
166
330
1F
100
AcDbEntity
  8
0
  6
Continuous
 62
     7
370
    15
100
AcDbCircle
 10
220.9728094036
 20
91.7450081029
 30
0.0
 40
24.802225232129
100
AcDbArc
 50
227.8402381146
 51
252.1651384181
  0
ARC
  5
167
330
1F
100
AcDbEntity
  8
0
  6
Continuous
 62
     7
370
    15
100
AcDbCircle
 10
240.5426125967
 20
80.0163307283
 30
0.0
 40
11.46339877382394
100
AcDbArc
 50
29.4571786622
 51
37.6383474912
  0
LINE
  5
168
330
1F
100
AcDbEntity
  8
0
  6
Continuous
 62
     7
370
    15
100
AcDbLine
 10
249.6202614491
 20
99.6501458381
 30
0.0
 11
249.6202614491
 21
87.0167451989
 31
0.0
  0
ELLIPSE
  5
169
330
1F
100
AcDbEntity
  8
0
  6
Continuous
 62
     7
370
    15
100
AcDbEllipse
 10
227.034681613
 20
85.6176158338
 30
0.0
 11
22.52996736299662
 21
14.12201773918471
 31
0.0
210
0.0
220
0.0
230
1.0
 40
0.7168779177
 41
5.601414583712906
 42
6.277658023105187
  0
LWPOLYLINE
  5
16A
330
1F
100
AcDbEntity
  8
0
  6
Continuous
 62
     7
370
    15
100
AcDbPolyline
 90
       22
 70
   128
 43
0.0
 10
250.9079372781
 20
86.4047638964
 10
250.5607116109
 20
85.7193229859
 10
250.1544728982
 20
85.0447779212
 10
249.6902401553
 20
84.3828207412
 10
249.1691778704
 20
83.7351119094
 10
248.5925930841
 20
83.1032761482
 10
247.9619321102
 20
82.4888983638
 10
247.2787769082
 20
81.8935196708
 10
246.5448411147
 20
81.3186335259
 10
245.7619657453
 20
80.765681982
 10
244.9321145763
 20
80.2360520713
 10
244.0573692187
 20
79.7310723252
 10
243.139923897
 20
79.2520094424
 10
242.1820799446
 20
78.8000651116
 10
241.1862400317
 20
78.3763729966
 10
240.154902138
 20
77.981995893
 10
239.0906532869
 20
77.6179230623
 10
237.9961630561
 20
77.2850677501
 10
236.8741768813
 20
76.9842648959
 10
235.7275091694
 20
76.7162690378
 10
234.5590362389
 20
76.4817524208
 10
233.6817677876
 20
76.3300677497
  0
ARC
  5
16B
330
1F
100
AcDbEntity
  8
0
  6
Continuous
 62
     7
370
    15
100
AcDbCircle
 10
226.8948725018
 20
119.8940553184
 30
0.0
 40
39.85043563705812
100
AcDbArc
 50
252.1672726505
 51
272.1132395691
  0
LINE
  5
16C
330
1F
100
AcDbEntity
  8
0
  6
Continuous
 62
     7
370
    15
100
AcDbLine
 10
228.3643424361
 20
80.0707219751
 30
0.0
 11
230.030298022
 21
79.1089862864
 31
0.0
  0
LINE
  5
16D
330
1F
100
AcDbEntity
  8
0
  6
Continuous
 62
     7
370
    15
100
AcDbLine
 10
213.3765185136
 20
81.199351032
 30
0.0
 11
214.6911105044
 21
81.9582488347
 31
0.0
  0
LINE
  5
16E
330
1F
100
AcDbEntity
  8
0
  6
Continuous
 62
     7
370
    15
100
AcDbLine
 10
247.9650423361
 20
93.229270766
 30
0.0
 11
249.6202614491
 21
92.2737331112
 31
0.0
  0
LINE
  5
16F
330
1F
100
AcDbEntity
  8
0
  6
Continuous
 62
     7
370
    15
100
AcDbLine
 10
222.5842657969
 20
81.9408617674
 30
0.0
 11
221.6808207733
 21
81.4193140567
 31
0.0
  0
LINE
  5
170
330
1F
100
AcDbEntity
  8
0
  6
Continuous
 62
     7
370
    15
100
AcDbLine
 10
228.5921554768
 20
79.939208306
 30
0.0
 11
228.8450461227
 21
80.0851989684
 31
0.0
  0
ARC
  5
171
330
1F
100
AcDbEntity
  8
0
  6
Continuous
 62
     7
370
    15
100
AcDbCircle
 10
227.5562088487
 20
57.0045371641
 30
0.0
 40
38.4641545412448
100
AcDbArc
 50
75.7354397828
 51
82.2209789375
  0
ARC
  5
172
330
1F
100
AcDbEntity
  8
0
  6
Continuous
 62
     7
370
    15
100
AcDbCircle
 10
225.3319551038
 20
65.3194074657
 30
0.0
 40
30.24086741458033
100
AcDbArc
 50
86.476914037
 51
132.0453561497
  0
LINE
  5
173
330
1F
100
AcDbEntity
  8
0
  6
Continuous
 62
     7
370
    15
100
AcDbLine
 10
237.9241260432
 20
94.7967743407
 30
0.0
 11
237.0337607439
 21
94.2827773941
 31
0.0
  0
LINE
  5
174
330
1F
100
AcDbEntity
  8
0
  6
Continuous
 62
     7
370
    15
100
AcDbLine
 10
204.3255517144
 20
73.3597099575
 30
0.0
 11
205.6401437052
 21
74.1186077602
 31
0.0
  0
ARC
  5
175
330
1F
100
AcDbEntity
  8
0
  6
Continuous
 62
     7
370
    15
100
AcDbCircle
 10
216.3867877093
 20
84.8590806721
 30
0.0
 40
15.19368670608523
100
AcDbArc
 50
224.9835446732
 51
225.3693028716
  0
LINE
  5
176
330
1F
100
AcDbEntity
  8
0
  6
Continuous
 62
     7
370
    15
100
AcDbLine
 10
205.7126996566
 20
74.0464972636
 30
0.0
 11
208.3024140642
 21
74.920736424
 31
0.0
  0
ARC
  5
177
330
1F
100
AcDbEntity
  8
0
  6
Continuous
 62
     7
370
    15
100
AcDbCircle
 10
214.9731530901
 20
82.0725264806
 30
0.0
 40
9.779921275930146
100
AcDbArc
 50
197.3879652512
 51
226.993200676
  0
LINE
  5
178
330
1F
100
AcDbEntity
  8
0
  6
Continuous
 62
     7
370
    15
100
AcDbLine
 10
237.9241260432
 20
93.0006764947
 30
0.0
 11
238.2580103277
 21
92.8079292
 31
0.0
  0
LINE
  5
179
330
1F
100
AcDbEntity
  8
0
  6
Continuous
 62
     7
370
    15
100
AcDbLine
 10
242.6536498638
 20
90.2703805091
 30
0.0
 11
247.3993569111
 21
87.5307421454
 31
0.0
  0
LINE
  5
17A
330
1F
100
AcDbEntity
  8
0
  6
Continuous
 62
     7
370
    15
100
AcDbLine
 10
247.3993569111
 20
87.5307421454
 30
0.0
 11
247.9650423361
 21
87.8573053902
 31
0.0
  0
LINE
  5
17B
330
1F
100
AcDbEntity
  8
0
  6
Continuous
 62
     7
370
    15
100
AcDbLine
 10
250.9079372781
 20
86.4047638964
 30
0.0
 11
252.363149899
 21
85.5646875319
 31
0.0
  0
LINE
  5
17C
330
1F
100
AcDbEntity
  8
0
  6
Continuous
 62
     7
370
    15
100
AcDbLine
 10
205.6401437052
 20
87.1832607503
 30
0.0
 11
204.3255517144
 21
86.4243629476
 31
0.0
  0
SPLINE
  5
17D
330
1F
100
AcDbEntity
  8
0
  6
Continuous
 62
     7
370
    15
100
AcDbSpline
210
0.0
220
0.0
230
1.0
 70
     8
 71
     3
 72
    11
 73
     7
 74
     0
 42
0.00000001
 43
0.00000001
 40
0.003242691467036
 40
0.003242691467036
 40
0.003242691467036
 40
0.003242691467036
 40
0.0034680676127499
 40
0.0034680676127499
 40
0.0034680676127499
 40
0.0043691035124521
 40
0.0043691035124521
 40
0.0043691035124521
 40
0.0043691035124521
 10
206.3733685167042
 20
85.97346080044771
 30
0.0
 10
206.3244052605253
 20
86.0540756721212
 30
0.0
 10
206.2754548030397
 20
86.13470560839212
 30
0.0
 10
206.2265168088515
 20
86.21535020714201
 30
0.0
 10
206.0308666950413
 20
86.53776074286833
 30
0.0
 10
205.8354155372375
 20
86.86040542341179
 30
0.0
 10
205.6401437051946
 20
87.18326075033849
 30
0.0
  0
LINE
  5
17E
330
1F
100
AcDbEntity
  8
0
  6
Continuous
 62
     7
370
    15
100
AcDbLine
 10
206.3733685167
 20
85.1569199886
 30
0.0
 11
206.3733685167
 21
85.9734608004
 31
0.0
  0
LINE
  5
17F
330
1F
100
AcDbEntity
  8
0
  6
Continuous
 62
     7
370
    15
100
AcDbLine
 10
206.3733685167
 20
85.1569199886
 30
0.0
 11
205.6401437052
 21
84.7336383147
 31
0.0
  0
LINE
  5
180
330
1F
100
AcDbEntity
  8
0
  6
Continuous
 62
     7
370
    15
100
AcDbLine
 10
205.6401437052
 20
74.1186077602
 30
0.0
 11
205.6401437052
 21
84.7336383147
 31
0.0
  0
LINE
  5
181
330
1F
100
AcDbEntity
  8
0
  6
Continuous
 62
     7
370
    15
100
AcDbLine
 10
200.7045414248
 20
96.0383852176
 30
0.0
 11
202.3704970107
 21
95.076649529
 31
0.0
  0
ARC
  5
182
330
1F
100
AcDbEntity
  8
0
  6
Continuous
 62
     7
370
    15
100
AcDbCircle
 10
212.264773973
 20
94.5512353994
 30
0.0
 40
9.908217630561028
100
AcDbArc
 50
176.9602869273
 51
228.0409275382
  0
LWPOLYLINE
  5
183
330
1F
100
AcDbEntity
  8
0
  6
Continuous
 62
     7
370
    15
100
AcDbPolyline
 90
       22
 70
   128
 43
0.0
 10
203.1711242556
 20
93.7423441943
 10
203.508651615
 20
94.4067579197
 10
203.9148903277
 20
95.0813029844
 10
204.3791230707
 20
95.7432601643
 10
204.9001853555
 20
96.3909689961
 10
205.4767701418
 20
97.0228047574
 10
206.1074311157
 20
97.6371825417
 10
206.7905863178
 20
98.2325612348
 10
207.5245221113
 20
98.8074473797
 10
208.3073974806
 20
99.3603989235
 10
209.1372486497
 20
99.8900288343
 10
210.0119940072
 20
100.3950085804
 10
210.9294393289
 20
100.8740714631
 10
211.8872832813
 20
101.3260157939
 10
212.8831231942
 20
101.749707909
 10
213.9144610879
 20
102.1440850126
 10
214.9787099391
 20
102.5081578433
 10
216.0732001699
 20
102.8410131554
 10
217.1951863446
 20
103.1418160097
 10
218.3418540565
 20
103.4098118677
 10
219.5103269871
 20
103.6443284847
 10
220.6976741213
 20
103.8447775957
  0
ELLIPSE
  5
184
330
1F
100
AcDbEntity
  8
0
  6
Continuous
 62
     7
370
    15
100
AcDbEllipse
 10
227.034681613
 20
85.6176158338
 30
0.0
 11
22.52996736299662
 21
14.12201773918471
 31
0.0
210
0.0
220
0.0
230
1.0
 40
0.7168779177
 41
0.731702875580816
 42
1.407946314973094
  0
LINE
  5
185
330
1F
100
AcDbEntity
  8
0
  6
Continuous
 62
     7
370
    15
100
AcDbLine
 10
237.0337607439
 20
106.9161780334
 30
0.0
 11
237.0337607439
 21
103.5684506394
 31
0.0
  0
LINE
  5
186
330
1F
100
AcDbEntity
  8
0
  6
Continuous
 62
     7
370
    15
100
AcDbLine
 10
237.0337607439
 20
100.4888856646
 30
0.0
 11
237.0337607439
 21
94.2827773941
 31
0.0
  0
LINE
  5
187
330
1F
100
AcDbEntity
  8
0
  6
Continuous
 62
     7
370
    15
100
AcDbLine
 10
202.3704970107
 20
95.076649529
 30
0.0
 11
203.3690469946
 21
93.4124911095
 31
0.0
  0
ARC
  5
188
330
1F
100
AcDbEntity
  8
0
  6
Continuous
 62
     7
370
    15
100
AcDbCircle
 10
211.8124161011
 20
92.720083447
 30
0.0
 40
8.471712355871423
100
AcDbArc
 50
175.311887716
 51
209.4562391854
  0
SPLINE
  5
189
330
1F
100
AcDbEntity
  8
0
  6
Continuous
 62
     7
370
    15
100
AcDbSpline
210
0.0
220
0.0
230
1.0
 70
     8
 71
     3
 72
    17
 73
    13
 74
     0
 42
0.00000001
 43
0.00000001
 40
0.0
 40
0.0
 40
0.0
 40
0.0
 40
0.0044576394816611
 40
0.1326962513938293
 40
0.2609191408207744
 40
0.3891559577460691
 40
0.4900001795679359
 40
0.5910043758949743
 40
0.6923002245413857
 40
0.7940672384565739
 40
0.8965376294124632
 40
1.0
 40
1.0
 40
1.0
 40
1.0
 10
232.2742387128325
 20
77.40844417460328
 30
0.0
 10
232.2940616259987
 20
77.42534447099284
 30
0.0
 10
232.8841556162549
 20
77.9284371925032
 30
0.0
 10
234.0091051127587
 20
79.05091443707329
 30
0.0
 10
235.6298562067914
 20
80.77500784081464
 30
0.0
 10
237.0686537104918
 20
82.50602084730336
 30
0.0
 10
238.3359466079206
 20
84.18563672824477
 30
0.0
 10
239.4415694119089
 20
85.79117404838998
 30
0.0
 10
240.48534366013
 20
87.45626514332982
 30
0.0
 10
241.4584716003059
 20
89.1767464877725
 30
0.0
 10
242.3631774445828
 20
90.9462088483153
 30
0.0
 10
242.8913552187981
 20
92.1517159717876
 30
0.0
 10
243.1567162240233
 20
92.7573730018775
 30
0.0
  0
SPLINE
  5
18A
330
1F
100
AcDbEntity
  8
0
  6
Continuous
 62
     7
370
    15
100
AcDbSpline
210
0.0
220
0.0
230
1.0
 70
     8
 71
     3
 72
    19
 73
    15
 74
     0
 42
0.00000001
 43
0.00000001
 40
0.0
 40
0.0
 40
0.0
 40
0.0
 40
0.0420031686872563
 40
0.1400862587433998
 40
0.2382106430196585
 40
0.3363388730005089
 40
0.434455072130254
 40
0.5325819285865309
 40
0.6097479618398669
 40
0.6870364076396309
 40
0.7645480258945794
 40
0.8424201799753928
 40
0.9208305584098854
 40
1.0
 40
1.0
 40
1.0
 40
1.0
 10
214.6993626347941
 20
81.95550808493574
 30
0.0
 10
214.9500026949946
 20
82.11606880789554
 30
0.0
 10
215.7859212559521
 20
82.65156057395835
 30
0.0
 10
217.1931101372608
 20
83.73538635166472
 30
0.0
 10
218.9056120078534
 20
85.18971185479653
 30
0.0
 10
220.576718461671
 20
86.79663617830161
 30
0.0
 10
222.1941137071979
 20
88.53362785972503
 30
0.0
 10
223.6337712029036
 20
90.26133546799015
 30
0.0
 10
224.9008825341348
 20
91.94164920261335
 30
0.0
 10
226.0065500443726
 20
93.5470146933036
 30
0.0
 10
227.0503122640255
 20
95.2121520203103
 30
0.0
 10
228.0234434450919
 20
96.93262090831887
 30
0.0
 10
228.9281484277658
 20
98.70208658045152
 30
0.0
 10
229.4563263179766
 20
99.90759325809267
 30
0.0
 10
229.721687381479
 20
100.5132500641932
 30
0.0
  0
LINE
  5
18B
330
1F
100
AcDbEntity
  8
0
  6
Continuous
 62
     7
370
    15
100
AcDbLine
 10
233.610774678
 20
98.2681277567
 30
0.0
 11
229.7216873815
 21
100.5132500642
 31
0.0
  0
SPLINE
  5
18C
330
1F
100
AcDbEntity
  8
0
  6
Continuous
 62
     7
370
    15
100
AcDbSpline
210
0.0
220
0.0
230
1.0
 70
     8
 71
     3
 72
     8
 73
     4
 74
     0
 42
0.00000001
 43
0.00000001
 40
0.235255749891313
 40
0.235255749891313
 40
0.235255749891313
 40
0.235255749891313
 40
1.0
 40
1.0
 40
1.0
 40
1.0
 10
221.2639868279632
 20
81.65994717130695
 30
0.0
 10
226.2073363631312
 20
85.68336711798499
 30
0.0
 10
230.7898702597285
 20
91.57816456020599
 30
0.0
 10
233.610774678005
 20
98.26812775668078
 30
0.0
  0
LINE
  5
18D
330
1F
100
AcDbEntity
  8
0
  6
Continuous
 62
     7
370
    15
100
AcDbLine
 10
222.1832256435
 20
81.1292818986
 30
0.0
 11
221.263986828
 21
81.6599471713
 31
0.0
  0
LINE
  5
18E
330
1F
100
AcDbEntity
  8
0
  6
Continuous
 62
     7
370
    15
100
AcDbLine
 10
222.1832256435
 20
81.1292818986
 30
0.0
 11
223.8460354349
 21
80.1693622385
 31
0.0
  0
SPLINE
  5
18F
330
1F
100
AcDbEntity
  8
0
  6
Continuous
 62
     7
370
    15
100
AcDbSpline
210
0.0
220
0.0
230
1.0
 70
     8
 71
     3
 72
    16
 73
    12
 74
     0
 42
0.00000001
 43
0.00000001
 40
0.0
 40
0.0
 40
0.0
 40
0.0
 40
0.1079788169995914
 40
0.2149064910475716
 40
0.3210957632499162
 40
0.4267966457554142
 40
0.5322007132969369
 40
0.6374467321755168
 40
0.7613968785376712
 40
0.8853375241119577
 40
1.0
 40
1.0
 40
1.0
 40
1.0
 10
239.2676289274973
 20
95.00249530938996
 30
0.0
 10
238.9961668367505
 20
94.38343291171245
 30
0.0
 10
238.455885261198
 20
93.15133451203397
 30
0.0
 10
237.5281098249069
 20
91.34388941655631
 30
0.0
 10
236.5291178857089
 20
89.58791951091838
 30
0.0
 10
235.4567768767456
 20
87.89009418590405
 30
0.0
 10
234.3202987273978
 20
86.2553916784497
 30
0.0
 10
233.0552300349063
 20
84.59525509390912
 30
0.0
 10
231.6559698970332
 20
82.93370013013799
 30
0.0
 10
230.1644417749988
 20
81.32464281160864
 30
0.0
 10
229.1453092634409
 20
80.36416948114402
 30
0.0
 10
228.6555576779752
 20
79.90260699436448
 30
0.0
  0
LINE
  5
190
330
1F
100
AcDbEntity
  8
0
  6
Continuous
 62
     7
370
    15
100
AcDbLine
 10
243.156716224
 20
92.7573730019
 30
0.0
 11
239.2676289275
 21
95.0024953094
 31
0.0
  0
LINE
  5
191
330
1F
100
AcDbEntity
  8
0
  6
Continuous
 62
     7
370
    15
100
AcDbLine
 10
243.156716224
 20
92.7573730019
 30
0.0
 11
245.2780365676
 21
93.9819851696
 31
0.0
  0
LINE
  5
192
330
1F
100
AcDbEntity
  8
0
  6
Continuous
 62
     7
370
    15
100
AcDbLine
 10
245.2780365676
 20
93.9819851696
 30
0.0
 11
245.2780365676
 21
93.1654443577
 31
0.0
  0
LINE
  5
193
330
1F
100
AcDbEntity
  8
0
  6
Continuous
 62
     7
370
    15
100
AcDbLine
 10
243.5375957608
 20
92.1607092664
 30
0.0
 11
245.2780365676
 21
93.1654443577
 31
0.0
  0
SPLINE
  5
194
330
1F
100
AcDbEntity
  8
0
  6
Continuous
 62
     7
370
    15
100
AcDbSpline
210
0.0
220
0.0
230
1.0
 70
     8
 71
     3
 72
    16
 73
    12
 74
     0
 42
0.00000001
 43
0.00000001
 40
0.0
 40
0.0
 40
0.0
 40
0.0
 40
0.0668390266495922
 40
0.1834964933288074
 40
0.3002229595258507
 40
0.4170892344392166
 40
0.5341783798644337
 40
0.649527192003433
 40
0.7654195552166384
 40
0.8821263610999995
 40
1.0
 40
1.0
 40
1.0
 40
1.0
 10
232.7737728864868
 20
77.02780499386321
 30
0.0
 10
233.0629069826714
 20
77.29210144764934
 30
0.0
 10
233.8566811504165
 20
78.01768760442039
 30
0.0
 10
235.1150034012108
 20
79.32383793387682
 30
0.0
 10
236.541727185557
 20
80.92772219861516
 30
0.0
 10
237.9121118367621
 20
82.63060637707173
 30
0.0
 10
239.2112396624558
 20
84.40889277751882
 30
0.0
 10
240.4317141212708
 20
86.25573029114395
 30
0.0
 10
241.5638293184993
 20
88.16328765052306
 30
0.0
 10
242.6164927275975
 20
90.134227324669
 30
0.0
 10
243.2295449498079
 20
91.48297899826068
 30
0.0
 10
243.5375957608396
 20
92.16070926638058
 30
0.0
  0
LINE
  5
195
330
1F
100
AcDbEntity
  8
0
  6
Continuous
 62
     7
370
    15
100
AcDbLine
 10
203.3690469946
 20
92.5959502976
 30
0.0
 11
203.3690469946
 21
93.4124911095
 31
0.0
  0
LINE
  5
196
330
1F
100
AcDbEntity
  8
0
  6
Continuous
 62
     7
370
    15
100
AcDbLine
 10
203.3452359157
 20
92.2677006449
 30
0.0
 11
203.3690469946
 21
92.5959502976
 31
0.0
  0
LINE
  5
197
330
1F
100
AcDbEntity
  8
0
  6
Continuous
 62
     7
370
    15
100
AcDbLine
 10
250.4708605368
 20
100.5724385903
 30
0.0
 11
249.6202614491
 21
99.6501458381
 31
0.0
  0
LINE
  5
198
330
1F
100
AcDbEntity
  8
0
  6
Continuous
 62
     7
370
    15
100
AcDbLine
 10
250.4708605368
 20
100.5724385903
 30
0.0
 11
251.7436527429
 21
99.8376712897
 31
0.0
  0
ARC
  5
199
330
1F
100
AcDbEntity
  8
0
  6
Continuous
 62
     7
370
    15
100
AcDbCircle
 10
214.5067267564
 20
80.405722539
 30
0.0
 40
9.276056036988747
100
AcDbArc
 50
197.0875285587
 51
218.9156835355
  0
LINE
  5
19A
330
1F
100
AcDbEntity
  8
0
  6
Continuous
 62
     7
370
    15
100
AcDbLine
 10
233.610774678
 20
98.2681277567
 30
0.0
 11
235.7320950216
 21
99.4927399244
 31
0.0
  0
LINE
  5
19B
330
1F
100
AcDbEntity
  8
0
  6
Continuous
 62
     7
370
    15
100
AcDbLine
 10
235.7320950216
 20
99.4927399244
 30
0.0
 11
235.7320950216
 21
98.6761991125
 31
0.0
  0
LINE
  5
19C
330
1F
100
AcDbEntity
  8
0
  6
Continuous
 62
     7
370
    15
100
AcDbLine
 10
233.9916542148
 20
97.6714640212
 30
0.0
 11
235.7320950216
 21
98.6761991125
 31
0.0
  0
SPLINE
  5
19D
330
1F
100
AcDbEntity
  8
0
  6
Continuous
 62
     7
370
    15
100
AcDbSpline
210
0.0
220
0.0
230
1.0
 70
     8
 71
     3
 72
    10
 73
     6
 74
     0
 42
0.00000001
 43
0.00000001
 40
0.2998646182089249
 40
0.2998646182089249
 40
0.2998646182089249
 40
0.2998646182089249
 40
0.5
 40
0.5
 40
1.0
 40
1.0
 40
1.0
 40
1.0
 10
222.5842657968865
 20
81.94086176740285
 30
0.0
 10
223.8805684106084
 20
83.08505055189643
 30
0.0
 10
225.1451764746624
 20
84.3517254882588
 30
0.0
 10
229.375347904843
 20
89.14811541318065
 30
0.0
 10
232.0521618660551
 20
93.22983484605435
 30
0.0
 10
233.9916542148212
 20
97.67146402118388
 30
0.0
  0
LINE
  5
19E
330
1F
100
AcDbEntity
  8
0
  6
Continuous
 62
     7
370
    15
100
AcDbLine
 10
245.2780365676
 20
93.9819851696
 30
0.0
 11
241.3889492711
 21
96.2271074771
 31
0.0
  0
LINE
  5
19F
330
1F
100
AcDbEntity
  8
0
  6
Continuous
 62
     7
370
    15
100
AcDbLine
 10
241.3889492711
 20
96.2271074771
 30
0.0
 11
239.2676289275
 21
95.0024953094
 31
0.0
  0
LINE
  5
1A0
330
1F
100
AcDbEntity
  8
0
  6
Continuous
 62
     7
370
    15
100
AcDbLine
 10
233.2443284207
 20
84.8673037698
 30
0.0
 11
230.9513497302
 21
86.1910121919
 31
0.0
  0
LINE
  5
1A1
330
1F
100
AcDbEntity
  8
0
  6
Continuous
 62
     7
370
    15
100
AcDbLine
 10
227.9681296959
 20
80.0602321198
 30
0.0
 11
230.0908264681
 21
81.2856388829
 31
0.0
  0
LINE
  5
1A2
330
1F
100
AcDbEntity
  8
0
  6
Continuous
 62
     7
370
    15
100
AcDbLine
 10
230.9513497302
 20
86.1910121919
 30
0.0
 11
222.1832256435
 21
81.1292818986
 31
0.0
  0
LINE
  5
1A3
330
1F
100
AcDbEntity
  8
0
  6
Continuous
 62
     7
370
    15
100
AcDbLine
 10
245.4194579238
 20
95.0431033949
 30
0.0
 11
247.3993569111
 21
100.5953951356
 31
0.0
  0
LINE
  5
1A4
330
1F
100
AcDbEntity
  8
0
  6
Continuous
 62
     7
370
    15
100
AcDbLine
 10
245.4194579238
 20
95.0431033949
 30
0.0
 11
244.8537724989
 21
95.3696666396
 31
0.0
  0
LINE
  5
1A5
330
1F
100
AcDbEntity
  8
0
  6
Continuous
 62
     7
370
    15
100
AcDbLine
 10
246.8336714862
 20
100.9219583803
 30
0.0
 11
244.8537724989
 21
95.3696666396
 31
0.0
  0
LINE
  5
1A6
330
1F
100
AcDbEntity
  8
0
  6
Continuous
 62
     7
370
    15
100
AcDbLine
 10
246.8336714862
 20
100.9219583803
 30
0.0
 11
247.3993569111
 21
100.5953951356
 31
0.0
  0
LINE
  5
1A7
330
1F
100
AcDbEntity
  8
0
  6
Continuous
 62
     7
370
    15
100
AcDbLine
 10
247.9650423361
 20
100.9219583803
 30
0.0
 11
247.9650423361
 21
87.8573053902
 31
0.0
  0
LINE
  5
1A8
330
1F
100
AcDbEntity
  8
0
  6
Continuous
 62
     7
370
    15
100
AcDbLine
 10
247.3993569111
 20
96.1860747514
 30
0.0
 11
247.3993569111
 21
87.5307421454
 31
0.0
  0
LINE
  5
1A9
330
1F
100
AcDbEntity
  8
0
  6
Continuous
 62
     7
370
    15
100
AcDbLine
 10
247.3993569111
 20
96.1860747514
 30
0.0
 11
245.4194579238
 21
95.0431033949
 31
0.0
  0
LINE
  5
1AA
330
1F
100
AcDbEntity
  8
0
  6
Continuous
 62
     7
370
    15
100
AcDbLine
 10
247.3993569111
 20
100.5953951356
 30
0.0
 11
247.9650423361
 21
100.9219583803
 31
0.0
  0
LINE
  5
1AB
330
1F
100
AcDbEntity
  8
0
  6
Continuous
 62
     7
370
    15
100
AcDbLine
 10
251.7436527429
 20
99.8376712897
 30
0.0
 11
257.2988518478
 21
103.0446194711
 31
0.0
  0
LINE
  5
1AC
330
1F
100
AcDbEntity
  8
0
  6
Continuous
 62
     7
370
    15
100
AcDbLine
 10
257.2988518478
 20
103.0446194711
 30
0.0
 11
257.2988518478
 21
88.5101930195
 31
0.0
  0
LINE
  5
1AD
330
1F
100
AcDbEntity
  8
0
  6
Continuous
 62
     7
370
    15
100
AcDbLine
 10
253.534681613
 20
86.3371837968
 30
0.0
 11
257.2988518478
 21
88.5101930195
 31
0.0
  0
LINE
  5
1AE
330
1F
100
AcDbEntity
  8
0
  6
Continuous
 62
     7
370
    15
100
AcDbLine
 10
250.4708605368
 20
100.5724385903
 30
0.0
 11
254.7532674355
 21
103.0446194711
 31
0.0
  0
LINE
  5
1AF
330
1F
100
AcDbEntity
  8
0
  6
Continuous
 62
     7
370
    15
100
AcDbLine
 10
254.7532674355
 20
103.0446194711
 30
0.0
 11
242.1667667304
 21
110.3106516663
 31
0.0
  0
LINE
  5
1B0
330
1F
100
AcDbEntity
  8
0
  6
Continuous
 62
     7
370
    15
100
AcDbLine
 10
242.1667667304
 20
110.3106516663
 30
0.0
 11
237.8843598317
 21
107.8384707856
 31
0.0
  0
LINE
  5
1B1
330
1F
100
AcDbEntity
  8
0
  6
Continuous
 62
     7
370
    15
100
AcDbLine
 10
236.6115676256
 20
108.5732380862
 30
0.0
 11
237.8843598317
 21
107.8384707856
 31
0.0
  0
LINE
  5
1B2
330
1F
100
AcDbEntity
  8
0
  6
Continuous
 62
     7
370
    15
100
AcDbLine
 10
242.1667667304
 20
111.7801862676
 30
0.0
 11
236.6115676256
 21
108.5732380862
 31
0.0
  0
LINE
  5
1B3
330
1F
100
AcDbEntity
  8
0
  6
Continuous
 62
     7
370
    15
100
AcDbLine
 10
257.2988518478
 20
103.0446194711
 30
0.0
 11
242.1667667304
 21
111.7801862676
 31
0.0
  0
LINE
  5
1B4
330
1F
100
AcDbEntity
  8
0
  6
Continuous
 62
     7
370
    15
100
AcDbLine
 10
219.2424615004
 20
104.6848539603
 30
0.0
 11
220.6976741213
 21
103.8447775957
 31
0.0
  0
LINE
  5
1B5
330
1F
100
AcDbEntity
  8
0
  6
Continuous
 62
     7
370
    15
100
AcDbLine
 10
238.4898114682
 20
106.3918927296
 30
0.0
 11
237.9241260432
 21
106.0653294848
 31
0.0
  0
LINE
  5
1B6
330
1F
100
AcDbEntity
  8
0
  6
Continuous
 62
     7
370
    15
100
AcDbLine
 10
247.9650423361
 20
100.9219583803
 30
0.0
 11
238.4898114682
 21
106.3918927296
 31
0.0
  0
LINE
  5
1B7
330
1F
100
AcDbEntity
  8
0
  6
Continuous
 62
     7
370
    15
100
AcDbLine
 10
246.8336714862
 20
100.9219583803
 30
0.0
 11
238.4898114682
 21
105.7387662401
 31
0.0
  0
LINE
  5
1B8
330
1F
100
AcDbEntity
  8
0
  6
Continuous
 62
     7
370
    15
100
AcDbLine
 10
237.9241260432
 20
106.0653294848
 30
0.0
 11
238.4898114682
 21
105.7387662401
 31
0.0
  0
LINE
  5
1B9
330
1F
100
AcDbEntity
  8
0
  6
Continuous
 62
     7
370
    15
100
AcDbLine
 10
237.9241260432
 20
101.0028826112
 30
0.0
 11
237.9241260432
 21
93.0006764947
 31
0.0
  0
LINE
  5
1BA
330
1F
100
AcDbEntity
  8
0
  6
Continuous
 62
     7
370
    15
100
AcDbLine
 10
238.4898114682
 20
101.3294458559
 30
0.0
 11
238.4898114682
 21
105.7387662401
 31
0.0
  0
LINE
  5
1BB
330
1F
100
AcDbEntity
  8
0
  6
Continuous
 62
     7
370
    15
100
AcDbLine
 10
254.7249831642
 20
103.0446194711
 30
0.0
 11
254.1027291968
 21
103.4038390403
 31
0.0
  0
LINE
  5
1BC
330
1F
100
AcDbEntity
  8
0
  6
Continuous
 62
     7
370
    15
100
AcDbLine
 10
254.1592977393
 20
102.7180562264
 30
0.0
 11
254.7249831642
 21
103.0446194711
 31
0.0
  0
LINE
  5
1BD
330
1F
100
AcDbEntity
  8
0
  6
Continuous
 62
     7
370
    15
100
AcDbLine
 10
253.5370437718
 20
103.0772757956
 30
0.0
 11
254.1592977393
 21
102.7180562264
 31
0.0
  0
LINE
  5
1BE
330
1F
100
AcDbEntity
  8
0
  6
Continuous
 62
     7
370
    15
100
AcDbLine
 10
253.5370437718
 20
103.0772757956
 30
0.0
 11
254.1027291968
 21
103.4038390403
 31
0.0
  0
LINE
  5
1BF
330
1F
100
AcDbEntity
  8
0
  6
Continuous
 62
     7
370
    15
100
AcDbLine
 10
253.5370437718
 20
102.3425084949
 30
0.0
 11
253.5370437718
 21
103.0772757956
 31
0.0
  0
LINE
  5
1C0
330
1F
100
AcDbEntity
  8
0
  6
Continuous
 62
     7
370
    15
100
AcDbLine
 10
254.1592977393
 20
102.7180562264
 30
0.0
 11
254.1592977393
 21
102.7017280641
 31
0.0
  0
LINE
  5
1C1
330
1F
100
AcDbEntity
  8
0
  6
Continuous
 62
     7
370
    15
100
AcDbLine
 10
241.6010813054
 20
109.9677602593
 30
0.0
 11
241.6010813054
 21
104.5957948835
 31
0.0
  0
LINE
  5
1C2
330
1F
100
AcDbEntity
  8
0
  6
Continuous
 62
     7
370
    15
100
AcDbLine
 10
241.6010813054
 20
109.9677602593
 30
0.0
 11
242.2233352729
 21
109.6085406901
 31
0.0
  0
LINE
  5
1C3
330
1F
100
AcDbEntity
  8
0
  6
Continuous
 62
     7
370
    15
100
AcDbLine
 10
242.2233352729
 20
107.1589182545
 30
0.0
 11
242.2233352729
 21
109.6085406901
 31
0.0
  0
LINE
  5
1C4
330
1F
100
AcDbEntity
  8
0
  6
Continuous
 62
     7
370
    15
100
AcDbLine
 10
242.2233352729
 20
107.1589182545
 30
0.0
 11
252.0517747291
 21
101.4850809274
 31
0.0
  0
LINE
  5
1C5
330
1F
100
AcDbEntity
  8
0
  6
Continuous
 62
     7
370
    15
100
AcDbLine
 10
254.7249831642
 20
103.0446194711
 30
0.0
 11
254.7249831642
 21
103.0282913088
 31
0.0
  0
LINE
  5
1C6
330
1F
100
AcDbEntity
  8
0
  6
Continuous
 62
     7
370
    15
100
AcDbLine
 10
235.7320950216
 20
99.4927399244
 30
0.0
 11
231.843007725
 21
101.7378622319
 31
0.0
  0
LINE
  5
1C7
330
1F
100
AcDbEntity
  8
0
  6
Continuous
 62
     7
370
    15
100
AcDbLine
 10
229.7216873815
 20
100.5132500642
 30
0.0
 11
231.843007725
 21
101.7378622319
 31
0.0
  0
LINE
  5
1C8
330
1F
100
AcDbEntity
  8
0
  6
Continuous
 62
     7
370
    15
100
AcDbLine
 10
237.0337607439
 20
106.9161780334
 30
0.0
 11
237.8843598317
 21
107.8384707856
 31
0.0
  0
LINE
  5
1C9
330
1F
100
AcDbEntity
  8
0
  6
Continuous
 62
     7
370
    15
100
AcDbLine
 10
242.1667667304
 20
110.3106516663
 30
0.0
 11
242.1667667304
 21
110.2943235041
 31
0.0
  0
LINE
  5
1CA
330
1F
100
AcDbEntity
  8
0
  6
Continuous
 62
     7
370
    15
100
AcDbLine
 10
242.7890206978
 20
107.4854814992
 30
0.0
 11
242.2233352729
 21
107.1589182545
 31
0.0
  0
LINE
  5
1CB
330
1F
100
AcDbEntity
  8
0
  6
Continuous
 62
     7
370
    15
100
AcDbLine
 10
252.6174601541
 20
101.8116441721
 30
0.0
 11
242.7890206978
 21
107.4854814992
 31
0.0
  0
LINE
  5
1CC
330
1F
100
AcDbEntity
  8
0
  6
Continuous
 62
     7
370
    15
100
AcDbLine
 10
237.9241260432
 20
106.0653294848
 30
0.0
 11
235.9442270559
 21
100.5130377441
 31
0.0
  0
LINE
  5
1CD
330
1F
100
AcDbEntity
  8
0
  6
Continuous
 62
     7
370
    15
100
AcDbLine
 10
236.5099124809
 20
100.1864744994
 30
0.0
 11
238.4898114682
 21
105.7387662401
 31
0.0
  0
LINE
  5
1CE
330
1F
100
AcDbEntity
  8
0
  6
Continuous
 62
     7
370
    15
100
AcDbLine
 10
236.5099124809
 20
100.1864744994
 30
0.0
 11
235.9442270559
 21
100.5130377441
 31
0.0
  0
LINE
  5
1CF
330
1F
100
AcDbEntity
  8
0
  6
Continuous
 62
     7
370
    15
100
AcDbLine
 10
238.4898114682
 20
101.3294458559
 30
0.0
 11
236.5099124809
 21
100.1864744994
 31
0.0
  0
LINE
  5
1D0
330
1F
100
AcDbEntity
  8
0
  6
Continuous
 62
     7
370
    15
100
AcDbLine
 10
242.7890206978
 20
109.9351039349
 30
0.0
 11
242.2233352729
 21
109.6085406901
 31
0.0
  0
LINE
  5
1D1
330
1F
100
AcDbEntity
  8
0
  6
Continuous
 62
     7
370
    15
100
AcDbLine
 10
242.7890206978
 20
107.4854814992
 30
0.0
 11
242.7890206978
 21
109.9351039349
 31
0.0
  0
LINE
  5
1D2
330
1F
100
AcDbEntity
  8
0
  6
Continuous
 62
     7
370
    15
100
AcDbLine
 10
242.1667667304
 20
110.2943235041
 30
0.0
 11
241.6010813054
 21
109.9677602593
 31
0.0
  0
LINE
  5
1D3
330
1F
100
AcDbEntity
  8
0
  6
Continuous
 62
     7
370
    15
100
AcDbLine
 10
242.7890206978
 20
109.9351039349
 30
0.0
 11
242.1667667304
 21
110.2943235041
 31
0.0
  0
LINE
  5
1D4
330
1F
100
AcDbEntity
  8
0
  6
Continuous
 62
     7
370
    15
100
AcDbLine
 10
48.9644104803
 20
176.6807860262
 30
0.0
 11
48.9644104803
 21
173.8807860262
 31
0.0
  0
LINE
  5
1D5
330
1F
100
AcDbEntity
  8
0
  6
Continuous
 62
     7
370
    15
100
AcDbLine
 10
48.9644104803
 20
176.6807860262
 30
0.0
 11
49.7644104803
 21
176.6807860262
 31
0.0
  0
LINE
  5
1D6
330
1F
100
AcDbEntity
  8
0
  6
Continuous
 62
     7
370
    15
100
AcDbLine
 10
49.7644104803
 20
173.8807860262
 30
0.0
 11
49.7644104803
 21
176.6807860262
 31
0.0
  0
LINE
  5
1D7
330
1F
100
AcDbEntity
  8
0
  6
Continuous
 62
     7
370
    15
100
AcDbLine
 10
49.7644104803
 20
173.8807860262
 30
0.0
 11
48.9644104803
 21
173.8807860262
 31
0.0
  0
LINE
  5
1D8
330
1F
100
AcDbEntity
  8
0
  6
Continuous
 62
     7
370
    15
100
AcDbLine
 10
62.3644104803
 20
177.4807860262
 30
0.0
 11
48.9644104803
 21
177.4807860262
 31
0.0
  0
LINE
  5
1D9
330
1F
100
AcDbEntity
  8
0
  6
Continuous
 62
     7
370
    15
100
AcDbLine
 10
62.3644104803
 20
176.6807860262
 30
0.0
 11
62.3644104803
 21
177.4807860262
 31
0.0
  0
LINE
  5
1DA
330
1F
100
AcDbEntity
  8
0
  6
Continuous
 62
     7
370
    15
100
AcDbLine
 10
61.5644104803
 20
176.6807860262
 30
0.0
 11
62.3644104803
 21
176.6807860262
 31
0.0
  0
LINE
  5
1DB
330
1F
100
AcDbEntity
  8
0
  6
Continuous
 62
     7
370
    15
100
AcDbLine
 10
61.5644104803
 20
176.6807860262
 30
0.0
 11
49.7644104803
 21
176.6807860262
 31
0.0
  0
LINE
  5
1DC
330
1F
100
AcDbEntity
  8
0
  6
Continuous
 62
     7
370
    15
100
AcDbLine
 10
48.9644104803
 20
177.4807860262
 30
0.0
 11
48.9644104803
 21
176.6807860262
 31
0.0
  0
ARC
  5
1DD
330
1F
100
AcDbEntity
  8
0
  6
Continuous
 62
     7
370
    15
100
AcDbCircle
 10
55.6644104803
 20
154.5807860262
 30
0.0
 40
24.70000000000001
100
AcDbArc
 50
285.0172184269
 51
318.0858622418
  0
LINE
  5
1DE
330
1F
100
AcDbEntity
  8
0
  6
Continuous
 62
     7
370
    15
100
AcDbLine
 10
74.0448348498
 20
138.0807860262
 30
0.0
 11
76.4008518337
 21
138.0807860262
 31
0.0
  0
ARC
  5
1DF
330
1F
100
AcDbEntity
  8
0
  6
Continuous
 62
     7
370
    15
100
AcDbCircle
 10
55.6644104803
 20
154.5807860262
 30
0.0
 40
26.50000000000002
100
AcDbArc
 50
283.975645508
 51
321.4907108756
  0
LINE
  5
1E0
330
1F
100
AcDbEntity
  8
0
  6
Continuous
 62
     7
370
    15
100
AcDbLine
 10
62.0644104803
 20
128.8652265339
 30
0.0
 11
62.0644104803
 21
130.7243403563
 31
0.0
  0
LINE
  5
1E1
330
1F
100
AcDbEntity
  8
0
  6
Continuous
 62
     7
370
    15
100
AcDbLine
 10
46.7844104803
 20
184.0607860262
 30
0.0
 11
47.6644104803
 21
184.0607860262
 31
0.0
  0
LINE
  5
1E2
330
1F
100
AcDbEntity
  8
0
  6
Continuous
 62
     7
370
    15
100
AcDbLine
 10
46.7844104803
 20
184.8607860262
 30
0.0
 11
46.7844104803
 21
184.0607860262
 31
0.0
  0
LINE
  5
1E3
330
1F
100
AcDbEntity
  8
0
  6
Continuous
 62
     7
370
    15
100
AcDbLine
 10
47.6644104803
 20
184.8607860262
 30
0.0
 11
46.7844104803
 21
184.8607860262
 31
0.0
  0
LINE
  5
1E4
330
1F
100
AcDbEntity
  8
0
  6
Continuous
 62
     7
370
    15
100
AcDbLine
 10
47.6644104803
 20
184.8607860262
 30
0.0
 11
47.6644104803
 21
184.0607860262
 31
0.0
  0
LINE
  5
1E5
330
1F
100
AcDbEntity
  8
0
  6
Continuous
 62
     7
370
    15
100
AcDbLine
 10
64.5644104803
 20
178.8245481105
 30
0.0
 11
64.5644104803
 21
184.8807860262
 31
0.0
  0
LINE
  5
1E6
330
1F
100
AcDbEntity
  8
0
  6
Continuous
 62
     7
370
    15
100
AcDbLine
 10
64.5644104803
 20
184.8807860262
 30
0.0
 11
46.7644104803
 21
184.8807860262
 31
0.0
  0
LINE
  5
1E7
330
1F
100
AcDbEntity
  8
0
  6
Continuous
 62
     7
370
    15
100
AcDbLine
 10
46.7644104803
 20
184.8807860262
 30
0.0
 11
46.7644104803
 21
178.8245481105
 31
0.0
  0
LINE
  5
1E8
330
1F
100
AcDbEntity
  8
0
  6
Continuous
 62
     7
370
    15
100
AcDbLine
 10
44.9644104803
 20
178.8245481105
 30
0.0
 11
46.7644104803
 21
178.8245481105
 31
0.0
  0
LINE
  5
1E9
330
1F
100
AcDbEntity
  8
0
  6
Continuous
 62
     7
370
    15
100
AcDbLine
 10
66.3644104803
 20
186.6807860262
 30
0.0
 11
44.9644104803
 21
186.6807860262
 31
0.0
  0
LINE
  5
1EA
330
1F
100
AcDbEntity
  8
0
  6
Continuous
 62
     7
370
    15
100
AcDbLine
 10
66.3644104803
 20
178.8245481105
 30
0.0
 11
66.3644104803
 21
186.6807860262
 31
0.0
  0
LINE
  5
1EB
330
1F
100
AcDbEntity
  8
0
  6
Continuous
 62
     7
370
    15
100
AcDbLine
 10
64.5644104803
 20
178.8245481105
 30
0.0
 11
66.3644104803
 21
178.8245481105
 31
0.0
  0
LINE
  5
1EC
330
1F
100
AcDbEntity
  8
0
  6
Continuous
 62
     7
370
    15
100
AcDbLine
 10
44.9644104803
 20
186.6807860262
 30
0.0
 11
44.9644104803
 21
178.8245481105
 31
0.0
  0
ARC
  5
1ED
330
1F
100
AcDbEntity
  8
0
  6
Continuous
 62
     7
370
    15
100
AcDbCircle
 10
55.6644104803
 20
154.5807860262
 30
0.0
 40
26.50000000000002
100
AcDbArc
 50
218.5092891244
 51
256.024354492
  0
LINE
  5
1EE
330
1F
100
AcDbEntity
  8
0
  6
Continuous
 62
     7
370
    15
100
AcDbLine
 10
34.927969127
 20
138.0807860262
 30
0.0
 11
37.2839861109
 21
138.0807860262
 31
0.0
  0
ARC
  5
1EF
330
1F
100
AcDbEntity
  8
0
  6
Continuous
 62
     7
370
    15
100
AcDbCircle
 10
55.6644104803
 20
154.5807860262
 30
0.0
 40
24.70000000000002
100
AcDbArc
 50
221.9141377582
 51
254.9827815731
  0
LINE
  5
1F0
330
1F
100
AcDbEntity
  8
0
  6
Continuous
 62
     7
370
    15
100
AcDbLine
 10
49.2644104803
 20
130.7243403563
 30
0.0
 11
49.2644104803
 21
128.8652265339
 31
0.0
  0
LINE
  5
1F1
330
1F
100
AcDbEntity
  8
0
  6
Continuous
 62
     7
370
    15
100
AcDbLine
 10
37.2839861109
 20
138.0807860262
 30
0.0
 11
38.0281328465
 21
138.7488022205
 31
0.0
  0
ARC
  5
1F2
330
1F
100
AcDbEntity
  8
0
  6
Continuous
 62
     7
370
    15
100
AcDbCircle
 10
55.6644104803
 20
154.5807860262
 30
0.0
 40
23.70000000000001
100
AcDbArc
 50
221.9141377582
 51
254.3332223397
  0
SPLINE
  5
1F3
330
1F
100
AcDbEntity
  8
0
  6
Continuous
 62
     7
370
    15
100
AcDbSpline
210
0.0
220
0.0
230
1.0
 70
    24
 71
     3
 72
    11
 73
     7
 74
     0
 42
0.00000001
 43
0.00000001
 40
0.003242691467036
 40
0.003242691467036
 40
0.003242691467036
 40
0.003242691467036
 40
0.0034680676127499
 40
0.0034680676127499
 40
0.0034680676127499
 40
0.0043691035124521
 40
0.0043691035124521
 40
0.0043691035124521
 40
0.0043691035124521
 10
49.26441048034928
 20
131.7612768290249
 30
0.0
 10
49.26441048034928
 20
131.6920323280787
 30
0.0
 10
49.26441048034928
 20
131.6228059272183
 30
0.0
 10
49.26441048034928
 20
131.5535971521219
 30
0.0
 10
49.26441048034928
 20
131.2769061076916
 30
0.0
 10
49.26441048034928
 20
131.000496429544
 30
0.0
 10
49.26441048034928
 20
130.7243403563195
 30
0.0
  0
ARC
  5
1F4
330
1F
100
AcDbEntity
  8
0
  6
Continuous
 62
     7
370
    15
100
AcDbCircle
 10
55.6644104803
 20
154.5807860262
 30
0.0
 40
26.50000000000002
100
AcDbArc
 50
207.8996573043
 51
218.5092891244
  0
LINE
  5
1F5
330
1F
100
AcDbEntity
  8
0
  6
Continuous
 62
     7
370
    15
100
AcDbLine
 10
32.2445471161
 20
142.1807860262
 30
0.0
 11
34.3025285408
 21
142.1807860262
 31
0.0
  0
ARC
  5
1F6
330
1F
100
AcDbEntity
  8
0
  6
Continuous
 62
     7
370
    15
100
AcDbCircle
 10
55.6644104803
 20
154.5807860262
 30
0.0
 40
24.70000000000002
100
AcDbArc
 50
210.1340166604
 51
221.9141377582
  0
LINE
  5
1F7
330
1F
100
AcDbEntity
  8
0
  6
Continuous
 62
     7
370
    15
100
AcDbLine
 10
64.5444104803
 20
184.0607860262
 30
0.0
 11
64.5444104803
 21
184.8607860262
 31
0.0
  0
LINE
  5
1F8
330
1F
100
AcDbEntity
  8
0
  6
Continuous
 62
     7
370
    15
100
AcDbLine
 10
63.6644104803
 20
184.0607860262
 30
0.0
 11
64.5444104803
 21
184.0607860262
 31
0.0
  0
LINE
  5
1F9
330
1F
100
AcDbEntity
  8
0
  6
Continuous
 62
     7
370
    15
100
AcDbLine
 10
63.6644104803
 20
184.0607860262
 30
0.0
 11
63.6644104803
 21
184.8607860262
 31
0.0
  0
LINE
  5
1FA
330
1F
100
AcDbEntity
  8
0
  6
Continuous
 62
     7
370
    15
100
AcDbLine
 10
64.5444104803
 20
184.8607860262
 30
0.0
 11
63.6644104803
 21
184.8607860262
 31
0.0
  0
ARC
  5
1FB
330
1F
100
AcDbEntity
  8
0
  6
Continuous
 62
     7
370
    15
100
AcDbCircle
 10
55.6644104803
 20
154.5807860262
 30
0.0
 40
26.50000000000002
100
AcDbArc
 50
321.4907108756
 51
332.1003426957
  0
ARC
  5
1FC
330
1F
100
AcDbEntity
  8
0
  6
Continuous
 62
     7
370
    15
100
AcDbCircle
 10
55.6644104803
 20
154.5807860262
 30
0.0
 40
24.70000000000001
100
AcDbArc
 50
318.0858622418
 51
329.8659833396
  0
LINE
  5
1FD
330
1F
100
AcDbEntity
  8
0
  6
Continuous
 62
     7
370
    15
100
AcDbLine
 10
77.0262924199
 20
142.1807860262
 30
0.0
 11
79.0842738446
 21
142.1807860262
 31
0.0
  0
ARC
  5
1FE
330
1F
100
AcDbEntity
  8
0
  6
Continuous
 62
     7
370
    15
100
AcDbCircle
 10
55.6644104803
 20
154.5807860262
 30
0.0
 40
23.69999999999999
100
AcDbArc
 50
285.6667776603
 51
318.0858622418
  0
SPLINE
  5
1FF
330
1F
100
AcDbEntity
  8
0
  6
Continuous
 62
     7
370
    15
100
AcDbSpline
210
0.0
220
0.0
230
1.0
 70
    24
 71
     3
 72
    11
 73
     7
 74
     0
 42
0.00000001
 43
0.00000001
 40
0.0025670265804243
 40
0.0025670265804243
 40
0.0025670265804243
 40
0.0025670265804243
 40
0.0034680635386233
 40
0.0034680635386233
 40
0.0034680635386233
 40
0.0036934399490991
 40
0.0036934399490991
 40
0.0036934399490991
 40
0.0036934399490991
 10
62.06441048034929
 20
130.7243403563195
 30
0.0
 10
62.06441048034929
 20
131.000496429544
 30
0.0
 10
62.06441048034929
 20
131.2769061076916
 30
0.0
 10
62.06441048034929
 20
131.5535971521219
 30
0.0
 10
62.06441048034929
 20
131.6228059272183
 30
0.0
 10
62.06441048034929
 20
131.6920323280787
 30
0.0
 10
62.06441048034929
 20
131.7612768290249
 30
0.0
  0
LINE
  5
200
330
1F
100
AcDbEntity
  8
0
  6
Continuous
 62
     7
370
    15
100
AcDbLine
 10
73.3006881142
 20
138.7488022205
 30
0.0
 11
74.0448348498
 21
138.0807860262
 31
0.0
  0
LINE
  5
201
330
1F
100
AcDbEntity
  8
0
  6
Continuous
 62
     7
370
    15
100
AcDbLine
 10
32.2445471161
 20
166.9807860262
 30
0.0
 11
34.3025285408
 21
166.9807860262
 31
0.0
  0
ARC
  5
202
330
1F
100
AcDbEntity
  8
0
  6
Continuous
 62
     7
370
    15
100
AcDbCircle
 10
55.6644104803
 20
154.5807860262
 30
0.0
 40
24.70000000000001
100
AcDbArc
 50
111.120088339
 51
149.8659833396
  0
ARC
  5
203
330
1F
100
AcDbEntity
  8
0
  6
Continuous
 62
     7
370
    15
100
AcDbCircle
 10
55.6644104803
 20
154.5807860262
 30
0.0
 40
26.49999999999999
100
AcDbArc
 50
113.8142964668
 51
152.1003426957
  0
LINE
  5
204
330
1F
100
AcDbEntity
  8
0
  6
Continuous
 62
     7
370
    15
100
AcDbLine
 10
46.7644104803
 20
177.6216193445
 30
0.0
 11
46.7644104803
 21
178.8245481105
 31
0.0
  0
LINE
  5
205
330
1F
100
AcDbEntity
  8
0
  6
Continuous
 62
     7
370
    15
100
AcDbLine
 10
77.0262924199
 20
166.9807860262
 30
0.0
 11
79.0842738446
 21
166.9807860262
 31
0.0
  0
LINE
  5
206
330
1F
100
AcDbEntity
  8
0
  6
Continuous
 62
     7
370
    15
100
AcDbLine
 10
64.5644104803
 20
178.8245481105
 30
0.0
 11
64.5644104803
 21
177.6216193445
 31
0.0
  0
ARC
  5
207
330
1F
100
AcDbEntity
  8
0
  6
Continuous
 62
     7
370
    15
100
AcDbCircle
 10
55.6644104803
 20
154.5807860262
 30
0.0
 40
24.70000000000002
100
AcDbArc
 50
30.1340166604
 51
68.879911661
  0
ARC
  5
208
330
1F
100
AcDbEntity
  8
0
  6
Continuous
 62
     7
370
    15
100
AcDbCircle
 10
55.6644104803
 20
154.5807860262
 30
0.0
 40
26.5
100
AcDbArc
 50
27.8996573043
 51
66.1857035332
  0
LINE
  5
209
330
1F
100
AcDbEntity
  8
0
  6
Continuous
 62
     7
370
    15
100
AcDbLine
 10
62.3644104803
 20
173.8807860262
 30
0.0
 11
61.5644104803
 21
173.8807860262
 31
0.0
  0
LINE
  5
20A
330
1F
100
AcDbEntity
  8
0
  6
Continuous
 62
     7
370
    15
100
AcDbLine
 10
61.5644104803
 20
176.6807860262
 30
0.0
 11
61.5644104803
 21
173.8807860262
 31
0.0
  0
LINE
  5
20B
330
1F
100
AcDbEntity
  8
0
  6
Continuous
 62
     7
370
    15
100
AcDbLine
 10
62.3644104803
 20
173.8807860262
 30
0.0
 11
62.3644104803
 21
176.6807860262
 31
0.0
  0
LINE
  5
20C
330
1F
100
AcDbEntity
  8
0
  6
Continuous
 62
     7
370
    15
100
AcDbLine
 10
47.6644104803
 20
184.0607860262
 30
0.0
 11
63.6644104803
 21
184.0607860262
 31
0.0
  0
LINE
  5
20D
330
1F
100
AcDbEntity
  8
0
  6
Continuous
 62
     7
370
    15
100
AcDbLine
 10
63.6644104803
 20
184.8607860262
 30
0.0
 11
47.6644104803
 21
184.8607860262
 31
0.0
  0
SPLINE
  5
20E
330
1F
100
AcDbEntity
  8
0
  6
Continuous
 62
     7
370
    15
100
AcDbSpline
210
0.0
220
0.0
230
1.0
 70
    24
 71
     3
 72
     8
 73
     4
 74
     0
 42
0.00000001
 43
0.00000001
 40
0.0479328894672261
 40
0.0479328894672261
 40
0.0479328894672261
 40
0.0479328894672261
 40
1.0
 40
1.0
 40
1.0
 40
1.0
 10
65.16441048034928
 20
145.2197911969284
 30
0.0
 10
65.16441048034928
 20
154.0863998367175
 30
0.0
 10
65.16441048034928
 20
162.9142371801585
 30
0.0
 10
65.16441048034928
 20
167.8807860262008
 30
0.0
  0
LINE
  5
20F
330
1F
100
AcDbEntity
  8
0
  6
Continuous
 62
     7
370
    15
100
AcDbLine
 10
46.1644104803
 20
145.2197911969
 30
0.0
 11
65.1644104803
 21
145.2197911969
 31
0.0
  0
LINE
  5
210
330
1F
100
AcDbEntity
  8
0
  6
Continuous
 62
     7
370
    15
100
AcDbLine
 10
51.6644104803
 20
167.8807860262
 30
0.0
 11
46.1644104803
 21
167.8807860262
 31
0.0
  0
SPLINE
  5
211
330
1F
100
AcDbEntity
  8
0
  6
Continuous
 62
     7
370
    15
100
AcDbSpline
210
0.0
220
0.0
230
1.0
 70
    24
 71
     3
 72
     8
 73
     4
 74
     0
 42
0.00000001
 43
0.00000001
 40
0.235255749891313
 40
0.235255749891313
 40
0.235255749891313
 40
0.235255749891313
 40
1.0
 40
1.0
 40
1.0
 40
1.0
 10
51.66441048034928
 20
150.4197911969284
 30
0.0
 10
51.66441048034928
 20
157.4107431531139
 30
0.0
 10
51.66441048034928
 20
163.8914247397161
 30
0.0
 10
51.66441048034928
 20
167.8807860262008
 30
0.0
  0
LINE
  5
212
330
1F
100
AcDbEntity
  8
0
  6
Continuous
 62
     7
370
    15
100
AcDbLine
 10
52.9644104803
 20
150.4197911969
 30
0.0
 11
51.6644104803
 21
150.4197911969
 31
0.0
  0
LINE
  5
213
330
1F
100
AcDbEntity
  8
0
  6
Continuous
 62
     7
370
    15
100
AcDbLine
 10
52.9644104803
 20
150.4197911969
 30
0.0
 11
58.3644104803
 21
150.4197911969
 31
0.0
  0
LINE
  5
214
330
1F
100
AcDbEntity
  8
0
  6
Continuous
 62
     7
370
    15
100
AcDbLine
 10
59.6644104803
 20
150.4197911969
 30
0.0
 11
58.3644104803
 21
150.4197911969
 31
0.0
  0
SPLINE
  5
215
330
1F
100
AcDbEntity
  8
0
  6
Continuous
 62
     7
370
    15
100
AcDbSpline
210
0.0
220
0.0
230
1.0
 70
    24
 71
     3
 72
     8
 73
     4
 74
     0
 42
0.00000001
 43
0.00000001
 40
0.235255749891313
 40
0.235255749891313
 40
0.235255749891313
 40
0.235255749891313
 40
1.0
 40
1.0
 40
1.0
 40
1.0
 10
59.66441048034928
 20
150.4197911969284
 30
0.0
 10
59.66441048034928
 20
157.4107431531139
 30
0.0
 10
59.66441048034928
 20
163.8914247397161
 30
0.0
 10
59.66441048034928
 20
167.8807860262008
 30
0.0
  0
LINE
  5
216
330
1F
100
AcDbEntity
  8
0
  6
Continuous
 62
     7
370
    15
100
AcDbLine
 10
65.1644104803
 20
167.8807860262
 30
0.0
 11
59.6644104803
 21
167.8807860262
 31
0.0
  0
SPLINE
  5
217
330
1F
100
AcDbEntity
  8
0
  6
Continuous
 62
     7
370
    15
100
AcDbSpline
210
0.0
220
0.0
230
1.0
 70
    24
 71
     3
 72
     8
 73
     4
 74
     0
 42
0.00000001
 43
0.00000001
 40
0.0479328894672261
 40
0.0479328894672261
 40
0.0479328894672261
 40
0.0479328894672261
 40
1.0
 40
1.0
 40
1.0
 40
1.0
 10
46.16441048034928
 20
145.2197911969284
 30
0.0
 10
46.16441048034928
 20
154.0863998367175
 30
0.0
 10
46.16441048034928
 20
162.9142371801585
 30
0.0
 10
46.16441048034928
 20
167.8807860262008
 30
0.0
  0
LINE
  5
218
330
1F
100
AcDbEntity
  8
0
  6
Continuous
 62
     7
370
    15
100
AcDbLine
 10
65.1644104803
 20
170.8807860262
 30
0.0
 11
59.6644104803
 21
170.8807860262
 31
0.0
  0
LINE
  5
219
330
1F
100
AcDbEntity
  8
0
  6
Continuous
 62
     7
370
    15
100
AcDbLine
 10
59.6644104803
 20
170.8807860262
 30
0.0
 11
59.6644104803
 21
167.8807860262
 31
0.0
  0
LINE
  5
21A
330
1F
100
AcDbEntity
  8
0
  6
Continuous
 62
     7
370
    15
100
AcDbLine
 10
65.1644104803
 20
167.8807860262
 30
0.0
 11
65.1644104803
 21
170.8807860262
 31
0.0
  0
LINE
  5
21B
330
1F
100
AcDbEntity
  8
0
  6
Continuous
 62
     7
370
    15
100
AcDbLine
 10
51.6644104803
 20
170.8807860262
 30
0.0
 11
46.1644104803
 21
170.8807860262
 31
0.0
  0
LINE
  5
21C
330
1F
100
AcDbEntity
  8
0
  6
Continuous
 62
     7
370
    15
100
AcDbLine
 10
51.6644104803
 20
167.8807860262
 30
0.0
 11
51.6644104803
 21
170.8807860262
 31
0.0
  0
LINE
  5
21D
330
1F
100
AcDbEntity
  8
0
  6
Continuous
 62
     7
370
    15
100
AcDbLine
 10
46.1644104803
 20
167.8807860262
 30
0.0
 11
46.1644104803
 21
170.8807860262
 31
0.0
  0
ARC
  5
21E
330
1F
100
AcDbEntity
  8
0
  6
Continuous
 62
     7
370
    15
100
AcDbCircle
 10
55.6644104803
 20
154.5807860262
 30
0.0
 40
24.7
100
AcDbArc
 50
329.8659833396
 51
30.1340166604
  0
ARC
  5
21F
330
1F
100
AcDbEntity
  8
0
  6
Continuous
 62
     7
370
    15
100
AcDbCircle
 10
55.6644104803
 20
154.5807860262
 30
0.0
 40
26.5
100
AcDbArc
 50
332.1003426957
 51
27.8996573043
  0
ARC
  5
220
330
1F
100
AcDbEntity
  8
0
  6
Continuous
 62
     7
370
    15
100
AcDbCircle
 10
55.6644104803
 20
154.5807860262
 30
0.0
 40
24.7
100
AcDbArc
 50
149.8659833396
 51
210.1340166604
  0
ARC
  5
221
330
1F
100
AcDbEntity
  8
0
  6
Continuous
 62
     7
370
    15
100
AcDbCircle
 10
55.6644104803
 20
154.5807860262
 30
0.0
 40
26.49999999999999
100
AcDbArc
 50
152.1003426957
 51
207.8996573043
  0
LINE
  5
222
330
1F
100
AcDbEntity
  8
0
  6
Continuous
 62
     7
370
    15
100
AcDbLine
 10
52.9644104803
 20
162.8197911969
 30
0.0
 11
52.9644104803
 21
150.4197911969
 31
0.0
  0
LINE
  5
223
330
1F
100
AcDbEntity
  8
0
  6
Continuous
 62
     7
370
    15
100
AcDbLine
 10
58.3644104803
 20
150.4197911969
 30
0.0
 11
58.3644104803
 21
162.8197911969
 31
0.0
  0
LINE
  5
224
330
1F
100
AcDbEntity
  8
0
  6
Continuous
 62
     7
370
    15
100
AcDbLine
 10
58.3644104803
 20
162.8197911969
 30
0.0
 11
52.9644104803
 21
162.8197911969
 31
0.0
  0
LINE
  5
225
330
1F
100
AcDbEntity
  8
0
  6
Continuous
 62
     7
370
    15
100
AcDbLine
 10
40.7268892663
 20
138.8403775188
 30
0.0
 11
39.3501592005
 21
137.3896486241
 31
0.0
  0
LINE
  5
226
330
1F
100
AcDbEntity
  8
0
  6
Continuous
 62
     7
370
    15
100
AcDbLine
 10
71.9786617602
 20
137.3896486241
 30
0.0
 11
70.6019316944
 21
138.8403775188
 31
0.0
  0
ARC
  5
227
330
1F
100
AcDbEntity
  8
0
  6
Continuous
 62
     7
370
    15
100
AcDbCircle
 10
55.6644104803
 20
154.5807860262
 30
0.0
 40
21.70000000000005
100
AcDbArc
 50
284.6821282478
 51
313.5008259986
  0
LINE
  5
228
330
1F
100
AcDbEntity
  8
0
  6
Continuous
 62
     7
370
    15
100
AcDbLine
 10
61.1644104803
 20
133.5893592048
 30
0.0
 11
61.9247791439
 21
130.6873186304
 31
0.0
  0
LINE
  5
229
330
1F
100
AcDbEntity
  8
0
  6
Continuous
 62
     7
370
    15
100
AcDbLine
 10
49.4040418168
 20
130.6873186304
 30
0.0
 11
50.1644104803
 21
133.5893592048
 31
0.0
  0
ARC
  5
22A
330
1F
100
AcDbEntity
  8
0
  6
Continuous
 62
     7
370
    15
100
AcDbCircle
 10
55.6644104803
 20
154.5807860262
 30
0.0
 40
21.70000000000004
100
AcDbArc
 50
226.4991740014
 51
255.3178717522
  0
ARC
  5
22B
330
1F
100
AcDbEntity
  8
0
  6
Continuous
 62
     7
370
    15
100
AcDbCircle
 10
55.6644104803
 20
154.5807860262
 30
0.0
 40
24.70000000000003
100
AcDbArc
 50
284.6821282478
 51
285.0172184269
  0
ARC
  5
22C
330
1F
100
AcDbEntity
  8
0
  6
Continuous
 62
     7
370
    15
100
AcDbCircle
 10
55.6644104803
 20
154.5807860262
 30
0.0
 40
24.70000000000003
100
AcDbArc
 50
254.9827815731
 51
255.3178717522
  0
ARC
  5
22D
330
1F
100
AcDbEntity
  8
0
  6
Continuous
 62
     7
370
    15
100
AcDbCircle
 10
55.6644104803
 20
154.5807860262
 30
0.0
 40
26.50000000000001
100
AcDbArc
 50
256.024354492
 51
283.975645508
  0
DIMENSION
  5
22E
330
1F
100
AcDbEntity
  8
LAYER1
100
AcDbDimension
  2
*D6
 10
55.6644104803
 20
154.5807860262
 30
0.0
 11
24.4484445871
 21
178.202117045
 31
0.0
 70
   164
  1
<>
 71
     1
 42
-1.0
  3
SLDDIMSTYLE0
100
AcDbRadialDimension
 15
34.5326267107
 25
170.5713368207
 35
0.0
 40
0.0
  0
DIMENSION
  5
239
330
1F
100
AcDbEntity
  8
LAYER1
100
AcDbDimension
  2
*D7
 10
90.7329412747
 20
128.0807860262
 30
0.0
 11
90.7329412747
 21
158.0314538469
 31
0.0
 70
   160
 71
     2
 42
-1.0
  3
SLDDIMSTYLE1
100
AcDbAlignedDimension
 13
66.3644104803
 23
186.6807860262
 33
0.0
 14
55.6644104803
 24
128.0807860262
 34
0.0
 50
90.0
100
AcDbRotatedDimension
  0
LINE
  5
244
330
1F
100
AcDbEntity
  8
0
  6
Continuous
 62
     7
370
    15
100
AcDbLine
 10
173.7626543647
 20
148.9635228518
 30
0.0
 11
173.7626543647
 21
150.7635228518
 31
0.0
  0
LINE
  5
245
330
1F
100
AcDbEntity
  8
0
  6
Continuous
 62
     7
370
    15
100
AcDbLine
 10
123.0188922804
 20
148.9635228518
 30
0.0
 11
173.7626543647
 21
148.9635228518
 31
0.0
  0
LINE
  5
246
330
1F
100
AcDbEntity
  8
0
  6
Continuous
 62
     7
370
    15
100
AcDbLine
 10
123.0188922804
 20
166.7635228518
 30
0.0
 11
123.0188922804
 21
148.9635228518
 31
0.0
  0
LINE
  5
247
330
1F
100
AcDbEntity
  8
0
  6
Continuous
 62
     7
370
    15
100
AcDbLine
 10
134.8626543647
 20
161.5635228518
 30
0.0
 11
123.0188922804
 21
166.7635228518
 31
0.0
  0
LINE
  5
248
330
1F
100
AcDbEntity
  8
0
  6
Continuous
 62
     7
370
    15
100
AcDbLine
 10
159.6626543647
 20
161.5635228518
 30
0.0
 11
134.8626543647
 21
161.5635228518
 31
0.0
  0
LINE
  5
249
330
1F
100
AcDbEntity
  8
0
  6
Continuous
 62
     7
370
    15
100
AcDbLine
 10
163.7626543647
 20
166.7635228518
 30
0.0
 11
159.6626543647
 21
161.5635228518
 31
0.0
  0
LINE
  5
24A
330
1F
100
AcDbEntity
  8
0
  6
Continuous
 62
     7
370
    15
100
AcDbLine
 10
163.7626543647
 20
166.7635228518
 30
0.0
 11
172.9782138569
 21
166.7635228518
 31
0.0
  0
LINE
  5
24B
330
1F
100
AcDbEntity
  8
0
  6
Continuous
 62
     7
370
    15
100
AcDbLine
 10
172.9782138569
 20
150.7635228518
 30
0.0
 11
172.9782138569
 21
166.7635228518
 31
0.0
  0
LINE
  5
24C
330
1F
100
AcDbEntity
  8
0
  6
Continuous
 62
     7
370
    15
100
AcDbLine
 10
173.7626543647
 20
150.7635228518
 30
0.0
 11
172.9782138569
 21
150.7635228518
 31
0.0
  0
LINE
  5
24D
330
1F
100
AcDbEntity
  8
0
  6
Continuous
 62
     7
370
    15
100
AcDbLine
 10
115.1626543647
 20
166.7635228518
 30
0.0
 11
115.1626543647
 21
148.9635228518
 31
0.0
  0
LINE
  5
24E
330
1F
100
AcDbEntity
  8
0
  6
Continuous
 62
     7
370
    15
100
AcDbLine
 10
115.1626543647
 20
166.7635228518
 30
0.0
 11
123.0188922804
 21
166.7635228518
 31
0.0
  0
LINE
  5
24F
330
1F
100
AcDbEntity
  8
0
  6
Continuous
 62
     7
370
    15
100
AcDbLine
 10
115.1626543647
 20
148.9635228518
 30
0.0
 11
123.0188922804
 21
148.9635228518
 31
0.0
  0
LINE
  5
250
330
1F
100
AcDbEntity
  8
0
  6
Continuous
 62
     7
370
    15
100
AcDbLine
 10
133.9626543647
 20
162.9635228518
 30
0.0
 11
131.6739491881
 21
162.9635228518
 31
0.0
  0
LINE
  5
251
330
1F
100
AcDbEntity
  8
0
  6
Continuous
 62
     7
370
    15
100
AcDbLine
 10
134.9460830273
 20
161.5635228518
 30
0.0
 11
133.9626543647
 21
162.9635228518
 31
0.0
  0
LINE
  5
252
330
1F
100
AcDbEntity
  8
0
  6
Continuous
 62
     7
370
    15
100
AcDbLine
 10
124.3626543647
 20
166.7635228518
 30
0.0
 11
124.3626543647
 21
166.1735445334
 31
0.0
  0
LINE
  5
253
330
1F
100
AcDbEntity
  8
0
  6
Continuous
 62
     7
370
    15
100
AcDbLine
 10
125.1626543647
 20
166.7635228518
 30
0.0
 11
125.7945471645
 21
165.5448724522
 31
0.0
  0
LINE
  5
254
330
1F
100
AcDbEntity
  8
0
  6
Continuous
 62
     7
370
    15
100
AcDbLine
 10
124.3626543647
 20
166.7635228518
 30
0.0
 11
125.1626543647
 21
166.7635228518
 31
0.0
  0
LINE
  5
255
330
1F
100
AcDbEntity
  8
0
  6
Continuous
 62
     7
370
    15
100
AcDbLine
 10
157.3626543647
 20
141.3635228518
 30
0.0
 11
157.3626543647
 21
148.9635228518
 31
0.0
  0
LINE
  5
256
330
1F
100
AcDbEntity
  8
0
  6
Continuous
 62
     7
370
    15
100
AcDbLine
 10
157.3626543647
 20
141.3635228518
 30
0.0
 11
156.5626543647
 21
141.3635228518
 31
0.0
  0
LINE
  5
257
330
1F
100
AcDbEntity
  8
0
  6
Continuous
 62
     7
370
    15
100
AcDbLine
 10
156.5626543647
 20
141.3635228518
 30
0.0
 11
156.5626543647
 21
148.9635228518
 31
0.0
  0
LINE
  5
258
330
1F
100
AcDbEntity
  8
0
  6
Continuous
 62
     7
370
    15
100
AcDbLine
 10
117.7626543647
 20
141.3635228518
 30
0.0
 11
117.7626543647
 21
148.9635228518
 31
0.0
  0
LINE
  5
259
330
1F
100
AcDbEntity
  8
0
  6
Continuous
 62
     7
370
    15
100
AcDbLine
 10
116.9626543647
 20
141.3635228518
 30
0.0
 11
116.9626543647
 21
148.9635228518
 31
0.0
  0
LINE
  5
25A
330
1F
100
AcDbEntity
  8
0
  6
Continuous
 62
     7
370
    15
100
AcDbLine
 10
117.7626543647
 20
141.3635228518
 30
0.0
 11
116.9626543647
 21
141.3635228518
 31
0.0
  0
DIMENSION
  5
25B
330
1F
100
AcDbEntity
  8
LAYER1
100
AcDbDimension
  2
*D8
 10
183.7626543647
 20
148.9635228518
 30
0.0
 11
183.7626543647
 21
157.8635228518
 31
0.0
 70
   160
 71
     2
 42
-1.0
  3
SLDDIMSTYLE2
100
AcDbAlignedDimension
 13
172.9782138569
 23
166.7635228518
 33
0.0
 14
173.7626543647
 24
148.9635228518
 34
0.0
 50
90.0
100
AcDbRotatedDimension
  0
DIMENSION
  5
268
330
1F
100
AcDbEntity
  8
LAYER1
100
AcDbDimension
  2
*D9
 10
195.7626543647
 20
166.7635228518
 30
0.0
 11
195.7626543647
 21
154.0635228518
 31
0.0
 70
   160
 71
     2
 42
-1.0
  3
SLDDIMSTYLE1
100
AcDbAlignedDimension
 13
157.3626543647
 23
141.3635228518
 33
0.0
 14
172.9782138569
 24
166.7635228518
 34
0.0
 50
90.0
100
AcDbRotatedDimension
  0
LINE
  5
272
330
1F
100
AcDbEntity
  8
0
  6
Continuous
 62
     7
370
    15
100
AcDbLine
 10
56.5644104803
 20
70.5313182316
 30
0.0
 11
54.7644104803
 21
70.5313182316
 31
0.0
  0
LINE
  5
273
330
1F
100
AcDbEntity
  8
0
  6
Continuous
 62
     7
370
    15
100
AcDbLine
 10
56.5644104803
 20
69.7313182316
 30
0.0
 11
56.5644104803
 21
70.5313182316
 31
0.0
  0
LINE
  5
274
330
1F
100
AcDbEntity
  8
0
  6
Continuous
 62
     7
370
    15
100
AcDbLine
 10
54.7644104803
 20
69.7313182316
 30
0.0
 11
56.5644104803
 21
69.7313182316
 31
0.0
  0
LINE
  5
275
330
1F
100
AcDbEntity
  8
0
  6
Continuous
 62
     7
370
    15
100
AcDbLine
 10
54.7644104803
 20
70.5313182316
 30
0.0
 11
54.7644104803
 21
69.7313182316
 31
0.0
  0
LINE
  5
276
330
1F
100
AcDbEntity
  8
0
  6
Continuous
 62
     7
370
    15
100
AcDbLine
 10
56.5644104803
 20
110.1313182316
 30
0.0
 11
54.7644104803
 21
110.1313182316
 31
0.0
  0
LINE
  5
277
330
1F
100
AcDbEntity
  8
0
  6
Continuous
 62
     7
370
    15
100
AcDbLine
 10
56.5644104803
 20
109.3313182316
 30
0.0
 11
56.5644104803
 21
110.1313182316
 31
0.0
  0
LINE
  5
278
330
1F
100
AcDbEntity
  8
0
  6
Continuous
 62
     7
370
    15
100
AcDbLine
 10
54.7644104803
 20
109.3313182316
 30
0.0
 11
56.5644104803
 21
109.3313182316
 31
0.0
  0
LINE
  5
279
330
1F
100
AcDbEntity
  8
0
  6
Continuous
 62
     7
370
    15
100
AcDbLine
 10
54.7644104803
 20
110.1313182316
 30
0.0
 11
54.7644104803
 21
109.3313182316
 31
0.0
  0
LINE
  5
27A
330
1F
100
AcDbEntity
  8
0
  6
Continuous
 62
     7
370
    15
100
AcDbLine
 10
44.9644104803
 20
104.0750803159
 30
0.0
 11
44.9644104803
 21
111.9313182316
 31
0.0
  0
ARC
  5
27B
330
1F
100
AcDbEntity
  8
0
  6
Continuous
 62
     7
370
    15
100
AcDbCircle
 10
55.6644104803
 20
79.8313182316
 30
0.0
 40
24.70000000000002
100
AcDbArc
 50
226.4991740014
 51
255.3178717522
  0
LINE
  5
27C
330
1F
100
AcDbEntity
  8
0
  6
Continuous
 62
     7
370
    15
100
AcDbLine
 10
44.9644104803
 20
111.9313182316
 30
0.0
 11
66.3644104803
 21
111.9313182316
 31
0.0
  0
LINE
  5
27D
330
1F
100
AcDbEntity
  8
0
  6
Continuous
 62
     7
370
    15
100
AcDbLine
 10
50.1644104803
 20
58.8398914102
 30
0.0
 11
49.4040418168
 21
55.9378508358
 31
0.0
  0
ARC
  5
27E
330
1F
100
AcDbEntity
  8
0
  6
Continuous
 62
     7
370
    15
100
AcDbCircle
 10
55.6644104803
 20
79.8313182316
 30
0.0
 40
21.70000000000003
100
AcDbArc
 50
284.6821282478
 51
313.5008259986
  0
ARC
  5
27F
330
1F
100
AcDbEntity
  8
0
  6
Continuous
 62
     7
370
    15
100
AcDbCircle
 10
55.6644104803
 20
79.8313182316
 30
0.0
 40
26.5
100
AcDbArc
 50
113.8142964668
 51
66.1857035332
  0
LINE
  5
280
330
1F
100
AcDbEntity
  8
0
  6
Continuous
 62
     7
370
    15
100
AcDbLine
 10
66.3644104803
 20
111.9313182316
 30
0.0
 11
66.3644104803
 21
104.0750803159
 31
0.0
  0
ARC
  5
281
330
1F
100
AcDbEntity
  8
0
  6
Continuous
 62
     7
370
    15
100
AcDbCircle
 10
55.6644104803
 20
79.8313182316
 30
0.0
 40
21.70000000000003
100
AcDbArc
 50
226.4991740014
 51
255.3178717522
  0
LINE
  5
282
330
1F
100
AcDbEntity
  8
0
  6
Continuous
 62
     7
370
    15
100
AcDbLine
 10
38.6617941676
 20
61.9148163822
 30
0.0
 11
40.7268892663
 21
64.0909097242
 31
0.0
  0
ARC
  5
283
330
1F
100
AcDbEntity
  8
0
  6
Continuous
 62
     7
370
    15
100
AcDbCircle
 10
55.6644104803
 20
79.8313182316
 30
0.0
 40
24.70000000000002
100
AcDbArc
 50
284.6821282478
 51
313.5008259986
  0
LINE
  5
284
330
1F
100
AcDbEntity
  8
0
  6
Continuous
 62
     7
370
    15
100
AcDbLine
 10
61.9247791439
 20
55.9378508358
 30
0.0
 11
61.1644104803
 21
58.8398914102
 31
0.0
  0
LINE
  5
285
330
1F
100
AcDbEntity
  8
0
  6
Continuous
 62
     7
370
    15
100
AcDbLine
 10
70.6019316944
 20
64.0909097242
 30
0.0
 11
72.6670267931
 21
61.9148163822
 31
0.0
  0
ARC
  5
286
330
1F
100
AcDbEntity
  8
0
  6
Continuous
 62
     7
370
    15
100
AcDbCircle
 10
55.6644104803
 20
79.8313182316
 30
0.0
 40
23.7
100
AcDbArc
 50
226.4991740014
 51
254.3332223397
  0
LINE
  5
287
330
1F
100
AcDbEntity
  8
0
  6
Continuous
 62
     7
370
    15
100
AcDbLine
 10
49.2644104803
 20
55.9748725618
 30
0.0
 11
49.2644104803
 21
57.0118090345
 31
0.0
  0
ARC
  5
288
330
1F
100
AcDbEntity
  8
0
  6
Continuous
 62
     7
370
    15
100
AcDbCircle
 10
55.6644104803
 20
79.8313182316
 30
0.0
 40
23.7
100
AcDbArc
 50
285.6667776603
 51
313.5008259986
  0
LINE
  5
289
330
1F
100
AcDbEntity
  8
0
  6
Continuous
 62
     7
370
    15
100
AcDbLine
 10
62.0644104803
 20
57.0118090345
 30
0.0
 11
62.0644104803
 21
55.9748725618
 31
0.0
  0
DIMENSION
  5
28A
330
1F
100
AcDbEntity
  8
LAYER1
100
AcDbDimension
  2
*D10
 10
92.1644104803
 20
69.7313182316
 30
0.0
 11
92.1644104803
 21
89.9313182316
 31
0.0
 70
   160
 71
     2
 42
-1.0
  3
SLDDIMSTYLE1
100
AcDbAlignedDimension
 13
56.5644104803
 23
110.1313182316
 33
0.0
 14
56.5644104803
 24
69.7313182316
 34
0.0
 50
90.0
100
AcDbRotatedDimension
  0
DIMENSION
  5
294
330
1F
100
AcDbEntity
  8
LAYER1
100
AcDbDimension
  2
*D11
 10
92.1644104803
 20
111.9313182316
 30
0.0
 11
92.1644104803
 21
119.3694492149
 31
0.0
 70
   160
 71
     2
 42
-1.0
  3
SLDDIMSTYLE2
100
AcDbAlignedDimension
 13
56.5644104803
 23
110.1313182316
 33
0.0
 14
66.3644104803
 24
111.9313182316
 34
0.0
 50
90.0
100
AcDbRotatedDimension
  0
DIMENSION
  5
2A0
330
1F
100
AcDbEntity
  8
LAYER1
100
AcDbDimension
  2
*D12
 10
56.5644104803
 20
98.0991654882
 30
0.0
 11
49.0561473875
 21
98.0991654882
 31
0.0
 70
   160
 71
     2
 42
-1.0
  3
SLDDIMSTYLE2
100
AcDbAlignedDimension
 13
54.7644104803
 23
109.3313182316
 33
0.0
 14
56.5644104803
 24
109.3313182316
 34
0.0
 50
0.0
100
AcDbRotatedDimension
  0
DIMENSION
  5
2AC
330
1F
100
AcDbEntity
  8
LAYER1
100
AcDbDimension
  2
*D13
 10
52.7035014828
 20
69.7313182316
 30
0.0
 11
52.7035014828
 21
81.2783511656
 31
0.0
 70
   160
 71
     2
 42
-1.0
  3
SLDDIMSTYLE2
100
AcDbAlignedDimension
 13
54.7644104803
 23
70.5313182316
 33
0.0
 14
54.7644104803
 24
69.7313182316
 34
0.0
 50
90.0
100
AcDbRotatedDimension
  0
DIMENSION
  5
2B8
330
1F
100
AcDbEntity
  8
LAYER1
100
AcDbDimension
  2
*D14
 10
66.3644104803
 20
115.1094506279
 30
0.0
 11
56.7365407716
 21
115.1094506279
 31
0.0
 70
   160
 71
     2
 42
-1.0
  3
SLDDIMSTYLE2
100
AcDbAlignedDimension
 13
44.9644104803
 23
111.9313182316
 33
0.0
 14
66.3644104803
 24
111.9313182316
 34
0.0
 50
0.0
100
AcDbRotatedDimension
  0
ENDSEC
  0
SECTION
  2
OBJECTS
  0
DICTIONARY
  5
C
330
0
100
AcDbDictionary
281
     1
  3
ACAD_GROUP
350
D
  3
ACAD_LAYOUT
350
1A
  3
ACAD_MLEADERSTYLE
350
2C6
  3
ACAD_MLINESTYLE
350
17
  3
ACAD_PLOTSETTINGS
350
19
  3
ACAD_PLOTSTYLENAME
350
E
  3
ACAD_SCALELIST
350
52
  3
ACAD_VISUALSTYLE
350
2A
  3
AcDbVariableDictionary
350
2C4
  0
DICTIONARY
  5
D
102
{ACAD_REACTORS
330
C
102
}
330
C
100
AcDbDictionary
281
     1
  0
DICTIONARY
  5
1A
102
{ACAD_REACTORS
330
C
102
}
330
C
100
AcDbDictionary
281
     1
  3
Layout1
350
1E
  3
Layout2
350
26
  3
Model
350
22
  0
DICTIONARY
  5
2C6
102
{ACAD_REACTORS
330
C
102
}
330
C
100
AcDbDictionary
281
     1
  0
DICTIONARY
  5
17
102
{ACAD_REACTORS
330
C
102
}
330
C
100
AcDbDictionary
281
     1
  3
Standard
350
18
  0
DICTIONARY
  5
19
102
{ACAD_REACTORS
330
C
102
}
330
C
100
AcDbDictionary
281
     1
  0
ACDBDICTIONARYWDFLT
  5
E
102
{ACAD_REACTORS
330
C
102
}
330
C
100
AcDbDictionary
281
     1
  3
Normal
350
F
100
AcDbDictionaryWithDefault
340
F
  0
DICTIONARY
  5
52
102
{ACAD_REACTORS
330
C
102
}
330
C
100
AcDbDictionary
281
     1
  3
A0
350
53
  3
A1
350
54
  3
A2
350
55
  3
A3
350
56
  3
A4
350
57
  3
A5
350
58
  3
A6
350
59
  3
A7
350
5A
  3
A8
350
5B
  3
A9
350
5C
  3
B0
350
5D
  3
B1
350
5E
  3
B2
350
5F
  3
B3
350
60
  3
B4
350
61
  3
B5
350
62
  3
B6
350
63
  3
B7
350
64
  3
B8
350
65
  3
B9
350
66
  3
C0
350
67
  3
C1
350
68
  3
C2
350
69
  3
C3
350
6A
  3
C4
350
6B
  3
C5
350
6C
  3
C6
350
6D
  3
C7
350
6E
  3
C8
350
6F
  3
C9
350
70
  3
D0
350
71
  3
D1
350
72
  3
D2
350
73
  0
DICTIONARY
  5
2A
102
{ACAD_REACTORS
330
C
102
}
330
C
100
AcDbDictionary
281
     1
  3
2dWireframe
350
2F
  3
3D Hidden
350
31
  3
3dWireframe
350
30
  3
Basic
350
32
  3
Brighten
350
36
  3
ColorChange
350
3A
  3
Conceptual
350
34
  3
Dim
350
35
  3
Facepattern
350
39
  3
Flat
350
2B
  3
FlatWithEdges
350
2C
  3
Gouraud
350
2D
  3
GouraudWithEdges
350
2E
  3
Linepattern
350
38
  3
Realistic
350
33
  3
Thicken
350
37
  0
DICTIONARY
  5
2C4
102
{ACAD_REACTORS
330
C
102
}
330
C
100
AcDbDictionary
281
     1
  3
CANNOSCALE
350
2C9
  3
DIMASSOC
350
2CA
  3
HIDETEXT
350
2CB
  3
PSOLHEIGHT
350
2C8
  3
PSOLWIDTH
350
2C7
  0
LAYOUT
  5
1E
102
{ACAD_REACTORS
330
1A
102
}
330
1A
100
AcDbPlotSettings
  1

  2
none_device
  4

  6

 40
0.0
 41
0.0
 42
0.0
 43
0.0
 44
0.0
 45
0.0
 46
0.0
 47
0.0
 48
0.0
 49
0.0
140
0.0
141
0.0
142
1.0
143
1.0
 70
   688
 72
     0
 73
     0
 74
     5
  7

 75
    16
147
1.0
148
0.0
149
0.0
100
AcDbLayout
  1
Layout1
 70
     1
 71
     1
 10
0.0
 20
0.0
 11
420.0
 21
297.0
 12
0.0
 22
0.0
 32
0.0
 14
1.0000000000E+20
 24
1.0000000000E+20
 34
1.0000000000E+20
 15
-1.0000000000E+20
 25
-1.0000000000E+20
 35
-1.0000000000E+20
146
0.0
 13
0.0
 23
0.0
 33
0.0
 16
1.0
 26
0.0
 36
0.0
 17
0.0
 27
1.0
 37
0.0
 76
     0
330
1B
  0
LAYOUT
  5
26
102
{ACAD_REACTORS
330
1A
102
}
330
1A
100
AcDbPlotSettings
  1

  2
none_device
  4

  6

 40
0.0
 41
0.0
 42
0.0
 43
0.0
 44
0.0
 45
0.0
 46
0.0
 47
0.0
 48
0.0
 49
0.0
140
0.0
141
0.0
142
1.0
143
1.0
 70
   688
 72
     0
 73
     0
 74
     5
  7

 75
    16
147
1.0
148
0.0
149
0.0
100
AcDbLayout
  1
Layout2
 70
     1
 71
     2
 10
0.0
 20
0.0
 11
0.0
 21
0.0
 12
0.0
 22
0.0
 32
0.0
 14
0.0
 24
0.0
 34
0.0
 15
0.0
 25
0.0
 35
0.0
146
0.0
 13
0.0
 23
0.0
 33
0.0
 16
1.0
 26
0.0
 36
0.0
 17
0.0
 27
1.0
 37
0.0
 76
     0
330
23
  0
LAYOUT
  5
22
102
{ACAD_REACTORS
330
1A
102
}
330
1A
100
AcDbPlotSettings
  1

  2
none_device
  4

  6

 40
0.0
 41
0.0
 42
0.0
 43
0.0
 44
0.0
 45
0.0
 46
0.0
 47
0.0
 48
0.0
 49
0.0
140
0.0
141
0.0
142
1.0
143
1.0
 70
  1712
 72
     0
 73
     0
 74
     0
  7

 75
     0
147
1.0
148
0.0
149
0.0
100
AcDbLayout
  1
Model
 70
     1
 71
     0
 10
0.0
 20
0.0
 11
297.0
 21
210.0
 12
0.0
 22
0.0
 32
0.0
 14
0.0
 24
0.0
 34
0.0
 15
297.0
 25
210.0
 35
0.0
146
0.0
 13
0.0
 23
0.0
 33
0.0
 16
1.0
 26
0.0
 36
0.0
 17
0.0
 27
1.0
 37
0.0
 76
     0
330
1F
331
29
  0
MLINESTYLE
  5
18
102
{ACAD_REACTORS
330
17
102
}
330
17
100
AcDbMlineStyle
  2
Standard
 70
     0
  3

 62
   256
 51
90.0
 52
90.0
 71
     2
 49
0.5
 62
   256
  6
BYLAYER
 49
-0.5
 62
   256
  6
BYLAYER
  0
ACDBPLACEHOLDER
  5
F
102
{ACAD_REACTORS
330
E
102
}
330
E
  0
SCALE
  5
53
102
{ACAD_REACTORS
330
52
102
}
330
52
100
AcDbScale
 70
     0
300
1:1
140
1.0
141
1.0
290
     1
  0
SCALE
  5
54
102
{ACAD_REACTORS
330
52
102
}
330
52
100
AcDbScale
 70
     0
300
1:2
140
1.0
141
2.0
290
     0
  0
SCALE
  5
55
102
{ACAD_REACTORS
330
52
102
}
330
52
100
AcDbScale
 70
     0
300
1:4
140
1.0
141
4.0
290
     0
  0
SCALE
  5
56
102
{ACAD_REACTORS
330
52
102
}
330
52
100
AcDbScale
 70
     0
300
1:5
140
1.0
141
5.0
290
     0
  0
SCALE
  5
57
102
{ACAD_REACTORS
330
52
102
}
330
52
100
AcDbScale
 70
     0
300
1:8
140
1.0
141
8.0
290
     0
  0
SCALE
  5
58
102
{ACAD_REACTORS
330
52
102
}
330
52
100
AcDbScale
 70
     0
300
1:10
140
1.0
141
10.0
290
     0
  0
SCALE
  5
59
102
{ACAD_REACTORS
330
52
102
}
330
52
100
AcDbScale
 70
     0
300
1:16
140
1.0
141
16.0
290
     0
  0
SCALE
  5
5A
102
{ACAD_REACTORS
330
52
102
}
330
52
100
AcDbScale
 70
     0
300
1:20
140
1.0
141
20.0
290
     0
  0
SCALE
  5
5B
102
{ACAD_REACTORS
330
52
102
}
330
52
100
AcDbScale
 70
     0
300
1:30
140
1.0
141
30.0
290
     0
  0
SCALE
  5
5C
102
{ACAD_REACTORS
330
52
102
}
330
52
100
AcDbScale
 70
     0
300
1:40
140
1.0
141
40.0
290
     0
  0
SCALE
  5
5D
102
{ACAD_REACTORS
330
52
102
}
330
52
100
AcDbScale
 70
     0
300
1:50
140
1.0
141
50.0
290
     0
  0
SCALE
  5
5E
102
{ACAD_REACTORS
330
52
102
}
330
52
100
AcDbScale
 70
     0
300
1:100
140
1.0
141
100.0
290
     0
  0
SCALE
  5
5F
102
{ACAD_REACTORS
330
52
102
}
330
52
100
AcDbScale
 70
     0
300
2:1
140
2.0
141
1.0
290
     0
  0
SCALE
  5
60
102
{ACAD_REACTORS
330
52
102
}
330
52
100
AcDbScale
 70
     0
300
4:1
140
4.0
141
1.0
290
     0
  0
SCALE
  5
61
102
{ACAD_REACTORS
330
52
102
}
330
52
100
AcDbScale
 70
     0
300
8:1
140
8.0
141
1.0
290
     0
  0
SCALE
  5
62
102
{ACAD_REACTORS
330
52
102
}
330
52
100
AcDbScale
 70
     0
300
10:1
140
10.0
141
1.0
290
     0
  0
SCALE
  5
63
102
{ACAD_REACTORS
330
52
102
}
330
52
100
AcDbScale
 70
     0
300
100:1
140
100.0
141
1.0
290
     0
  0
SCALE
  5
64
102
{ACAD_REACTORS
330
52
102
}
330
52
100
AcDbScale
 70
     0
300
1/128" = 1'-0"
140
0.0078125
141
12.0
290
     0
  0
SCALE
  5
65
102
{ACAD_REACTORS
330
52
102
}
330
52
100
AcDbScale
 70
     0
300
1/64" = 1'-0"
140
0.015625
141
12.0
290
     0
  0
SCALE
  5
66
102
{ACAD_REACTORS
330
52
102
}
330
52
100
AcDbScale
 70
     0
300
1/32" = 1'-0"
140
0.03125
141
12.0
290
     0
  0
SCALE
  5
67
102
{ACAD_REACTORS
330
52
102
}
330
52
100
AcDbScale
 70
     0
300
1/16" = 1'-0"
140
0.0625
141
12.0
290
     0
  0
SCALE
  5
68
102
{ACAD_REACTORS
330
52
102
}
330
52
100
AcDbScale
 70
     0
300
3/32" = 1'-0"
140
0.09375
141
12.0
290
     0
  0
SCALE
  5
69
102
{ACAD_REACTORS
330
52
102
}
330
52
100
AcDbScale
 70
     0
300
1/8" = 1'-0"
140
0.125
141
12.0
290
     0
  0
SCALE
  5
6A
102
{ACAD_REACTORS
330
52
102
}
330
52
100
AcDbScale
 70
     0
300
3/16" = 1'-0"
140
0.1875
141
12.0
290
     0
  0
SCALE
  5
6B
102
{ACAD_REACTORS
330
52
102
}
330
52
100
AcDbScale
 70
     0
300
1/4" = 1'-0"
140
0.25
141
12.0
290
     0
  0
SCALE
  5
6C
102
{ACAD_REACTORS
330
52
102
}
330
52
100
AcDbScale
 70
     0
300
3/8" = 1'-0"
140
0.375
141
12.0
290
     0
  0
SCALE
  5
6D
102
{ACAD_REACTORS
330
52
102
}
330
52
100
AcDbScale
 70
     0
300
1/2" = 1'-0"
140
0.5
141
12.0
290
     0
  0
SCALE
  5
6E
102
{ACAD_REACTORS
330
52
102
}
330
52
100
AcDbScale
 70
     0
300
3/4" = 1'-0"
140
0.75
141
12.0
290
     0
  0
SCALE
  5
6F
102
{ACAD_REACTORS
330
52
102
}
330
52
100
AcDbScale
 70
     0
300
1" = 1'-0"
140
1.0
141
12.0
290
     0
  0
SCALE
  5
70
102
{ACAD_REACTORS
330
52
102
}
330
52
100
AcDbScale
 70
     0
300
1-1/2" = 1'-0"
140
1.5
141
12.0
290
     0
  0
SCALE
  5
71
102
{ACAD_REACTORS
330
52
102
}
330
52
100
AcDbScale
 70
     0
300
3" = 1'-0"
140
3.0
141
12.0
290
     0
  0
SCALE
  5
72
102
{ACAD_REACTORS
330
52
102
}
330
52
100
AcDbScale
 70
     0
300
6" = 1'-0"
140
6.0
141
12.0
290
     0
  0
SCALE
  5
73
102
{ACAD_REACTORS
330
52
102
}
330
52
100
AcDbScale
 70
     0
300
1'-0" = 1'-0"
140
12.0
141
12.0
290
     0
  0
VISUALSTYLE
  5
2F
102
{ACAD_REACTORS
330
2A
102
}
330
2A
100
AcDbVisualStyle
  2
2dWireframe
 70
     4
 71
     0
 72
     2
 73
     0
 90
        0
 40
-0.6
 41
-30.0
 62
     5
 63
     7
 74
     1
 91
        4
 64
     7
 65
   257
 75
     1
175
     1
 42
1.0
 92
        0
 66
   257
 43
1.0
 76
     1
 77
     6
 78
     2
 67
     7
 79
     5
170
     0
171
     0
290
     0
174
     0
 93
        1
 44
0.0
173
     0
291
     0
 45
0.0
1001
ACAD
1000
AcDbSavedByObjectVersion
1070
     0
  0
VISUALSTYLE
  5
31
102
{ACAD_REACTORS
330
2A
102
}
330
2A
100
AcDbVisualStyle
  2
3D Hidden
 70
     6
 71
     1
 72
     2
 73
     2
 90
        0
 40
-0.6
 41
-30.0
 62
     5
 63
     7
 74
     2
 91
        2
 64
     7
 65
   257
 75
     2
175
     1
 42
40.0
 92
        0
 66
   257
 43
1.0
 76
     1
 77
     6
 78
     2
 67
     7
 79
     3
170
     0
171
     0
290
     0
174
     0
 93
        1
 44
0.0
173
     0
291
     0
 45
0.0
1001
ACAD
1000
AcDbSavedByObjectVersion
1070
     0
  0
VISUALSTYLE
  5
30
102
{ACAD_REACTORS
330
2A
102
}
330
2A
100
AcDbVisualStyle
  2
3dWireframe
 70
     5
 71
     0
 72
     2
 73
     0
 90
        0
 40
-0.6
 41
-30.0
 62
     5
 63
     7
 74
     1
 91
        4
 64
     7
 65
   257
 75
     1
175
     1
 42
1.0
 92
        0
 66
   257
 43
1.0
 76
     1
 77
     6
 78
     2
 67
     7
 79
     5
170
     0
171
     0
290
     0
174
     0
 93
        1
 44
0.0
173
     0
291
     0
 45
0.0
1001
ACAD
1000
AcDbSavedByObjectVersion
1070
     0
  0
VISUALSTYLE
  5
32
102
{ACAD_REACTORS
330
2A
102
}
330
2A
100
AcDbVisualStyle
  2
Basic
 70
     7
 71
     1
 72
     0
 73
     1
 90
        0
 40
-0.6
 41
-30.0
 62
     5
 63
     7
 74
     0
 91
        4
 64
     7
 65
   257
 75
     1
175
     1
 42
1.0
 92
        8
 66
     7
 43
1.0
 76
     1
 77
     6
 78
     2
 67
     7
 79
     5
170
     0
171
     0
290
     0
174
     0
 93
        1
 44
0.0
173
     0
291
     1
 45
0.0
1001
ACAD
1000
AcDbSavedByObjectVersion
1070
     0
  0
VISUALSTYLE
  5
36
102
{ACAD_REACTORS
330
2A
102
}
330
2A
100
AcDbVisualStyle
  2
Brighten
 70
    12
 71
     2
 72
     2
 73
     0
 90
        0
 40
-0.6
 41
-30.0
 62
     5
 63
     7
 74
     1
 91
        4
 64
     7
 65
   257
 75
     1
175
     1
 42
1.0
 92
        8
 66
     7
 43
1.0
 76
     1
 77
     6
 78
     2
 67
     7
 79
     5
170
     0
171
     0
290
     0
174
     0
 93
        1
 44
50.0
173
     0
291
     1
 45
0.0
1001
ACAD
1000
AcDbSavedByObjectVersion
1070
     0
  0
VISUALSTYLE
  5
3A
102
{ACAD_REACTORS
330
2A
102
}
330
2A
100
AcDbVisualStyle
  2
ColorChange
 70
    16
 71
     2
 72
     2
 73
     3
 90
        0
 40
-0.6
 41
-30.0
 62
     5
 63
     8
 74
     1
 91
        4
 64
     7
 65
   257
 75
     1
175
     1
 42
1.0
 92
        8
 66
     8
 43
1.0
 76
     1
 77
     6
 78
     2
 67
     7
 79
     5
170
     0
171
     0
290
     0
174
     0
 93
        1
 44
0.0
173
     0
291
     1
 45
0.0
1001
ACAD
1000
AcDbSavedByObjectVersion
1070
     0
  0
VISUALSTYLE
  5
34
102
{ACAD_REACTORS
330
2A
102
}
330
2A
100
AcDbVisualStyle
  2
Conceptual
 70
     9
 71
     3
 72
     2
 73
     0
 90
        0
 40
-0.6
 41
-30.0
 62
     5
 63
     7
 74
     2
 91
        2
 64
     7
 65
   257
 75
     1
175
     1
 42
40.0
 92
        8
 66
     7
 43
1.0
 76
     1
 77
     6
 78
     2
 67
     7
 79
     3
170
     0
171
     0
290
     0
174
     0
 93
        1
 44
0.0
173
     0
291
     0
 45
0.0
1001
ACAD
1000
AcDbSavedByObjectVersion
1070
     0
  0
VISUALSTYLE
  5
35
102
{ACAD_REACTORS
330
2A
102
}
330
2A
100
AcDbVisualStyle
  2
Dim
 70
    11
 71
     2
 72
     2
 73
     0
 90
        0
 40
-0.6
 41
-30.0
 62
     5
 63
     7
 74
     1
 91
        4
 64
     7
 65
   257
 75
     1
175
     1
 42
1.0
 92
        8
 66
     7
 43
1.0
 76
     1
 77
     6
 78
     2
 67
     7
 79
     5
170
     0
171
     0
290
     0
174
     0
 93
        1
 44
-50.0
173
     0
291
     1
 45
0.0
1001
ACAD
1000
AcDbSavedByObjectVersion
1070
     0
  0
VISUALSTYLE
  5
39
102
{ACAD_REACTORS
330
2A
102
}
330
2A
100
AcDbVisualStyle
  2
Facepattern
 70
    15
 71
     2
 72
     2
 73
     0
 90
        0
 40
-0.6
 41
-30.0
 62
     5
 63
     7
 74
     1
 91
        4
 64
     7
 65
   257
 75
     1
175
     1
 42
1.0
 92
        8
 66
     7
 43
1.0
 76
     1
 77
     6
 78
     2
 67
     7
 79
     5
170
     0
171
     0
290
     0
174
     0
 93
        1
 44
0.0
173
     0
291
     1
 45
0.0
1001
ACAD
1000
AcDbSavedByObjectVersion
1070
     0
  0
VISUALSTYLE
  5
2B
102
{ACAD_REACTORS
330
2A
102
}
330
2A
100
AcDbVisualStyle
  2
Flat
 70
     0
 71
     2
 72
     1
 73
     1
 90
        2
 40
-0.6
 41
30.0
 62
     5
 63
     7
 74
     0
 91
        4
 64
     7
 65
   257
 75
     1
175
     1
 42
1.0
 92
        8
 66
     7
 43
1.0
 76
     1
 77
     6
 78
     2
 67
     7
 79
     5
170
     0
171
     0
290
     0
174
     0
 93
       13
 44
0.0
173
     0
291
     1
 45
0.0
1001
ACAD
1000
AcDbSavedByObjectVersion
1070
     0
  0
VISUALSTYLE
  5
2C
102
{ACAD_REACTORS
330
2A
102
}
330
2A
100
AcDbVisualStyle
  2
FlatWithEdges
 70
     1
 71
     2
 72
     1
 73
     1
 90
        2
 40
-0.6
 41
30.0
 62
     5
 63
     7
 74
     1
 91
        4
 64
     7
 65
   257
 75
     1
175
     1
 42
1.0
 92
        0
 66
   257
 43
1.0
 76
     1
 77
     6
 78
     2
 67
     7
 79
     5
170
     0
171
     0
290
     0
174
     0
 93
       13
 44
0.0
173
     0
291
     1
 45
0.0
1001
ACAD
1000
AcDbSavedByObjectVersion
1070
     0
  0
VISUALSTYLE
  5
2D
102
{ACAD_REACTORS
330
2A
102
}
330
2A
100
AcDbVisualStyle
  2
Gouraud
 70
     2
 71
     2
 72
     2
 73
     1
 90
        2
 40
-0.6
 41
30.0
 62
     5
 63
     7
 74
     0
 91
        4
 64
     7
 65
   257
 75
     1
175
     1
 42
1.0
 92
        0
 66
     7
 43
1.0
 76
     1
 77
     6
 78
     2
 67
     7
 79
     5
170
     0
171
     0
290
     0
174
     0
 93
       13
 44
0.0
173
     0
291
     1
 45
0.0
1001
ACAD
1000
AcDbSavedByObjectVersion
1070
     0
  0
VISUALSTYLE
  5
2E
102
{ACAD_REACTORS
330
2A
102
}
330
2A
100
AcDbVisualStyle
  2
GouraudWithEdges
 70
     3
 71
     2
 72
     2
 73
     1
 90
        2
 40
-0.6
 41
30.0
 62
     5
 63
     7
 74
     1
 91
        4
 64
     7
 65
   257
 75
     1
175
     1
 42
1.0
 92
        0
 66
   257
 43
1.0
 76
     1
 77
     6
 78
     2
 67
     7
 79
     5
170
     0
171
     0
290
     0
174
     0
 93
       13
 44
0.0
173
     0
291
     1
 45
0.0
1001
ACAD
1000
AcDbSavedByObjectVersion
1070
     0
  0
VISUALSTYLE
  5
38
102
{ACAD_REACTORS
330
2A
102
}
330
2A
100
AcDbVisualStyle
  2
Linepattern
 70
    14
 71
     2
 72
     2
 73
     0
 90
        0
 40
-0.6
 41
-30.0
 62
     5
 63
     7
 74
     1
 91
        4
 64
     7
 65
   257
 75
     7
175
     7
 42
1.0
 92
        8
 66
     7
 43
1.0
 76
     1
 77
     6
 78
     2
 67
     7
 79
     5
170
     0
171
     0
290
     0
174
     0
 93
        1
 44
0.0
173
     0
291
     1
 45
0.0
1001
ACAD
1000
AcDbSavedByObjectVersion
1070
     0
  0
VISUALSTYLE
  5
33
102
{ACAD_REACTORS
330
2A
102
}
330
2A
100
AcDbVisualStyle
  2
Realistic
 70
     8
 71
     2
 72
     2
 73
     0
 90
        0
 40
-0.6
 41
-30.0
 62
     5
 63
     7
 74
     1
 91
        0
 64
     7
 65
   257
 75
     1
175
     1
 42
1.0
 92
        8
 66
     8
 43
1.0
 76
     1
 77
     6
 78
     2
 67
     7
 79
     5
170
     0
171
     0
290
     0
174
     0
 93
       13
 44
0.0
173
     0
291
     0
 45
0.0
1001
ACAD
1000
AcDbSavedByObjectVersion
1070
     0
  0
VISUALSTYLE
  5
37
102
{ACAD_REACTORS
330
2A
102
}
330
2A
100
AcDbVisualStyle
  2
Thicken
 70
    13
 71
     2
 72
     2
 73
     0
 90
        0
 40
-0.6
 41
-30.0
 62
     5
 63
     7
 74
     1
 91
        4
 64
     7
 65
   257
 75
     1
175
     1
 42
1.0
 92
       12
 66
     7
 43
1.0
 76
     1
 77
     6
 78
     2
 67
     7
 79
     5
170
     0
171
     0
290
     0
174
     0
 93
        1
 44
0.0
173
     0
291
     1
 45
0.0
1001
ACAD
1000
AcDbSavedByObjectVersion
1070
     0
  0
DICTIONARYVAR
  5
2C9
102
{ACAD_REACTORS
330
2C4
102
}
330
2C4
100
DictionaryVariables
280
     0
  1
1:1
  0
DICTIONARYVAR
  5
2CA
102
{ACAD_REACTORS
330
2C4
102
}
330
2C4
100
DictionaryVariables
280
     0
  1
2
  0
DICTIONARYVAR
  5
2CB
102
{ACAD_REACTORS
330
2C4
102
}
330
2C4
100
DictionaryVariables
280
     0
  1
1
  0
DICTIONARYVAR
  5
2C8
102
{ACAD_REACTORS
330
2C4
102
}
330
2C4
100
DictionaryVariables
280
     0
  1
80.000000
  0
DICTIONARYVAR
  5
2C7
102
{ACAD_REACTORS
330
2C4
102
}
330
2C4
100
DictionaryVariables
280
     0
  1
5.000000
  0
ENDSEC
  0
EOF
